{"glyphs":{"Â¦":{"x_min":113,"x_max":179,"ha":284,"o":"m 179 936 l 179 433 l 113 433 l 113 936 l 179 936 m 179 224 l 179 -280 l 113 -280 l 113 224 l 179 224 "},"Å�":{"x_min":52,"x_max":920,"ha":970,"o":"m 464 867 q 383 852 422 867 q 305 805 343 837 q 240 725 268 772 q 194 608 211 679 q 178 454 178 538 q 206 276 178 357 q 282 142 234 195 q 389 61 329 90 q 511 33 448 33 q 712 140 633 33 q 792 430 792 248 q 703 754 792 642 q 464 867 615 867 m 920 457 q 800 116 920 246 q 483 -14 681 -14 q 266 39 363 -14 q 110 194 168 92 q 52 430 52 296 q 107 675 52 564 q 261 850 162 786 q 482 914 360 914 q 656 881 575 914 q 795 788 736 848 q 886 644 853 729 q 920 457 920 558 m 681 1139 q 699 1100 699 1125 q 689 1072 699 1082 l 552 956 q 542 953 549 953 q 529 958 535 953 q 523 971 523 963 q 524 978 523 977 l 610 1136 q 642 1153 620 1153 q 681 1139 664 1153 m 495 1148 q 517 1107 517 1133 q 507 1081 517 1089 l 376 961 q 365 959 368 959 q 354 963 362 959 q 346 978 346 969 q 347 984 346 982 l 426 1144 q 464 1160 436 1160 q 495 1148 480 1160 "},"â€¥":{"x_min":79,"x_max":511,"ha":588,"o":"m 385 7 q 364 59 364 29 q 385 110 364 88 q 437 133 407 133 q 489 110 467 133 q 511 59 511 88 q 489 7 511 29 q 437 -14 467 -14 q 385 7 407 -14 m 100 7 q 79 59 79 29 q 100 110 79 88 q 152 133 122 133 q 204 110 182 133 q 226 59 226 88 q 204 7 226 29 q 152 -14 182 -14 q 100 7 122 -14 "},"Å½":{"x_min":57,"x_max":803.171875,"ha":838,"o":"m 765 -1 q 588 -1 626 -1 l 83 -1 q 57 20 57 -1 q 67 53 57 37 l 608 805 q 619 830 619 819 q 605 841 619 841 l 284 841 q 230 832 254 841 q 192 811 207 823 q 164 774 177 798 q 143 730 151 750 q 125 675 136 710 l 84 682 q 111 915 111 799 q 163 905 135 913 q 227 897 191 897 l 673 897 q 725 904 696 899 q 761 910 753 910 q 786 907 780 910 q 793 897 793 904 q 759 821 793 868 l 238 100 q 228 72 228 80 q 262 55 228 55 l 586 55 q 653 68 624 55 q 702 108 682 82 q 735 165 722 135 q 759 236 748 195 l 803 229 q 765 -1 776 115 m 388 971 q 249 1102 338 1032 l 270 1130 q 417 1045 354 1093 q 566 1130 496 1100 l 587 1102 q 448 971 520 1052 l 388 971 "},"Ã�":{"x_min":3,"x_max":958,"ha":965,"o":"m 365 394 l 607 394 l 470 765 l 469 765 l 330 411 q 336 398 326 402 q 365 394 346 394 m 210 109 q 214 62 200 82 q 266 39 229 42 l 307 39 q 318 27 318 39 l 318 0 l 315 -1 q 131 -1 164 -1 l 5 -1 l 3 0 l 3 27 q 13 39 3 39 q 93 59 64 39 q 148 142 121 79 l 457 865 q 479 901 466 886 q 505 915 493 915 q 524 905 516 915 q 541 873 532 895 l 826 119 q 863 61 840 79 q 928 39 886 43 l 944 37 q 958 26 958 37 l 958 0 l 953 -1 q 792 -1 846 -1 l 608 -1 l 607 0 l 607 27 q 616 39 607 39 l 655 39 q 710 56 695 42 q 714 99 724 70 l 629 336 l 340 336 q 306 330 316 336 q 291 312 297 325 l 210 109 m 579 1140 l 665 1068 l 465 987 q 405 971 426 971 q 386 991 386 971 q 407 1020 386 1006 l 579 1140 "},"Ä¥":{"x_min":45,"x_max":777,"ha":820,"o":"m 445 906 q 586 727 491 834 l 557 707 q 410 832 458 780 q 261 707 349 770 l 233 727 q 376 906 334 839 l 445 906 m 573 85 l 573 306 l 249 306 l 249 85 q 261 53 249 63 q 307 40 274 44 l 336 38 q 342 35 339 38 q 345 29 345 33 l 345 0 l 343 -1 q 194 -1 236 -1 l 47 -1 l 45 0 l 45 29 q 54 38 45 38 l 82 40 q 129 53 116 44 q 142 85 142 63 l 142 557 q 129 589 142 580 q 82 601 116 597 l 54 604 q 45 612 45 604 l 45 639 l 47 641 q 194 641 151 641 l 343 641 l 345 639 l 345 612 q 336 604 345 604 l 307 601 q 262 588 275 597 q 249 557 249 578 l 249 349 l 573 349 l 573 557 q 559 588 573 579 q 513 601 545 597 l 485 604 q 475 612 475 604 l 475 639 l 479 641 q 624 641 581 641 l 773 641 l 775 639 l 775 612 q 766 604 775 604 l 739 600 q 692 590 705 600 q 679 559 679 580 l 679 85 q 692 53 679 63 q 739 40 705 44 l 766 38 q 777 29 777 38 l 777 0 l 773 -1 q 622 -1 664 -1 l 479 -1 l 477 0 l 477 29 q 485 38 477 38 l 513 40 q 558 54 544 44 q 573 85 573 65 "},"ÃŽ":{"x_min":24,"x_max":383,"ha":407,"o":"m 260 800 l 260 95 q 276 52 260 64 q 336 40 293 40 l 372 40 q 383 28 383 40 l 383 0 l 380 -1 q 204 -1 314 -1 q 27 -1 95 -1 l 25 0 l 25 28 q 34 40 25 40 l 71 40 q 131 52 115 40 q 147 95 147 65 l 147 800 q 130 843 147 831 q 71 856 113 856 l 34 856 q 24 867 24 856 l 24 896 l 26 897 q 202 897 95 897 q 380 897 312 897 l 383 896 l 383 867 q 372 856 383 856 l 336 856 q 277 842 294 856 q 260 800 260 829 m 232 1119 q 372 988 288 1050 l 349 958 q 202 1045 266 998 q 54 958 132 993 l 34 988 q 172 1119 91 1030 l 232 1119 "},"e":{"x_min":45,"x_max":579.125,"ha":630,"o":"m 544 641 q 562 472 544 569 l 528 468 q 514 509 521 492 q 492 548 506 527 q 454 580 477 568 q 399 592 430 592 l 288 592 q 257 585 266 592 q 248 562 248 579 l 248 357 l 351 357 q 390 367 379 357 q 406 401 401 378 l 414 431 q 422 438 414 438 l 445 438 q 449 433 449 438 q 440 330 440 354 q 449 234 440 317 l 445 232 l 423 232 q 413 238 413 232 l 406 269 q 389 302 402 291 q 351 313 377 313 l 248 313 l 248 81 q 257 55 248 62 q 288 48 267 48 l 407 48 q 495 80 465 48 q 545 173 525 112 l 579 169 q 552 -1 552 70 l 183 -1 l 46 -1 l 45 0 l 45 31 q 53 37 45 37 l 85 40 q 129 53 117 43 q 141 84 141 62 l 141 558 q 128 590 141 581 q 85 599 115 599 l 53 603 q 45 609 45 604 l 45 639 l 46 641 l 184 641 l 285 641 l 544 641 "},"Â»":{"x_min":66,"x_max":622,"ha":743,"o":"m 66 1 l 66 71 q 264 298 156 209 q 66 525 165 373 l 66 596 q 369 325 231 403 l 369 272 q 66 1 222 168 m 316 1 l 316 71 q 516 298 411 212 q 316 525 414 377 l 316 596 q 622 325 485 401 l 622 272 q 316 1 477 171 "},"â±£":{"x_min":24,"x_max":691,"ha":724,"o":"m 414 683 l 414 629 l 260 629 l 260 446 q 358 440 285 440 q 515 490 462 440 q 569 650 569 540 q 557 740 569 702 q 528 801 546 778 q 483 838 509 824 q 431 857 457 852 q 374 862 405 862 q 282 847 304 862 q 260 798 260 832 l 260 683 l 414 683 m 147 683 l 147 800 q 128 844 147 830 q 86 858 109 858 l 32 858 q 24 866 24 858 l 24 897 l 26 898 q 202 898 138 898 q 295 903 223 898 q 383 909 366 909 q 495 897 444 909 q 577 866 545 885 q 633 823 610 846 q 668 772 657 799 q 685 721 680 744 q 691 675 691 698 q 681 600 691 637 q 648 525 672 563 q 589 458 625 487 q 496 411 553 429 q 365 393 438 393 q 260 406 303 393 l 260 95 q 276 52 260 64 q 335 40 293 40 l 372 40 q 383 28 383 40 l 383 0 l 380 -1 q 205 -1 260 -1 l 26 -1 l 24 0 l 24 28 q 34 40 24 40 l 70 40 q 129 53 112 40 q 147 95 147 66 l 147 629 l 28 629 l 28 683 l 147 683 "},"Ä¼":{"x_min":45,"x_max":554.125,"ha":583,"o":"m 280 -57 q 342 -87 318 -57 q 366 -157 366 -118 q 362 -186 366 -170 q 349 -223 359 -202 q 324 -262 339 -244 q 280 -291 308 -279 q 217 -304 252 -304 l 211 -281 q 263 -262 241 -275 q 295 -236 285 -249 q 312 -207 306 -222 q 319 -184 318 -191 q 321 -171 321 -176 q 318 -157 321 -166 q 278 -170 295 -170 q 224 -152 240 -170 q 209 -112 209 -134 q 227 -74 209 -92 q 280 -57 245 -57 m 384 47 q 437 56 415 47 q 475 84 460 65 q 500 123 491 103 q 519 173 510 143 l 554 169 q 527 -2 527 63 l 185 -2 q 169 -2 180 -2 q 126 -2 158 -2 q 46 -2 94 -2 l 45 0 l 45 28 q 53 36 45 36 l 85 39 q 130 51 118 42 q 142 85 142 60 l 142 555 q 128 587 142 577 q 82 600 114 596 l 54 603 q 45 611 45 603 l 45 638 l 46 640 q 199 640 155 640 l 343 640 l 345 638 l 345 611 q 336 603 345 603 l 307 600 q 261 587 274 597 q 249 555 249 576 l 249 81 q 258 54 249 62 q 287 47 267 47 l 384 47 "},"Ä”":{"x_min":17,"x_max":721.4375,"ha":761,"o":"m 617 897 q 630 811 619 888 q 647 696 642 735 l 607 689 q 588 742 596 722 q 568 783 581 762 q 540 815 555 805 q 501 833 524 826 q 448 841 478 841 l 302 841 q 264 831 276 841 q 253 796 253 821 l 253 502 l 428 502 q 479 515 464 502 q 497 560 494 529 l 502 595 q 504 602 502 599 q 511 606 507 606 l 539 606 q 545 600 545 606 q 545 481 545 526 l 545 354 l 543 350 l 510 350 q 501 353 504 350 q 498 359 498 356 l 498 396 q 482 438 498 426 q 430 450 466 450 l 253 450 l 253 100 q 265 64 253 74 q 302 55 277 55 l 491 55 q 678 236 628 55 l 721 229 l 669 -1 q 492 -1 558 -1 l 197 -1 l 19 -1 l 17 0 l 17 29 q 27 39 17 39 l 69 39 q 124 56 108 42 q 140 99 140 70 l 140 798 q 124 841 140 829 q 69 857 109 854 l 27 857 q 17 867 17 857 l 17 896 l 19 897 q 197 897 159 897 l 546 897 q 611 902 579 897 q 617 897 617 902 m 575 1117 q 514 1002 569 1045 q 386 959 459 959 q 255 1001 309 959 q 202 1117 202 1044 l 238 1117 q 289 1054 246 1077 q 388 1032 331 1032 q 486 1055 442 1032 q 538 1117 530 1078 l 575 1117 "},"â€‚":{"x_min":0,"x_max":0,"ha":719},"Ã²":{"x_min":52,"x_max":721.28125,"ha":771,"o":"m 375 610 q 298 591 335 610 q 232 538 262 572 q 184 448 202 504 q 167 325 167 392 q 232 113 167 196 q 397 30 296 30 q 548 105 491 30 q 606 307 606 180 q 538 526 606 442 q 375 610 471 610 m 721 326 q 698 196 721 257 q 634 87 676 135 q 526 11 593 39 q 376 -17 459 -17 q 144 74 236 -17 q 52 308 52 166 q 147 560 52 461 q 387 659 242 659 q 553 617 477 659 q 675 499 629 576 q 721 326 721 422 m 368 928 l 465 752 q 474 719 474 736 q 467 709 474 714 q 453 704 461 704 q 412 731 443 704 l 254 884 l 257 899 q 347 931 300 931 q 368 928 357 931 "},"Å£":{"x_min":33.265625,"x_max":645.484375,"ha":679,"o":"m 324 -113 q 262 -121 289 -113 l 254 -113 l 304 -1 l 198 -1 l 197 0 l 197 29 q 205 38 197 38 l 233 40 q 279 54 265 44 q 293 85 293 65 l 293 549 q 281 582 293 572 q 240 592 269 592 l 177 592 q 112 566 132 592 q 70 464 92 541 l 33 468 q 44 659 44 533 l 79 659 q 91 645 81 651 q 116 639 101 639 l 562 639 q 587 645 577 639 q 600 659 598 651 l 634 659 q 645 468 634 544 l 608 464 q 566 566 586 541 q 502 592 546 592 l 451 592 q 411 582 422 592 q 400 547 400 572 l 400 85 q 413 53 400 63 q 459 40 426 44 l 487 38 q 493 35 490 38 q 497 29 497 32 l 497 0 l 494 -1 q 352 -1 398 -1 l 322 -72 q 358 -68 339 -68 q 428 -91 400 -68 q 457 -154 457 -115 q 414 -225 457 -198 q 308 -253 372 -253 q 205 -228 260 -253 l 219 -198 q 288 -216 268 -216 q 299 -218 293 -218 q 358 -202 333 -218 q 383 -161 383 -187 q 366 -126 383 -139 q 324 -113 349 -113 "},"^":{"x_min":155.296875,"x_max":565.59375,"ha":719,"o":"m 359 823 l 218 481 l 155 481 l 331 903 l 389 903 l 565 481 l 502 481 l 359 823 "},"Â«":{"x_min":94,"x_max":649,"ha":743,"o":"m 649 596 l 649 525 q 451 298 556 385 q 649 71 550 223 l 649 1 q 347 272 484 194 l 347 325 q 649 596 497 433 m 400 596 l 400 525 q 199 298 304 385 q 400 71 301 220 l 400 1 q 94 272 231 196 l 94 325 q 400 596 239 427 "},"Ã­":{"x_min":45,"x_max":345,"ha":388,"o":"m 249 556 l 249 93 q 261 57 249 69 q 307 40 274 44 l 336 38 q 345 29 345 38 l 345 0 l 343 -1 q 194 -1 237 -1 l 47 -1 l 45 0 l 45 29 q 54 38 45 38 l 82 40 q 142 93 142 46 l 142 556 q 128 588 142 578 q 82 601 114 597 l 54 604 q 45 609 45 604 l 45 639 l 46 641 q 199 641 155 641 l 343 641 l 345 639 l 345 610 q 336 604 345 604 l 307 601 q 262 588 275 598 q 249 556 249 577 m 240 922 q 259 925 248 925 q 327 899 299 925 q 336 893 332 895 l 340 877 l 180 725 q 140 698 153 698 q 127 703 133 698 q 121 715 121 708 q 129 746 121 732 l 240 922 "},"Å«":{"x_min":37,"x_max":739,"ha":776,"o":"m 561 707 l 222 707 q 208 713 213 707 q 204 728 204 719 q 213 755 204 741 q 234 769 223 769 l 575 769 q 589 762 584 769 q 595 749 595 756 q 584 721 595 735 q 561 707 573 707 m 381 -14 q 319 -6 351 -14 q 252 21 286 1 q 191 70 218 41 q 147 146 164 100 q 131 251 131 193 l 131 555 q 118 587 131 577 q 70 600 105 596 l 45 603 q 37 609 37 603 l 37 638 l 38 640 q 187 640 144 640 l 330 640 l 333 638 l 333 609 q 324 603 333 603 l 296 600 q 250 587 264 597 q 237 555 237 576 l 237 280 q 240 203 237 237 q 253 135 243 170 q 281 77 264 99 q 331 40 299 55 q 405 26 362 26 q 575 138 540 26 q 590 292 590 186 l 590 555 q 576 587 590 578 q 530 600 562 597 l 502 603 q 493 610 493 603 l 493 638 l 495 640 q 620 640 579 640 l 736 640 l 739 638 l 739 610 q 730 603 739 603 l 706 600 q 664 586 675 596 q 653 555 653 577 l 653 311 q 646 202 653 249 q 621 113 639 155 q 574 44 604 71 q 495 1 543 17 q 381 -14 447 -14 "},"Å†":{"x_min":45,"x_max":764,"ha":793,"o":"m 425 -45 q 487 -75 463 -45 q 511 -145 511 -105 q 507 -173 511 -157 q 494 -211 504 -189 q 469 -249 484 -232 q 425 -278 453 -266 q 362 -291 398 -291 l 356 -268 q 408 -249 386 -262 q 441 -223 430 -236 q 458 -195 452 -210 q 465 -171 464 -179 q 467 -158 467 -163 q 464 -144 467 -152 q 424 -157 441 -157 q 370 -139 386 -157 q 354 -99 354 -121 q 372 -62 354 -80 q 425 -45 391 -45 m 667 539 l 667 20 q 639 -17 667 -17 q 613 -10 624 -17 q 584 13 601 -3 l 258 449 q 221 482 230 482 q 207 433 207 482 l 207 98 q 222 58 207 74 q 269 39 238 43 l 296 37 q 307 28 307 37 l 307 0 l 305 -2 q 177 -2 221 -2 l 49 -2 l 45 0 l 45 28 q 59 37 45 37 l 86 39 q 146 98 146 45 l 146 551 q 115 588 133 574 q 61 602 97 602 q 49 610 49 602 l 49 638 l 52 641 l 238 641 l 556 207 q 596 174 586 174 q 606 209 606 174 l 606 539 q 589 579 606 561 q 544 600 573 597 l 515 603 q 502 609 502 603 l 502 639 l 504 640 q 636 640 599 640 l 759 640 l 764 640 l 764 609 q 754 603 764 603 l 726 600 q 667 539 667 595 "},"Âµ":{"x_min":60.921875,"x_max":670.640625,"ha":673,"o":"m 140 -325 q 91 -298 118 -325 q 65 -234 65 -272 q 76 -129 65 -201 q 87 -11 87 -57 q 81 74 87 7 q 75 186 75 141 l 75 447 q 71 503 75 465 q 64 572 67 542 l 60 602 l 177 614 q 177 476 177 521 l 177 204 q 273 46 177 46 q 375 73 327 46 q 450 137 424 100 l 450 602 l 554 614 l 554 172 q 561 68 554 87 q 589 49 568 49 q 637 110 613 49 l 670 94 q 621 9 648 36 q 544 -17 594 -17 q 477 12 505 -17 q 450 83 450 41 q 357 8 405 34 q 248 -17 309 -17 q 203 -6 226 -17 q 169 18 181 3 q 157 13 163 18 q 152 5 152 9 q 174 -129 152 -43 q 197 -241 197 -215 q 181 -303 197 -282 q 140 -325 165 -325 "},"Ä�":{"x_min":52,"x_max":624.34375,"ha":683,"o":"m 340 713 q 200 893 286 800 l 228 911 q 375 786 324 839 q 525 911 429 841 l 551 893 q 410 713 460 791 l 340 713 m 383 -17 q 242 11 306 -17 q 137 87 178 40 q 74 192 96 134 q 52 311 52 250 q 145 560 52 462 q 376 659 238 659 q 512 646 439 659 q 604 634 584 634 q 619 455 604 558 l 583 451 q 521 573 570 528 q 385 618 471 618 q 322 610 351 618 q 263 581 292 602 q 212 529 233 561 q 178 444 191 497 q 166 324 166 392 q 173 241 166 281 q 196 161 180 200 q 238 94 213 122 q 302 48 263 65 q 390 30 342 30 q 502 53 458 30 q 596 133 547 75 l 624 111 q 518 13 573 44 q 383 -17 462 -17 "},"â€™":{"x_min":95.765625,"x_max":272,"ha":372,"o":"m 180 966 q 246 928 221 966 q 272 828 272 891 q 222 710 272 759 q 105 649 172 661 q 97 684 91 661 q 183 732 148 696 q 218 793 218 768 q 204 825 218 816 q 167 837 190 834 q 106 898 106 847 q 127 946 106 927 q 180 966 148 966 "},"-":{"x_min":46,"x_max":418,"ha":462,"o":"m 380 301 l 66 301 q 51 308 57 301 q 46 324 46 315 q 57 358 46 341 q 80 376 68 376 l 399 376 q 418 351 418 376 q 405 319 418 338 q 380 301 393 301 "},"Q":{"x_min":52,"x_max":946.453125,"ha":970,"o":"m 464 868 q 383 853 422 868 q 305 806 343 838 q 240 726 268 773 q 194 609 211 680 q 178 455 178 539 q 206 277 178 358 q 282 143 234 196 q 389 62 329 91 q 511 34 448 34 q 712 141 633 34 q 792 431 792 249 q 703 755 792 643 q 464 868 615 868 m 193 -212 q 293 -104 229 -160 q 429 -10 357 -48 q 280 33 348 0 q 160 124 211 68 q 80 259 109 180 q 52 431 52 338 q 107 676 52 565 q 261 851 162 787 q 482 915 360 915 q 656 882 575 915 q 795 789 736 849 q 886 645 853 730 q 920 458 920 559 q 826 147 920 272 q 572 -4 732 23 q 386 -99 479 -31 q 414 -97 406 -97 q 521 -114 465 -97 q 619 -153 578 -132 q 711 -192 661 -174 q 802 -211 761 -211 q 868 -198 835 -211 q 922 -159 901 -185 l 946 -176 q 857 -262 905 -235 q 746 -290 810 -290 q 649 -276 696 -290 q 565 -243 601 -262 q 493 -204 528 -223 q 421 -171 459 -184 q 348 -157 384 -157 q 296 -177 327 -157 q 247 -240 266 -197 l 193 -212 "},"M":{"x_min":21,"x_max":1139,"ha":1165,"o":"m 904 121 l 904 743 l 881 743 l 569 7 q 549 -8 561 -8 q 528 7 535 -8 l 241 729 l 238 729 l 180 119 q 188 62 176 86 q 227 39 199 39 l 263 39 q 278 27 278 39 l 278 1 l 275 -1 q 147 -1 202 -1 l 22 -1 l 21 0 l 21 28 q 33 40 21 40 l 71 40 q 123 119 123 40 l 193 798 q 185 843 196 829 q 140 857 174 857 l 99 857 q 86 867 86 857 l 86 893 l 90 898 l 294 898 l 579 191 q 589 173 585 173 q 602 192 595 173 l 897 898 l 1082 898 l 1086 893 l 1086 867 q 1070 858 1086 858 l 1033 858 q 1011 840 1017 855 q 1005 798 1005 825 l 1005 121 q 1029 61 1005 82 q 1086 40 1054 40 l 1123 40 q 1139 28 1139 37 l 1139 0 l 1136 -1 q 980 -1 1034 -1 l 832 -1 l 828 0 l 828 28 q 831 36 828 33 q 840 40 835 40 l 868 40 q 898 64 889 40 q 904 121 906 88 "},"Å“":{"x_min":40,"x_max":905.453125,"ha":943,"o":"m 392 36 q 439 46 426 36 q 452 82 452 57 l 452 561 q 445 585 452 576 q 425 599 439 595 q 396 604 411 604 q 355 604 382 604 q 280 589 315 604 q 215 543 245 574 q 169 455 186 511 q 153 324 153 399 q 217 110 153 184 q 392 36 282 36 m 854 641 l 873 485 l 838 481 q 731 592 817 592 l 596 592 q 553 560 553 592 l 553 351 l 664 351 q 701 361 690 351 q 718 395 713 372 l 725 424 q 733 433 727 433 l 756 433 q 761 428 761 433 q 753 324 753 333 q 761 228 753 295 l 758 226 l 733 226 q 723 232 727 226 l 718 263 q 702 296 714 285 q 664 307 690 307 l 553 307 l 553 80 q 596 47 553 47 l 751 47 q 830 77 802 47 q 870 164 857 106 l 905 160 l 877 -1 l 597 -1 l 507 -1 q 428 -1 477 -1 q 371 -1 380 -1 q 202 35 276 -1 q 83 143 127 71 q 40 309 40 214 q 131 548 40 455 q 369 641 223 641 q 393 641 370 641 q 447 641 416 641 q 502 641 479 641 l 854 641 "},"Ä›":{"x_min":45,"x_max":579.125,"ha":630,"o":"m 309 708 q 168 889 257 792 l 196 906 q 343 781 292 835 q 493 906 398 837 l 519 889 q 378 708 425 784 l 309 708 m 544 641 q 562 472 544 569 l 528 468 q 514 509 521 492 q 492 548 506 527 q 454 580 477 568 q 399 592 430 592 l 288 592 q 257 585 266 592 q 248 562 248 579 l 248 357 l 351 357 q 390 367 379 357 q 406 401 401 378 l 414 431 q 422 438 414 438 l 445 438 q 449 433 449 438 q 440 330 440 354 q 449 234 440 317 l 445 232 l 423 232 q 413 238 413 232 l 406 269 q 389 302 402 291 q 351 313 377 313 l 248 313 l 248 81 q 257 55 248 62 q 288 48 267 48 l 407 48 q 495 80 465 48 q 545 173 525 112 l 579 169 q 552 -1 552 70 l 183 -1 l 46 -1 l 45 0 l 45 31 q 53 37 45 37 l 85 40 q 129 53 117 43 q 141 84 141 62 l 141 558 q 128 590 141 581 q 85 599 115 599 l 53 603 q 45 609 45 604 l 45 639 l 46 641 l 184 641 l 285 641 l 544 641 "},"Å©":{"x_min":37,"x_max":739,"ha":776,"o":"m 490 770 q 530 784 514 770 q 559 841 545 799 l 592 833 q 471 708 568 708 q 382 744 437 708 q 308 775 331 775 q 266 759 281 775 q 239 708 250 744 l 206 715 q 247 808 221 778 q 317 839 273 839 q 417 800 361 839 q 490 770 457 770 m 381 -14 q 319 -6 351 -14 q 252 21 286 1 q 191 70 218 41 q 147 146 164 100 q 131 251 131 193 l 131 555 q 118 587 131 577 q 70 600 105 596 l 45 603 q 37 609 37 603 l 37 638 l 38 640 q 187 640 144 640 l 330 640 l 333 638 l 333 609 q 324 603 333 603 l 296 600 q 250 587 264 597 q 237 555 237 576 l 237 280 q 240 203 237 237 q 253 135 243 170 q 281 77 264 99 q 331 40 299 55 q 405 26 362 26 q 575 138 540 26 q 590 292 590 186 l 590 555 q 576 587 590 578 q 530 600 562 597 l 502 603 q 493 610 493 603 l 493 638 l 495 640 q 620 640 579 640 l 736 640 l 739 638 l 739 610 q 730 603 739 603 l 706 600 q 664 586 675 596 q 653 555 653 577 l 653 311 q 646 202 653 249 q 621 113 639 155 q 574 44 604 71 q 495 1 543 17 q 381 -14 447 -14 "},"Å­":{"x_min":37,"x_max":739,"ha":776,"o":"m 249 914 q 292 822 249 859 q 399 786 336 786 q 500 820 453 786 q 548 914 548 854 l 587 894 q 562 806 582 844 q 514 747 542 768 q 456 717 486 727 q 399 707 427 707 q 270 759 321 707 q 212 894 219 811 l 249 914 m 381 -14 q 319 -6 351 -14 q 252 21 286 1 q 191 70 218 41 q 147 146 164 100 q 131 251 131 193 l 131 555 q 118 587 131 577 q 70 600 105 596 l 45 603 q 37 609 37 603 l 37 638 l 38 640 q 187 640 144 640 l 330 640 l 333 638 l 333 609 q 324 603 333 603 l 296 600 q 250 587 263 597 q 237 555 237 576 l 237 280 q 240 203 237 237 q 253 135 243 170 q 281 77 264 99 q 331 40 299 55 q 405 26 362 26 q 575 138 540 26 q 590 292 590 186 l 590 555 q 576 587 590 578 q 530 600 562 597 l 502 603 q 493 610 493 603 l 493 638 l 495 640 q 620 640 578 640 l 736 640 l 739 638 l 739 610 q 730 603 739 603 l 706 600 q 664 586 675 596 q 653 555 653 577 l 653 311 q 646 202 653 249 q 621 113 639 155 q 574 44 604 71 q 495 1 543 17 q 381 -14 447 -14 "},"â€•":{"x_min":40,"x_max":1242,"ha":1281,"o":"m 40 400 l 1242 400 l 1242 331 l 40 331 l 40 400 "},"{":{"x_min":54,"x_max":339,"ha":379,"o":"m 249 777 l 249 544 q 228 421 249 459 q 153 363 207 384 q 230 297 211 340 q 249 167 249 254 l 249 -45 q 272 -165 249 -126 q 283 -181 277 -173 q 294 -193 288 -188 q 304 -202 300 -199 q 315 -209 309 -206 q 323 -212 321 -211 q 332 -215 326 -213 q 339 -218 338 -218 l 339 -235 q 184 -189 218 -235 q 147 -25 147 -141 l 147 200 q 142 257 147 232 q 128 303 138 282 q 99 339 118 325 q 54 358 81 353 l 54 366 q 147 521 147 390 l 147 767 q 185 916 147 873 q 339 962 224 962 l 339 945 q 270 892 298 934 q 249 777 249 854 "},"Â¼":{"x_min":80.5,"x_max":869,"ha":916,"o":"m 738 835 l 797 824 l 159 -86 l 102 -75 l 738 835 m 171 795 q 133 787 159 795 q 92 773 108 780 l 80 810 q 241 888 168 843 l 264 888 l 264 525 q 274 488 264 503 q 298 474 285 474 l 337 474 q 346 467 346 474 l 346 439 q 226 439 273 439 l 90 439 l 90 467 q 93 471 90 469 q 101 474 97 474 l 149 474 q 180 488 167 474 q 193 525 193 503 l 193 736 q 189 783 193 771 q 171 795 185 795 m 799 245 l 799 81 l 869 81 l 869 40 l 799 40 l 799 -47 q 804 -74 799 -67 q 829 -82 810 -82 l 850 -82 q 858 -87 858 -82 l 858 -112 l 760 -112 l 666 -112 l 666 -87 q 672 -82 666 -82 l 698 -82 q 723 -75 717 -82 q 730 -47 730 -69 l 730 40 l 527 40 l 521 50 q 594 186 569 106 q 616 336 616 273 l 665 336 q 647 184 665 278 q 630 127 642 157 q 607 81 618 96 l 730 81 l 730 211 l 799 245 "},"#":{"x_min":33.234375,"x_max":575.09375,"ha":608,"o":"m 369 322 l 393 474 l 240 474 l 214 322 l 369 322 m 438 474 l 413 322 l 539 322 l 528 255 l 405 255 l 366 18 l 320 18 l 356 255 l 205 255 l 166 18 l 120 18 l 158 255 l 33 255 l 42 322 l 169 322 l 193 474 l 67 474 l 79 543 l 204 543 l 241 779 l 288 779 l 250 543 l 404 543 l 440 779 l 486 779 l 448 543 l 575 543 l 563 474 l 438 474 "},"â± ":{"x_min":24,"x_max":701.5,"ha":731,"o":"m 467 597 l 467 543 l 260 543 l 260 454 l 467 454 l 467 400 l 260 400 l 260 123 q 277 72 260 91 q 325 54 295 54 l 485 54 q 552 68 523 54 q 602 108 582 82 q 635 165 622 135 q 660 236 648 195 l 701 229 q 668 -1 668 83 q 500 -1 538 -1 l 204 -1 l 26 -1 l 24 0 l 24 28 q 34 40 24 40 l 76 40 q 133 50 119 40 q 147 97 147 61 l 147 400 l 28 400 l 28 454 l 147 454 l 147 543 l 28 543 l 28 597 l 147 597 l 147 800 q 130 843 147 830 q 71 856 113 856 l 34 856 q 24 867 24 856 l 24 896 l 26 897 q 201 897 147 897 l 380 897 l 383 896 l 383 867 q 372 856 383 856 l 336 856 q 276 842 293 856 q 260 800 260 829 l 260 597 l 467 597 "},"â±©":{"x_min":24,"x_max":875,"ha":908,"o":"m 260 100 q 277 53 260 67 q 336 39 295 39 l 372 39 q 383 28 383 39 l 383 1 l 380 0 q 205 0 261 0 l 27 0 l 25 1 l 25 28 q 34 39 25 39 l 71 39 q 129 54 112 39 q 147 100 147 69 l 147 797 q 129 844 147 829 q 71 859 111 859 l 34 859 q 24 869 24 859 l 24 896 l 26 897 q 201 897 147 897 l 380 897 l 383 896 l 383 869 q 372 859 383 859 l 336 859 q 277 843 295 859 q 260 797 260 828 l 260 482 q 344 536 299 492 l 604 781 q 642 836 642 816 q 628 851 642 843 q 599 859 615 859 l 570 859 q 559 870 559 859 l 559 896 l 561 897 q 722 897 667 897 l 856 897 l 863 896 l 863 870 q 847 859 863 859 q 759 835 797 852 q 673 775 720 819 l 451 566 q 397 497 397 513 q 416 462 397 481 l 749 102 q 797 53 779 68 q 831 39 814 39 q 875 11 875 39 l 875 -196 l 843 -196 q 824 -131 837 -163 q 791 -69 812 -100 q 738 -18 770 -37 q 665 0 705 0 l 632 0 l 631 9 q 603 102 631 70 l 349 376 q 260 429 307 422 l 260 100 "},"Ä²":{"x_min":24,"x_max":800,"ha":816,"o":"m 260 800 l 260 95 q 276 52 260 64 q 336 40 293 40 l 372 40 q 383 28 383 40 l 383 0 l 380 -1 q 204 -1 313 -1 q 27 -1 95 -1 l 25 0 l 25 28 q 34 40 25 40 l 71 40 q 131 52 115 40 q 147 95 147 65 l 147 800 q 130 843 147 831 q 71 856 113 856 l 34 856 q 24 867 24 856 l 24 896 l 26 897 q 202 897 95 897 q 380 897 312 897 l 383 896 l 383 867 q 372 856 383 856 l 336 856 q 277 842 294 856 q 260 800 260 829 m 461 -185 q 491 -179 476 -185 q 522 -154 505 -173 q 550 -105 538 -136 q 570 -21 562 -75 q 578 104 578 32 l 578 779 q 557 841 578 827 q 479 856 537 856 l 451 856 q 439 867 439 856 l 439 894 l 441 897 q 632 897 577 897 l 797 897 l 800 894 l 800 868 q 788 856 800 856 l 765 856 q 707 842 723 856 q 691 798 691 828 l 691 135 q 680 18 691 70 q 647 -72 669 -34 q 602 -139 626 -111 q 544 -193 578 -167 q 385 -248 479 -248 q 327 -227 357 -248 q 297 -172 297 -206 q 315 -137 297 -151 q 349 -122 333 -122 q 385 -129 370 -122 q 406 -141 400 -135 q 422 -160 413 -148 q 461 -185 439 -185 "},"ÃŠ":{"x_min":17,"x_max":721.4375,"ha":761,"o":"m 617 897 q 630 811 619 888 q 647 696 642 735 l 607 689 q 588 742 596 722 q 568 783 581 762 q 540 815 555 805 q 501 833 524 826 q 448 841 478 841 l 302 841 q 264 831 276 841 q 253 796 253 821 l 253 502 l 428 502 q 479 515 464 502 q 497 560 494 529 l 502 595 q 504 602 502 599 q 511 606 507 606 l 539 606 q 545 600 545 606 q 545 481 545 526 l 545 354 l 543 350 l 510 350 q 501 353 504 350 q 498 359 498 356 l 498 396 q 482 438 498 426 q 430 450 466 450 l 253 450 l 253 100 q 265 64 253 74 q 302 55 277 55 l 491 55 q 678 236 628 55 l 721 229 l 669 -1 q 492 -1 558 -1 l 197 -1 l 19 -1 l 17 0 l 17 29 q 27 39 17 39 l 69 39 q 124 56 108 42 q 140 99 140 70 l 140 798 q 124 841 140 829 q 69 857 109 854 l 27 857 q 17 867 17 857 l 17 896 l 19 897 q 197 897 159 897 l 546 897 q 611 902 579 897 q 617 897 617 902 m 439 1118 q 579 988 498 1048 l 557 959 q 410 1045 473 998 q 262 959 340 993 l 242 988 q 380 1118 303 1034 l 439 1118 "},")":{"x_min":30.09375,"x_max":348,"ha":409,"o":"m 348 350 q 266 -3 348 163 q 55 -282 185 -170 l 30 -257 q 56 -226 44 -241 q 91 -178 68 -211 q 132 -111 114 -145 q 171 -25 150 -77 q 207 79 192 25 q 231 204 221 133 q 241 350 241 275 q 223 549 241 453 q 181 707 205 644 q 124 828 157 770 q 71 911 91 886 q 30 960 51 937 l 55 984 q 162 872 114 932 q 240 760 210 813 q 292 648 270 707 q 325 547 314 590 q 341 459 335 504 q 348 392 348 413 q 348 350 348 371 "},"Ã…":{"x_min":3,"x_max":958,"ha":965,"o":"m 365 394 l 607 394 l 471 765 l 469 765 l 330 411 q 336 398 326 402 q 365 394 346 394 m 210 109 q 214 62 200 82 q 266 39 229 42 l 307 39 q 318 27 318 39 l 318 0 l 315 -1 q 131 -1 164 -1 l 5 -1 l 3 0 l 3 27 q 13 39 3 39 q 93 59 64 39 q 148 142 121 79 l 457 865 l 465 881 q 397 921 424 890 q 370 995 370 953 q 404 1077 370 1043 q 487 1111 439 1111 q 571 1077 536 1111 q 607 995 607 1044 q 587 932 607 960 q 534 890 567 903 q 539 881 536 886 q 542 873 541 875 l 826 119 q 863 61 840 79 q 928 39 886 43 l 944 37 q 958 26 958 37 l 958 0 l 953 -1 q 792 -1 846 -1 l 608 -1 l 607 0 l 607 27 q 616 39 607 39 l 655 39 q 710 56 695 42 q 714 99 724 70 l 629 336 l 340 336 q 306 330 316 336 q 291 312 297 325 l 210 109 m 489 1074 q 435 1050 457 1074 q 414 995 414 1027 q 435 941 414 965 q 489 917 457 917 q 542 941 520 917 q 564 995 564 965 q 541 1051 564 1028 q 489 1074 519 1074 "},"Â¸":{"x_min":287.328125,"x_max":539,"ha":751,"o":"m 406 -112 q 344 -120 371 -112 l 336 -112 l 389 9 l 437 9 l 403 -71 q 439 -67 420 -67 q 510 -90 482 -67 q 539 -153 539 -114 q 496 -224 539 -197 q 389 -252 454 -252 q 287 -228 342 -252 l 300 -198 q 381 -217 353 -217 q 440 -202 415 -217 q 465 -160 465 -187 q 448 -125 465 -139 q 406 -112 431 -112 "},"a":{"x_min":3,"x_max":745,"ha":747,"o":"m 223 228 l 163 82 q 157 63 157 66 q 170 44 157 50 q 213 39 184 39 l 231 39 q 237 36 234 39 q 240 30 240 34 l 240 0 l 237 -1 q 95 -1 122 -1 l 5 -1 l 3 0 l 3 29 q 5 35 3 33 q 11 38 8 38 q 45 44 32 40 q 73 61 58 48 q 100 97 89 74 l 345 623 q 365 649 351 639 q 389 659 378 659 q 444 624 430 659 l 647 106 q 681 53 664 66 q 733 38 698 41 q 745 29 745 36 l 745 0 l 740 -1 q 625 -1 666 -1 l 469 -1 l 467 0 l 467 29 q 476 38 467 38 l 501 40 q 543 49 530 44 q 557 66 557 54 q 554 82 557 71 l 492 243 l 254 243 q 223 228 227 243 m 475 284 l 366 558 l 364 558 l 259 303 q 260 294 259 297 q 267 287 261 291 q 286 284 273 284 l 475 284 "},"Ä˜":{"x_min":17,"x_max":721.4375,"ha":761,"o":"m 560 -312 q 468 -280 504 -312 q 432 -193 432 -248 q 470 -90 432 -144 q 568 -2 508 -36 q 492 -2 542 -2 l 197 -2 l 19 -2 l 17 0 l 17 28 q 27 38 17 38 l 69 38 q 124 55 108 41 q 140 98 140 69 l 140 798 q 124 841 140 829 q 69 857 109 854 l 27 857 q 17 867 17 857 l 17 896 l 19 897 q 197 897 159 897 l 546 897 q 611 901 579 897 q 617 897 617 901 q 630 811 619 888 q 647 696 642 735 l 607 689 q 588 742 596 722 q 568 783 581 762 q 540 815 555 805 q 501 833 524 826 q 448 841 478 841 l 302 841 q 264 831 276 841 q 253 796 253 821 l 253 501 l 428 501 q 479 514 464 501 q 497 559 494 528 l 502 595 q 504 602 502 599 q 511 606 507 606 l 539 606 q 545 600 545 606 q 545 480 545 526 l 545 354 l 543 350 l 510 350 q 501 353 504 350 q 498 359 498 356 l 498 396 q 482 437 498 425 q 430 449 466 449 l 253 449 l 253 99 q 265 63 253 73 q 302 54 277 54 l 491 54 q 678 235 628 54 l 721 229 l 676 28 l 701 0 q 604 -29 649 0 q 537 -99 560 -59 q 515 -175 515 -138 q 536 -234 515 -210 q 595 -258 558 -258 q 646 -245 623 -258 q 692 -207 668 -232 l 713 -219 q 646 -288 690 -264 q 560 -312 602 -312 "},"=":{"x_min":92,"x_max":641,"ha":733,"o":"m 641 442 l 641 374 l 92 374 l 92 442 l 641 442 m 641 268 l 641 200 l 92 200 l 92 268 l 641 268 "},"Ãº":{"x_min":37,"x_max":739,"ha":776,"o":"m 381 -14 q 319 -6 351 -14 q 252 21 286 1 q 191 70 218 41 q 147 146 164 100 q 131 251 131 193 l 131 555 q 118 587 131 577 q 70 600 105 596 l 45 603 q 37 609 37 603 l 37 638 l 38 640 q 187 640 144 640 l 330 640 l 333 638 l 333 609 q 324 603 333 603 l 296 600 q 250 587 264 597 q 237 555 237 576 l 237 280 q 240 203 237 237 q 253 135 243 170 q 281 77 264 99 q 331 40 299 55 q 405 26 362 26 q 575 138 540 26 q 590 292 590 186 l 590 555 q 576 587 590 578 q 530 600 562 597 l 502 603 q 493 610 493 603 l 493 638 l 495 640 q 620 640 579 640 l 736 640 l 739 638 l 739 610 q 730 603 739 603 l 706 600 q 664 586 675 596 q 653 555 653 577 l 653 311 q 646 202 653 249 q 621 113 639 155 q 574 44 604 71 q 495 1 543 17 q 381 -14 447 -14 m 475 920 q 495 923 485 923 q 563 898 535 923 q 572 891 571 892 l 576 876 l 415 724 q 375 697 388 697 q 362 702 368 697 q 356 713 356 707 q 364 745 356 731 l 475 920 "},"Â¯":{"x_min":82,"x_max":471,"ha":552,"o":"m 437 736 l 98 736 q 82 755 82 736 q 91 782 82 769 q 112 796 100 796 l 451 796 q 471 776 471 796 q 460 749 471 762 q 437 736 450 736 "},"Z":{"x_min":57,"x_max":803.171875,"ha":838,"o":"m 765 -1 q 588 -1 626 -1 l 83 -1 q 57 20 57 -1 q 67 53 57 37 l 608 805 q 619 830 619 819 q 605 841 619 841 l 284 841 q 230 832 254 841 q 192 811 207 823 q 164 774 177 798 q 143 730 151 750 q 125 675 136 710 l 84 682 q 111 915 111 799 q 163 905 135 913 q 227 897 191 897 l 673 897 q 725 904 696 899 q 761 910 753 910 q 786 907 780 910 q 793 897 793 904 q 759 821 793 868 l 238 100 q 228 72 228 80 q 262 55 228 55 l 586 55 q 653 68 624 55 q 702 108 682 82 q 735 165 722 135 q 759 236 748 195 l 803 229 q 765 -1 776 115 "},"â€†":{"x_min":0,"x_max":0,"ha":230},"u":{"x_min":37,"x_max":739,"ha":776,"o":"m 381 -14 q 319 -6 351 -14 q 252 21 286 1 q 191 70 218 41 q 147 146 164 100 q 131 251 131 193 l 131 555 q 118 587 131 577 q 70 600 105 596 l 45 603 q 37 609 37 603 l 37 638 l 38 640 q 187 640 144 640 l 330 640 l 333 638 l 333 609 q 324 603 333 603 l 296 600 q 250 587 264 597 q 237 555 237 576 l 237 280 q 240 203 237 237 q 253 135 243 170 q 281 77 264 99 q 331 40 299 55 q 405 26 362 26 q 575 138 540 26 q 590 292 590 186 l 590 555 q 576 587 590 578 q 530 600 562 597 l 502 603 q 493 610 493 603 l 493 638 l 495 640 q 620 640 579 640 l 736 640 l 739 638 l 739 610 q 730 603 739 603 l 706 600 q 664 586 675 596 q 653 555 653 577 l 653 311 q 646 202 653 249 q 621 113 639 155 q 574 44 604 71 q 495 1 543 17 q 381 -14 447 -14 "},"k":{"x_min":45,"x_max":700,"ha":726,"o":"m 249 299 l 249 93 q 263 58 249 71 q 307 40 277 46 l 322 38 q 331 29 331 35 l 331 0 l 329 -1 q 200 -1 241 -1 l 47 -1 l 45 0 l 45 29 q 54 38 45 38 l 82 40 q 127 58 112 44 q 142 93 142 72 l 142 556 q 128 588 142 578 q 82 601 115 597 l 54 604 q 45 609 45 604 l 45 639 l 46 641 q 203 641 160 641 l 329 641 l 331 639 l 331 610 q 322 604 331 606 l 307 600 q 261 585 273 593 q 249 555 249 576 l 249 346 q 306 364 281 346 q 381 435 332 382 q 481 574 481 543 q 470 591 481 583 q 440 604 459 600 q 432 610 432 606 l 432 641 l 433 641 q 586 641 545 641 l 683 641 l 688 641 l 688 609 q 676 602 688 602 q 625 598 643 602 q 582 580 607 594 q 534 538 558 565 l 415 400 q 383 349 383 366 q 396 325 383 340 l 605 72 q 683 39 623 52 l 690 38 q 700 29 700 34 l 700 0 l 696 0 q 583 0 622 0 l 498 0 l 497 0 l 497 17 q 476 72 497 49 l 322 264 q 290 291 307 284 q 249 299 273 299 "},"Ã™":{"x_min":0,"x_max":918,"ha":917,"o":"m 445 -14 q 364 -6 404 -14 q 279 25 323 1 q 201 84 234 48 q 146 183 168 121 q 124 327 124 246 l 124 794 q 107 841 124 826 q 49 856 90 856 l 10 856 q 0 867 0 856 l 0 896 l 2 897 q 177 897 123 897 l 356 897 l 359 896 l 359 867 q 348 856 359 856 l 312 856 q 254 841 271 856 q 237 797 237 827 l 237 374 q 237 318 237 337 q 240 265 237 299 q 251 209 244 231 q 273 159 258 186 q 309 112 288 133 q 475 42 381 42 q 553 50 518 42 q 615 74 589 58 q 659 109 640 89 q 691 155 679 128 q 712 208 704 182 q 724 266 720 233 q 729 325 729 299 q 729 385 729 352 l 729 794 q 712 841 729 827 q 655 856 696 856 l 617 856 q 607 867 607 856 l 607 896 l 609 897 q 762 897 707 897 l 915 897 l 918 896 l 918 867 q 906 856 918 856 l 870 856 q 811 839 828 856 q 794 792 794 822 l 794 409 q 785 270 794 330 q 753 154 776 209 q 691 63 729 99 q 591 6 653 27 q 445 -14 529 -14 m 382 1136 l 550 1019 q 572 990 572 1004 q 551 970 572 970 q 491 986 532 970 l 278 1073 l 382 1136 "},"Å®":{"x_min":0,"x_max":918,"ha":917,"o":"m 445 -14 q 364 -6 404 -14 q 279 25 323 1 q 201 84 234 48 q 146 183 168 121 q 124 327 124 246 l 124 794 q 107 841 124 826 q 49 856 90 856 l 10 856 q 0 867 0 856 l 0 896 l 2 897 q 177 897 123 897 l 356 897 l 359 896 l 359 867 q 348 856 359 856 l 312 856 q 254 841 271 856 q 237 797 237 827 l 237 374 q 237 318 237 337 q 240 265 237 299 q 251 209 244 231 q 273 159 258 186 q 309 112 288 133 q 475 42 381 42 q 553 50 518 42 q 615 74 589 58 q 659 109 640 89 q 691 155 679 128 q 712 208 704 182 q 724 266 720 233 q 729 325 729 299 q 729 385 729 352 l 729 794 q 712 841 729 827 q 655 856 696 856 l 617 856 q 607 867 607 856 l 607 896 l 609 897 q 762 897 707 897 l 915 897 l 918 896 l 918 867 q 906 856 918 856 l 870 856 q 811 839 828 856 q 794 792 794 822 l 794 409 q 785 270 794 330 q 753 154 776 209 q 691 63 729 99 q 591 6 653 27 q 445 -14 529 -14 m 482 1082 q 428 1059 450 1082 q 407 1004 407 1036 q 428 949 407 973 q 482 926 450 926 q 535 949 513 926 q 557 1004 557 973 q 534 1059 557 1036 q 482 1082 512 1082 m 363 1004 q 397 1086 363 1052 q 480 1120 432 1120 q 564 1086 528 1120 q 600 1004 600 1052 q 565 923 600 957 q 480 889 530 889 q 397 922 432 889 q 363 1004 363 956 "},"Â¢":{"x_min":64,"x_max":547.921875,"ha":609,"o":"m 309 812 l 356 812 l 356 711 q 493 669 442 711 q 543 571 543 627 q 528 525 543 541 q 489 510 513 510 q 448 521 465 510 q 428 558 431 533 q 423 591 425 579 q 412 621 420 604 q 391 648 405 638 q 356 662 377 658 l 356 143 l 367 143 q 522 244 453 143 l 547 225 q 460 117 506 151 q 356 84 414 84 l 356 -17 l 309 -17 l 309 88 q 130 172 197 88 q 64 385 64 256 q 134 609 64 520 q 309 711 204 698 l 309 812 m 309 153 l 309 664 q 210 585 248 651 q 173 417 173 519 q 210 250 173 320 q 309 153 248 179 "},"Åž":{"x_min":47.015625,"x_max":604,"ha":659,"o":"m 533 877 q 558 666 533 786 l 517 659 q 505 700 510 684 q 489 740 499 716 q 469 780 480 764 q 444 814 459 796 q 410 843 428 832 q 367 860 392 853 q 314 868 343 868 q 204 822 247 868 q 162 712 162 777 q 357 523 162 593 q 428 495 399 508 q 494 459 458 483 q 551 410 530 436 q 588 343 573 383 q 604 254 604 303 q 531 68 604 148 q 349 -11 458 -11 l 318 -88 q 354 -84 335 -84 q 425 -107 397 -84 q 454 -170 454 -131 q 411 -241 454 -214 q 305 -269 369 -269 q 202 -244 255 -269 l 215 -214 q 296 -234 267 -234 q 355 -218 330 -234 q 380 -176 380 -203 q 363 -141 380 -155 q 321 -128 346 -128 q 259 -136 288 -128 l 250 -128 l 300 -16 q 189 -4 236 -16 q 136 7 143 7 q 103 3 122 7 q 72 0 84 0 q 47 243 72 61 l 88 248 q 305 34 134 34 q 438 79 386 34 q 491 207 491 125 q 482 273 491 244 q 461 322 474 303 q 427 358 449 341 q 386 384 405 374 q 337 405 367 393 q 281 427 305 417 q 222 455 257 437 q 163 493 188 473 q 114 540 138 513 q 78 601 91 566 q 66 674 66 635 q 106 801 66 744 q 206 886 146 857 q 327 915 265 915 q 416 908 384 915 q 475 891 449 901 q 533 877 501 881 "},"Ã©":{"x_min":45,"x_max":579.125,"ha":630,"o":"m 544 641 q 562 472 544 569 l 528 468 q 514 509 521 492 q 492 548 506 527 q 454 580 477 568 q 399 592 430 592 l 288 592 q 257 585 266 592 q 248 562 248 579 l 248 357 l 351 357 q 390 367 379 357 q 406 401 401 378 l 414 431 q 422 438 414 438 l 445 438 q 449 433 449 438 q 440 330 440 354 q 449 234 440 317 l 445 232 l 423 232 q 413 238 413 232 l 406 269 q 389 302 402 291 q 351 313 377 313 l 248 313 l 248 81 q 257 55 248 62 q 288 48 267 48 l 407 48 q 495 80 465 48 q 545 173 525 112 l 579 169 q 552 -1 552 70 l 183 -1 l 46 -1 l 45 0 l 45 31 q 53 37 45 37 l 85 40 q 129 53 117 43 q 141 84 141 62 l 141 558 q 128 590 141 581 q 85 599 115 599 l 53 603 q 45 609 45 604 l 45 639 l 46 641 l 184 641 l 285 641 l 544 641 m 360 921 q 379 924 369 924 q 447 899 418 924 q 455 892 455 893 l 459 877 l 300 725 q 260 698 273 698 q 246 703 252 698 q 240 714 240 708 q 249 746 240 732 l 360 921 "},"B":{"x_min":24,"x_max":751,"ha":807,"o":"m 260 791 l 260 509 l 362 509 q 562 668 562 509 q 545 755 562 718 q 500 812 528 792 q 442 840 471 831 q 380 849 412 849 q 329 849 350 849 q 295 845 309 849 q 275 838 282 841 q 264 827 268 835 q 260 812 261 818 q 260 791 260 805 m 260 462 l 260 108 q 282 58 260 72 q 375 45 305 45 q 503 58 451 45 q 581 99 554 72 q 617 157 607 126 q 628 229 628 188 q 563 395 628 328 q 383 462 499 462 l 260 462 m 24 28 q 33 40 24 40 l 75 40 q 133 50 120 40 q 147 95 147 60 l 147 800 q 133 845 147 835 q 75 856 120 856 l 33 856 q 24 866 24 856 l 24 896 l 26 897 q 202 897 133 897 q 292 897 237 897 q 370 897 348 897 q 669 685 669 897 q 632 578 669 629 q 540 500 595 527 q 694 412 637 472 q 751 256 751 351 q 741 184 751 219 q 706 114 732 149 q 643 55 681 80 q 543 14 605 30 q 401 -1 481 -1 q 285 -1 334 -1 q 202 -1 236 -1 l 26 -1 l 24 0 l 24 28 "},"â€¦":{"x_min":79,"x_max":934,"ha":1011,"o":"m 100 7 q 79 59 79 29 q 100 110 79 88 q 152 133 122 133 q 204 110 182 133 q 226 59 226 88 q 204 7 226 29 q 152 -14 182 -14 q 100 7 122 -14 m 453 7 q 432 59 432 29 q 453 110 432 88 q 505 133 475 133 q 557 110 535 133 q 579 59 579 88 q 557 7 579 29 q 505 -14 535 -14 q 453 7 475 -14 m 808 7 q 787 59 787 29 q 808 110 787 88 q 860 133 830 133 q 912 110 890 133 q 934 59 934 88 q 912 7 934 29 q 860 -14 890 -14 q 808 7 830 -14 "},"Ä“":{"x_min":45,"x_max":579.125,"ha":630,"o":"m 495 707 l 156 707 q 143 713 148 707 q 139 728 139 719 q 148 755 139 741 q 169 769 157 769 l 510 769 q 524 762 519 769 q 529 749 529 756 q 518 721 529 735 q 495 707 508 707 m 544 641 q 562 472 544 569 l 527 468 q 513 509 521 492 q 491 548 505 527 q 453 580 477 568 q 399 592 430 592 l 287 592 q 257 585 266 592 q 248 562 248 579 l 248 357 l 351 357 q 390 367 379 357 q 406 401 401 378 l 414 431 q 422 438 414 438 l 445 438 q 449 433 449 438 q 440 330 440 354 q 449 234 440 317 l 445 232 l 423 232 q 413 238 413 232 l 406 269 q 389 302 402 291 q 351 313 377 313 l 248 313 l 248 81 q 257 55 248 62 q 287 48 267 48 l 407 48 q 495 80 465 48 q 545 173 524 112 l 579 169 q 552 -1 552 70 l 183 -1 l 46 -1 l 45 0 l 45 31 q 53 37 45 37 l 84 40 q 129 53 117 43 q 141 84 141 62 l 141 558 q 128 590 141 581 q 84 599 115 599 l 53 603 q 45 609 45 604 l 45 639 l 46 641 l 184 641 l 285 641 l 544 641 "},"H":{"x_min":24,"x_max":950,"ha":972,"o":"m 713 100 l 713 446 l 260 446 l 260 96 q 276 52 260 65 q 336 40 293 40 l 372 40 q 383 28 383 40 l 383 0 l 380 -1 q 205 -1 261 -1 l 27 -1 l 25 0 l 25 28 q 34 40 25 40 l 71 40 q 130 53 113 40 q 147 96 147 67 l 147 800 q 130 843 147 830 q 71 856 113 856 l 34 856 q 24 867 24 856 l 24 896 l 26 897 q 201 897 147 897 l 380 897 l 383 896 l 383 867 q 372 856 383 856 l 336 856 q 277 842 294 856 q 260 800 260 829 l 260 504 l 713 504 l 713 800 q 696 843 713 831 q 637 856 679 856 l 601 856 q 589 867 589 856 l 589 896 l 591 897 q 766 897 712 897 l 946 897 l 949 896 l 949 867 q 937 856 949 856 l 901 856 q 842 843 859 856 q 826 800 826 830 l 826 100 q 843 52 826 67 q 901 38 861 38 l 937 38 q 950 27 950 38 l 950 0 l 947 -1 q 772 -1 827 -1 l 592 -1 l 590 0 l 590 27 q 601 38 590 38 l 637 38 q 695 53 678 38 q 713 100 713 69 "},"Ã®":{"x_min":18.546875,"x_max":371.4375,"ha":388,"o":"m 249 556 l 249 93 q 261 57 249 69 q 307 40 274 44 l 336 38 q 345 29 345 38 l 345 0 l 343 -1 q 194 -1 237 -1 l 47 -1 l 45 0 l 45 29 q 54 38 45 38 l 82 40 q 142 93 142 46 l 142 556 q 128 588 142 578 q 82 601 114 597 l 54 604 q 45 609 45 604 l 45 639 l 46 641 q 199 641 155 641 l 343 641 l 345 639 l 345 610 q 336 604 345 604 l 307 601 q 262 588 275 598 q 249 556 249 577 m 230 905 q 371 725 276 831 l 342 706 q 194 831 241 781 q 46 706 136 772 l 18 725 q 161 905 120 840 l 230 905 "},"â€µ":{"x_min":77,"x_max":255,"ha":339,"o":"m 104 977 q 129 984 112 984 q 150 979 139 984 q 167 961 162 971 l 253 759 q 254 756 253 758 q 255 754 255 755 q 248 744 255 749 q 234 738 241 738 q 223 742 228 738 l 83 913 q 77 931 77 922 q 104 977 77 957 "},"â€¼":{"x_min":82,"x_max":490,"ha":570,"o":"m 411 917 q 466 890 443 917 q 490 815 490 864 q 474 677 490 764 q 451 547 458 590 q 439 422 439 481 q 439 331 439 363 q 431 293 439 299 q 408 266 428 266 q 386 284 389 266 q 385 389 385 293 q 372 547 385 484 q 352 677 367 593 q 337 815 337 761 q 360 891 337 866 q 411 917 383 917 m 339 62 q 360 114 339 92 q 412 136 382 136 q 464 114 442 136 q 486 62 486 92 q 464 10 486 32 q 412 -11 442 -11 q 360 10 382 -11 q 339 62 339 32 m 156 915 q 211 888 188 915 q 235 813 235 861 q 219 675 235 762 q 196 544 203 588 q 184 419 184 478 q 184 328 184 361 q 176 291 184 296 q 153 264 173 264 q 130 281 133 264 q 130 334 130 290 q 130 438 130 379 q 116 544 130 497 q 97 676 112 593 q 82 813 82 759 q 105 889 82 864 q 156 915 128 915 m 104 7 q 83 59 83 29 q 104 110 83 88 q 156 133 126 133 q 208 110 186 133 q 230 59 230 88 q 208 7 230 29 q 156 -14 186 -14 q 104 7 126 -14 "},"Â¥":{"x_min":-9,"x_max":629,"ha":609,"o":"m 553 231 l 553 177 l 364 177 l 364 100 q 381 53 364 67 q 439 39 398 39 l 475 39 q 487 28 487 39 l 487 1 l 484 0 q 309 0 364 0 l 131 0 l 128 1 l 128 28 q 138 39 128 39 l 175 39 q 233 54 216 39 q 251 100 251 69 l 251 177 l 59 177 l 59 231 l 251 231 l 251 318 l 59 318 l 59 374 l 242 374 l 88 696 q 55 744 71 729 q 14 760 39 760 l 4 760 q -9 772 -7 764 l -9 797 l -7 799 q 119 795 18 795 q 239 799 204 795 l 242 797 l 242 773 q 232 760 242 760 l 214 760 q 181 742 181 760 q 195 699 181 734 l 336 403 l 465 699 q 480 744 480 733 q 446 762 480 762 l 424 762 q 416 772 416 762 l 416 797 l 418 799 q 526 795 459 795 q 627 799 581 795 l 629 797 l 629 773 q 628 767 629 769 q 625 763 628 765 q 615 762 622 762 l 607 762 q 522 696 552 762 l 380 374 l 553 374 l 553 318 l 364 318 l 364 231 l 553 231 "},"Ä¤":{"x_min":24,"x_max":950,"ha":972,"o":"m 511 1116 q 651 985 567 1047 l 629 956 q 482 1042 542 996 q 333 956 412 992 l 314 985 q 451 1116 370 1027 l 511 1116 m 713 100 l 713 446 l 260 446 l 260 96 q 276 52 260 65 q 336 40 293 40 l 372 40 q 383 28 383 40 l 383 0 l 380 -1 q 205 -1 261 -1 l 27 -1 l 25 0 l 25 28 q 34 40 25 40 l 71 40 q 130 53 113 40 q 147 96 147 67 l 147 800 q 130 843 147 830 q 71 856 113 856 l 34 856 q 24 867 24 856 l 24 896 l 26 897 q 201 897 147 897 l 380 897 l 383 896 l 383 867 q 372 856 383 856 l 336 856 q 277 842 294 856 q 260 800 260 829 l 260 504 l 713 504 l 713 800 q 696 843 713 831 q 637 856 679 856 l 601 856 q 589 867 589 856 l 589 896 l 591 897 q 766 897 712 897 l 946 897 l 949 896 l 949 867 q 937 856 949 856 l 901 856 q 842 843 859 856 q 826 800 826 830 l 826 100 q 843 52 826 67 q 901 38 861 38 l 937 38 q 950 27 950 38 l 950 0 l 947 -1 q 772 -1 827 -1 l 592 -1 l 590 0 l 590 27 q 601 38 590 38 l 637 38 q 695 53 678 38 q 713 100 713 69 "},"U":{"x_min":0,"x_max":918,"ha":917,"o":"m 445 -14 q 364 -6 404 -14 q 279 25 323 1 q 201 84 234 48 q 146 183 168 121 q 124 327 124 246 l 124 794 q 107 841 124 826 q 49 856 90 856 l 10 856 q 0 867 0 856 l 0 896 l 2 897 q 177 897 123 897 l 356 897 l 359 896 l 359 867 q 348 856 359 856 l 312 856 q 254 841 271 856 q 237 797 237 827 l 237 374 q 237 318 237 337 q 240 265 237 299 q 251 209 244 231 q 273 159 258 186 q 309 112 288 133 q 475 42 381 42 q 553 50 518 42 q 615 74 589 58 q 659 109 640 89 q 691 155 679 128 q 712 208 704 182 q 724 266 720 233 q 729 325 729 299 q 729 385 729 352 l 729 794 q 712 841 729 827 q 655 856 696 856 l 617 856 q 607 867 607 856 l 607 896 l 609 897 q 762 897 707 897 l 915 897 l 918 896 l 918 867 q 906 856 918 856 l 870 856 q 811 839 828 856 q 794 792 794 822 l 794 409 q 785 270 794 330 q 753 154 776 209 q 691 63 729 99 q 591 6 653 27 q 445 -14 529 -14 "},"Ã‘":{"x_min":16,"x_max":962,"ha":966,"o":"m 838 774 l 838 29 q 809 -10 838 -10 q 753 20 774 -10 l 268 632 q 221 678 232 678 q 210 662 213 678 q 207 610 207 647 l 207 121 q 225 64 207 87 q 283 39 244 42 l 320 39 q 331 27 331 39 l 331 0 l 328 -1 q 173 -1 229 -1 l 18 -1 l 16 0 l 16 26 q 33 39 16 36 l 69 39 q 127 67 109 43 q 145 122 145 90 l 145 764 q 110 825 138 794 q 50 859 82 856 q 27 870 27 862 l 27 894 l 31 898 l 219 898 l 696 282 q 757 210 746 217 q 765 206 762 206 q 774 215 772 206 q 776 248 776 224 l 776 775 q 758 831 776 808 q 700 858 740 854 l 664 858 q 651 861 658 858 q 645 869 645 864 l 645 896 l 650 897 q 805 897 754 897 l 959 897 l 962 896 l 962 869 q 951 858 962 858 l 913 858 q 856 831 874 854 q 838 774 838 808 m 579 1032 q 619 1046 604 1032 q 649 1103 635 1061 l 683 1095 q 561 971 657 971 q 472 1006 526 971 q 398 1037 421 1037 q 356 1021 371 1037 q 329 971 340 1006 l 296 977 q 337 1070 311 1040 q 407 1101 363 1101 q 508 1062 451 1101 q 579 1032 547 1032 "},"F":{"x_min":17,"x_max":648.515625,"ha":662,"o":"m 140 798 q 124 842 140 829 q 68 857 109 854 l 27 857 q 17 867 17 857 l 17 896 l 19 897 q 197 897 159 897 l 546 897 q 612 902 580 897 q 618 897 618 902 q 631 811 620 888 q 648 696 643 735 l 608 689 q 589 742 597 722 q 568 783 581 762 q 540 815 555 805 q 502 833 525 826 q 448 841 479 841 l 302 841 q 264 831 276 841 q 253 796 253 821 l 253 502 l 428 502 q 479 515 464 502 q 497 560 494 529 l 502 595 q 504 602 502 599 q 511 606 507 606 l 539 606 q 545 600 545 606 q 545 479 545 524 l 545 354 l 543 350 l 510 350 q 501 353 504 350 q 498 359 498 356 l 498 396 q 482 438 498 426 q 430 450 466 450 l 253 450 l 253 100 q 270 52 253 67 q 328 38 288 38 l 365 38 q 376 27 376 38 l 376 0 l 374 -1 q 199 -1 267 -1 l 20 -1 l 18 0 l 18 27 q 28 38 18 38 l 64 38 q 122 53 105 38 q 140 100 140 69 l 140 798 "},"Äµ":{"x_min":-57,"x_max":365.515625,"ha":383,"o":"m 56 -194 q 92 -184 78 -194 q 119 -149 107 -175 q 138 -70 132 -123 q 144 65 144 -16 l 144 560 q 130 594 144 583 q 85 605 116 605 l 45 605 q 37 611 37 605 l 37 641 l 38 642 q 193 642 151 642 l 331 642 l 335 641 l 335 611 q 324 605 335 605 l 308 605 q 261 593 274 605 q 248 560 248 582 l 248 86 q 168 -182 248 -105 q 118 -213 147 -201 q 64 -225 89 -225 q 30 -221 49 -225 q -9 -212 11 -218 q -43 -191 -29 -205 q -57 -160 -57 -178 q -22 -129 -57 -129 q 19 -169 10 -129 q 23 -180 21 -176 q 33 -189 25 -185 q 56 -194 42 -194 m 224 906 q 365 727 269 832 l 336 707 q 188 832 235 782 q 39 707 129 771 l 11 727 q 154 906 112 838 l 224 906 "},"Ä�":{"x_min":3,"x_max":745,"ha":747,"o":"m 561 714 l 222 714 q 208 720 213 714 q 204 734 204 726 q 213 761 204 747 q 234 775 223 775 l 575 775 q 589 768 584 775 q 595 755 595 762 q 584 727 595 741 q 561 714 573 714 m 223 228 l 163 82 q 157 63 157 66 q 170 44 157 50 q 213 39 184 39 l 231 39 q 237 36 234 39 q 240 30 240 34 l 240 0 l 237 -1 q 95 -1 122 -1 l 5 -1 l 3 0 l 3 29 q 5 35 3 33 q 11 38 8 38 q 45 44 32 40 q 73 61 58 48 q 100 97 89 74 l 345 623 q 365 649 351 639 q 389 659 378 659 q 444 624 430 659 l 647 106 q 681 53 664 66 q 733 38 698 41 q 745 29 745 36 l 745 0 l 740 -1 q 625 -1 666 -1 l 469 -1 l 467 0 l 467 29 q 476 38 467 38 l 501 40 q 543 49 530 44 q 557 66 557 54 q 554 82 557 71 l 492 243 l 254 243 q 223 228 227 243 m 475 284 l 366 558 l 364 558 l 259 303 q 260 294 259 297 q 267 287 261 291 q 286 284 273 284 l 475 284 "},"Ä¨":{"x_min":12.46875,"x_max":398.59375,"ha":407,"o":"m 260 800 l 260 95 q 276 52 260 64 q 336 40 293 40 l 372 40 q 383 28 383 40 l 383 0 l 380 -1 q 204 -1 314 -1 q 27 -1 95 -1 l 25 0 l 25 28 q 34 40 25 40 l 71 40 q 131 52 115 40 q 147 95 147 65 l 147 800 q 130 843 147 831 q 71 856 113 856 l 34 856 q 24 867 24 856 l 24 896 l 26 897 q 202 897 95 897 q 380 897 312 897 l 383 896 l 383 867 q 372 856 383 856 l 336 856 q 277 842 294 856 q 260 800 260 829 m 295 1031 q 335 1045 320 1031 q 365 1102 351 1060 l 398 1094 q 278 969 372 969 q 189 1005 243 969 q 113 1036 137 1036 q 71 1020 87 1036 q 46 969 56 1004 l 12 976 q 53 1069 27 1039 q 123 1100 79 1100 q 223 1061 167 1100 q 295 1031 263 1031 "},"Äƒ":{"x_min":3,"x_max":745,"ha":747,"o":"m 250 921 q 293 829 250 866 q 400 793 337 793 q 501 827 454 793 q 549 921 549 861 l 587 901 q 569 828 583 861 q 535 774 554 795 q 492 739 516 754 q 445 719 468 725 q 400 714 422 714 q 270 766 321 714 q 212 901 219 818 l 250 921 m 223 228 l 163 82 q 157 63 157 66 q 170 44 157 50 q 213 39 184 39 l 231 39 q 237 36 234 39 q 240 30 240 34 l 240 0 l 237 -1 q 95 -1 122 -1 l 5 -1 l 3 0 l 3 29 q 5 35 3 33 q 11 38 8 38 q 45 44 32 40 q 73 61 58 48 q 100 97 89 74 l 345 623 q 365 649 351 639 q 389 659 378 659 q 444 624 430 659 l 647 106 q 681 53 664 66 q 733 38 698 41 q 745 29 745 36 l 745 0 l 740 -1 q 625 -1 666 -1 l 469 -1 l 467 0 l 467 29 q 476 38 467 38 l 501 40 q 543 49 530 44 q 557 66 557 54 q 554 82 557 71 l 492 243 l 254 243 q 223 228 227 243 m 475 284 l 366 558 l 364 558 l 259 303 q 260 294 259 297 q 267 287 261 291 q 286 284 273 284 l 475 284 "},"*":{"x_min":104,"x_max":491.359375,"ha":601,"o":"m 274 787 q 215 793 250 793 q 131 804 159 793 q 104 844 104 815 q 115 874 104 861 q 149 887 126 887 q 189 875 169 887 q 233 844 208 863 q 283 815 258 825 q 265 884 280 843 q 251 943 251 925 q 262 981 251 965 q 292 997 273 997 q 325 984 312 997 q 338 949 338 972 q 325 881 338 929 q 313 814 313 833 q 361 844 336 825 q 405 875 387 863 q 443 887 423 887 q 480 873 468 887 q 491 844 491 859 q 395 793 491 793 q 318 787 351 793 q 367 747 335 768 q 416 709 399 727 q 434 666 434 691 q 421 638 434 649 q 393 627 409 627 q 353 649 369 627 q 322 712 337 671 q 295 771 306 753 q 268 709 285 753 q 236 646 251 666 q 197 627 221 627 q 168 638 180 627 q 157 665 157 649 q 175 710 157 692 q 225 748 193 727 q 274 787 257 768 "},"â€ ":{"x_min":113.546875,"x_max":743.84375,"ha":816,"o":"m 428 968 q 471 943 453 968 q 489 885 489 918 q 439 625 489 727 q 668 682 529 682 q 721 660 699 682 q 743 610 743 639 q 722 562 743 581 q 668 543 700 543 q 438 597 527 543 q 503 340 438 424 q 439 -288 439 144 l 415 -288 q 351 340 415 168 q 416 597 416 408 q 186 543 331 543 q 134 562 155 543 q 113 610 113 581 q 135 660 113 639 q 186 682 156 682 q 415 625 324 682 q 366 885 366 728 q 383 943 366 918 q 428 968 401 968 "},"â±¦":{"x_min":-37.296875,"x_max":645.484375,"ha":647,"o":"m 461 639 l 558 782 l 613 782 l 516 639 l 562 639 q 587 645 577 639 q 600 659 598 651 l 634 659 q 645 468 634 544 l 608 464 q 566 566 586 541 q 502 592 546 592 l 484 592 l 400 468 l 400 85 q 413 53 400 63 q 459 40 426 44 l 487 38 q 493 35 490 38 q 497 29 497 32 l 497 0 l 494 -1 q 344 -1 385 -1 l 198 -1 l 197 0 l 197 29 q 205 38 197 38 l 233 40 q 279 54 265 44 q 293 85 293 65 l 293 313 l 19 -86 l -37 -86 l 293 395 l 293 549 q 281 582 293 572 q 240 592 269 592 l 177 592 q 112 566 132 592 q 70 464 92 541 l 33 468 q 44 659 44 533 l 79 659 q 91 645 81 651 q 116 639 100 639 l 461 639 m 400 550 l 426 589 q 400 550 400 583 "},"â€�":{"x_min":0,"x_max":0,"ha":0},"Â°":{"x_min":47,"x_max":323,"ha":370,"o":"m 278 728 q 253 798 278 767 q 185 830 229 830 q 117 799 142 830 q 92 728 92 768 q 117 660 92 689 q 185 631 143 631 q 252 660 226 631 q 278 728 278 690 m 47 729 q 87 828 47 787 q 185 869 128 869 q 282 828 242 869 q 323 729 323 787 q 282 632 323 672 q 185 592 242 592 q 87 632 128 592 q 47 729 47 672 "},"â�Š":{"x_min":87,"x_max":560.734375,"ha":608,"o":"m 87 468 l 87 607 q 284 570 175 570 q 484 582 393 570 q 549 617 520 617 q 559 609 556 617 q 560 590 561 602 q 557 567 559 578 q 551 544 554 555 q 469 207 505 388 q 423 -76 434 26 l 410 -180 l 362 -180 l 358 -172 q 372 -67 358 -165 q 418 193 386 30 q 483 476 449 357 q 87 468 294 427 "},"Ã¥":{"x_min":3,"x_max":745,"ha":747,"o":"m 223 228 l 163 82 q 157 63 157 66 q 170 44 157 50 q 213 39 184 39 l 231 39 q 237 36 234 39 q 240 30 240 34 l 240 0 l 237 -1 q 95 -1 122 -1 l 5 -1 l 3 0 l 3 29 q 5 35 3 33 q 11 38 8 38 q 45 44 32 40 q 73 61 58 48 q 100 97 89 74 l 345 623 q 365 649 351 639 q 389 659 378 659 q 444 624 430 659 l 647 106 q 681 53 664 66 q 733 38 698 41 q 745 29 745 36 l 745 0 l 740 -1 q 625 -1 666 -1 l 469 -1 l 467 0 l 467 29 q 476 38 467 38 l 501 40 q 543 49 530 44 q 557 66 557 54 q 554 82 557 71 l 492 243 l 254 243 q 223 228 227 243 m 475 284 l 366 558 l 364 558 l 259 303 q 260 294 259 297 q 267 287 261 291 q 286 284 273 284 l 475 284 m 399 886 q 345 862 367 886 q 324 808 324 839 q 345 754 324 778 q 399 730 367 730 q 452 754 430 730 q 474 808 474 778 q 451 862 474 839 q 399 886 429 886 m 314 726 q 280 807 280 760 q 314 889 280 855 q 397 923 349 923 q 481 889 445 923 q 517 808 517 856 q 482 727 517 761 q 397 693 447 693 q 314 726 349 693 "},"0":{"x_min":52,"x_max":554,"ha":611,"o":"m 306 754 q 268 745 286 754 q 231 712 250 737 q 197 646 211 687 q 175 535 184 606 q 166 371 166 464 q 166 306 166 338 q 170 232 166 274 q 185 157 175 191 q 210 93 195 123 q 247 46 224 63 q 300 30 271 30 q 325 34 312 30 q 356 50 338 38 q 390 88 374 61 q 417 152 407 114 q 443 423 443 244 q 420 625 443 547 q 364 732 397 703 q 306 754 341 754 m 299 -16 q 170 40 228 -16 q 82 187 112 96 q 52 385 52 279 q 73 560 52 480 q 130 692 94 640 q 211 773 165 744 q 306 803 256 803 q 391 777 349 803 q 465 711 434 752 q 554 398 554 594 q 537 237 554 309 q 493 118 520 164 q 433 41 467 72 q 365 -3 398 9 q 299 -16 332 -16 "},"Å�":{"x_min":52,"x_max":721.28125,"ha":771,"o":"m 551 707 l 212 707 q 199 713 204 707 q 195 728 195 719 q 204 755 195 741 q 225 769 213 769 l 566 769 q 580 762 575 769 q 585 749 585 756 q 574 721 585 735 q 551 707 564 707 m 375 610 q 298 591 335 610 q 232 538 262 572 q 184 448 202 504 q 167 325 167 392 q 232 113 167 196 q 397 30 296 30 q 548 105 491 30 q 606 307 606 180 q 538 526 606 442 q 375 610 471 610 m 721 326 q 698 196 721 257 q 634 87 676 135 q 526 11 593 39 q 376 -17 459 -17 q 144 74 236 -17 q 52 308 52 166 q 147 560 52 461 q 387 659 242 659 q 553 617 477 659 q 675 499 629 576 q 721 326 721 422 "},"â€�":{"x_min":61.375,"x_max":455,"ha":520,"o":"m 363 977 q 429 939 404 977 q 455 839 455 901 q 405 721 455 770 q 288 660 355 672 q 281 694 274 671 q 366 743 331 707 q 401 804 401 779 q 387 835 401 826 q 350 847 373 844 q 289 908 289 857 q 310 957 289 938 q 363 977 331 977 m 145 977 q 211 939 186 977 q 237 839 237 901 q 187 721 237 770 q 70 660 137 672 q 63 694 56 671 q 148 743 113 707 q 183 804 183 779 q 133 847 183 842 q 71 908 71 857 q 92 957 71 938 q 145 977 113 977 "},"â€»":{"x_min":21,"x_max":726,"ha":797,"o":"m 302 9 q 324 61 302 39 q 376 83 346 83 q 427 61 405 83 q 450 9 450 39 q 427 -42 450 -20 q 376 -64 405 -64 q 324 -42 346 -64 q 302 9 302 -20 m 579 310 q 600 362 579 340 q 652 384 622 384 q 704 362 682 384 q 726 310 726 340 q 704 258 726 280 q 652 237 682 237 q 600 258 622 237 q 579 310 579 280 m 21 312 q 42 364 21 342 q 94 386 64 386 q 146 364 124 386 q 168 312 168 342 q 146 260 168 282 q 94 239 124 239 q 42 260 64 239 q 21 312 21 282 m 300 600 q 322 652 300 630 q 373 674 344 674 q 425 652 403 674 q 447 600 447 630 q 425 548 447 570 q 373 527 403 527 q 322 548 344 527 q 300 600 300 570 m 127 599 l 162 624 l 377 338 l 612 652 l 646 625 l 404 302 l 642 -15 l 609 -40 l 377 268 l 165 -13 l 130 10 l 349 302 l 127 599 "},"Åµ":{"x_min":14,"x_max":1054,"ha":1066,"o":"m 569 906 q 710 727 615 832 l 681 707 q 533 833 580 782 q 385 707 474 771 l 357 727 q 499 906 458 839 l 569 906 m 335 -17 q 288 37 309 -17 l 100 549 q 40 600 85 589 l 28 604 q 14 610 14 606 l 14 639 l 17 641 q 114 641 74 641 l 261 641 l 263 639 l 263 612 q 253 604 263 604 l 229 601 q 201 586 206 598 q 206 558 197 574 l 369 118 l 484 439 q 493 475 493 465 q 490 504 493 495 l 469 558 q 396 604 456 595 q 384 610 384 606 l 384 639 l 386 641 q 490 641 445 641 l 639 641 l 642 639 l 642 610 q 632 604 642 604 l 600 600 q 578 540 557 596 l 737 108 l 902 555 q 906 574 906 564 q 896 591 906 583 q 869 601 887 599 l 840 604 q 832 610 832 604 l 832 639 l 833 641 q 960 641 916 641 l 1051 641 l 1054 641 l 1054 610 q 1041 602 1054 602 q 994 589 1013 602 q 969 565 975 577 q 957 538 962 554 l 775 38 q 717 -17 755 -17 q 690 -11 702 -17 q 671 4 678 -6 q 660 21 663 14 q 653 38 656 28 l 537 365 q 520 394 525 394 q 507 369 516 394 l 390 38 q 379 11 384 21 q 363 -7 375 1 q 335 -17 352 -17 "},"Ä¶":{"x_min":24,"x_max":879,"ha":884,"o":"m 493 -41 q 556 -71 532 -41 q 580 -141 580 -102 q 576 -170 580 -154 q 563 -207 573 -186 q 537 -246 553 -229 q 494 -275 522 -263 q 430 -288 466 -288 l 425 -265 q 477 -246 455 -259 q 509 -220 498 -233 q 526 -191 520 -206 q 533 -168 532 -175 q 535 -155 535 -160 q 532 -141 535 -149 q 492 -154 509 -154 q 438 -136 454 -154 q 423 -96 423 -118 q 441 -59 423 -77 q 493 -41 459 -41 m 260 430 l 260 95 q 276 52 260 64 q 336 40 293 40 l 372 40 q 383 28 383 40 l 383 0 l 380 -1 q 204 -1 314 -1 q 27 -1 95 -1 l 25 0 l 25 28 q 34 40 25 40 l 71 40 q 131 52 115 40 q 147 95 147 65 l 147 800 q 130 843 147 831 q 71 856 113 856 l 34 856 q 24 867 24 856 l 24 896 l 26 897 q 202 897 95 897 q 380 897 312 897 l 383 896 l 383 867 q 372 856 383 856 l 336 856 q 277 842 294 856 q 260 800 260 829 l 260 484 q 371 535 323 484 l 604 781 q 632 818 625 803 q 632 843 640 833 q 599 856 625 853 l 570 859 q 559 869 559 859 l 559 896 l 561 897 q 722 897 667 897 l 856 897 l 863 896 l 863 869 q 847 859 863 859 q 790 849 811 854 q 736 825 769 844 q 673 775 703 807 l 479 566 q 437 518 446 531 q 428 497 428 505 q 444 463 428 481 l 749 101 q 798 57 773 71 q 857 38 824 43 l 867 37 q 879 26 879 33 l 879 0 l 875 -1 q 717 -1 771 -1 l 633 -1 l 631 0 l 631 8 q 603 101 631 66 l 376 377 q 260 430 335 430 "},"Ã¶":{"x_min":52,"x_max":721.28125,"ha":771,"o":"m 375 610 q 298 591 335 610 q 232 538 262 572 q 184 448 202 504 q 167 325 167 392 q 232 113 167 196 q 397 30 296 30 q 548 105 491 30 q 606 307 606 180 q 538 526 606 442 q 375 610 471 610 m 721 326 q 698 196 721 257 q 634 87 676 135 q 526 11 593 39 q 376 -17 459 -17 q 144 74 236 -17 q 52 308 52 166 q 147 560 52 461 q 387 659 242 659 q 553 617 477 659 q 675 499 629 576 q 721 326 721 422 m 439 796 q 458 840 439 822 q 502 859 477 859 q 547 840 529 859 q 566 796 566 822 q 547 751 566 770 q 502 732 529 732 q 458 751 477 732 q 439 796 439 770 m 217 796 q 235 840 217 822 q 280 859 253 859 q 324 840 305 859 q 344 796 344 822 q 324 751 344 770 q 280 732 305 732 q 235 751 253 732 q 217 796 217 770 "},"Ä»":{"x_min":24,"x_max":701.5,"ha":731,"o":"m 485 54 q 552 68 523 54 q 602 108 582 82 q 635 164 622 135 q 660 236 648 194 l 701 229 q 668 -1 668 83 q 499 -1 537 -1 l 204 -1 l 26 -1 l 24 0 l 24 28 q 34 40 24 40 l 76 40 q 133 50 119 40 q 147 96 147 61 l 147 800 q 130 843 147 830 q 71 856 113 856 l 34 856 q 24 867 24 856 l 24 896 l 26 897 q 201 897 147 897 l 380 897 l 383 896 l 383 867 q 372 856 383 856 l 336 856 q 276 843 293 856 q 260 800 260 830 l 260 123 q 277 72 260 91 q 325 54 295 54 l 485 54 m 371 -47 q 433 -77 409 -47 q 457 -147 457 -107 q 453 -176 457 -160 q 440 -213 450 -192 q 415 -251 430 -234 q 371 -281 399 -268 q 308 -294 343 -294 l 302 -270 q 354 -252 332 -265 q 387 -226 376 -239 q 404 -197 397 -213 q 411 -174 410 -181 q 413 -161 413 -166 q 410 -147 413 -155 q 369 -160 385 -160 q 315 -142 331 -160 q 300 -102 300 -124 q 318 -64 300 -82 q 371 -47 336 -47 "},"Ã•":{"x_min":52,"x_max":920,"ha":970,"o":"m 464 867 q 383 852 422 867 q 305 805 343 837 q 240 725 268 772 q 194 608 211 679 q 178 454 178 538 q 206 276 178 357 q 282 142 234 195 q 389 61 329 90 q 511 33 448 33 q 712 140 633 33 q 792 430 792 248 q 703 754 792 642 q 464 867 615 867 m 920 457 q 800 116 920 246 q 483 -14 681 -14 q 266 39 363 -14 q 110 194 168 92 q 52 430 52 296 q 107 675 52 564 q 261 850 162 786 q 482 914 360 914 q 656 881 575 914 q 795 788 736 848 q 886 644 853 729 q 920 457 920 558 m 570 1031 q 609 1045 594 1031 q 639 1102 625 1060 l 672 1094 q 551 970 648 970 q 462 1005 516 970 q 387 1036 411 1036 q 345 1020 361 1036 q 319 970 330 1005 l 286 976 q 327 1069 301 1039 q 397 1100 353 1100 q 497 1061 441 1100 q 570 1031 537 1031 "},"Ä‡":{"x_min":52,"x_max":624.34375,"ha":683,"o":"m 393 936 q 412 939 402 939 q 481 914 451 939 q 489 907 486 909 l 493 892 l 334 740 q 293 713 306 713 q 280 718 286 713 q 274 729 274 723 q 282 761 274 747 l 393 936 m 383 -17 q 242 11 306 -17 q 137 87 178 40 q 74 192 96 134 q 52 311 52 250 q 145 560 52 462 q 376 659 238 659 q 512 646 440 659 q 604 634 584 634 q 619 455 604 558 l 583 451 q 521 573 570 528 q 385 618 471 618 q 322 610 351 618 q 263 581 292 602 q 212 529 233 561 q 178 444 191 497 q 166 324 166 392 q 173 241 166 281 q 196 161 180 200 q 238 94 213 122 q 302 48 263 65 q 390 30 342 30 q 503 53 458 30 q 596 133 547 75 l 624 111 q 518 13 573 44 q 383 -17 462 -17 "},"Ã¾":{"x_min":40,"x_max":583,"ha":624,"o":"m 233 517 q 336 517 305 517 q 442 504 395 517 q 513 472 488 491 q 555 426 539 452 q 577 377 572 400 q 583 330 583 354 q 575 280 583 305 q 548 229 567 256 q 500 182 528 202 q 424 149 471 162 q 320 136 378 136 q 233 142 256 136 l 233 86 q 240 48 233 56 q 275 40 248 40 l 308 40 q 318 31 318 40 l 318 0 l 316 -1 q 178 -1 212 -1 q 42 -1 92 -1 l 40 0 l 40 29 q 50 40 42 40 l 83 40 q 118 48 111 40 q 126 85 126 57 l 126 556 q 117 592 126 583 q 83 601 109 601 l 50 601 q 40 608 40 601 l 40 639 l 42 641 q 177 641 127 641 l 316 641 l 318 639 l 318 609 q 309 602 318 602 l 275 602 q 256 599 262 600 q 244 593 251 598 q 235 580 237 589 q 233 555 233 571 l 233 517 m 233 464 l 233 182 q 315 177 247 177 q 433 213 394 177 q 472 332 472 250 q 437 441 472 407 q 334 475 402 475 q 233 464 283 475 "},"]":{"x_min":49.875,"x_max":341,"ha":494,"o":"m 341 977 l 341 -153 l 49 -153 l 49 -110 q 131 -106 100 -110 q 186 -93 162 -102 q 223 -76 211 -85 q 243 -48 235 -67 q 252 -10 250 -30 q 254 42 254 8 l 254 780 q 252 833 254 814 q 243 871 250 852 q 223 899 235 890 q 187 917 211 908 q 131 929 163 925 q 49 934 100 934 l 49 977 l 341 977 "},"â€²":{"x_min":92,"x_max":263,"ha":346,"o":"m 206 972 q 245 955 227 972 q 263 918 263 939 q 256 897 263 906 l 127 727 q 113 717 119 717 q 98 722 104 717 q 92 736 92 728 q 94 748 92 740 l 167 948 q 182 965 171 959 q 206 972 193 972 "},"Ä­":{"x_min":1.375,"x_max":376.875,"ha":388,"o":"m 249 556 l 249 93 q 261 57 249 69 q 307 40 274 44 l 336 38 q 345 29 345 38 l 345 0 l 343 -1 q 194 -1 237 -1 l 47 -1 l 45 0 l 45 29 q 54 38 45 38 l 82 40 q 142 93 142 46 l 142 556 q 128 588 142 578 q 82 601 114 597 l 54 604 q 45 609 45 604 l 45 639 l 46 641 q 199 641 155 641 l 343 641 l 345 639 l 345 610 q 336 604 345 604 l 307 601 q 262 588 275 598 q 249 556 249 577 m 38 915 q 82 823 38 860 q 189 787 126 787 q 290 821 243 787 q 338 915 338 855 l 376 895 q 352 807 372 845 q 303 748 332 769 q 246 718 275 728 q 189 708 217 708 q 59 760 110 708 q 1 895 8 812 l 38 915 "},"8":{"x_min":62,"x_max":551,"ha":611,"o":"m 309 770 q 220 732 253 770 q 187 645 187 695 q 192 602 187 621 q 218 555 197 583 q 279 502 239 527 l 319 478 q 352 505 336 490 q 388 541 368 519 q 420 588 408 562 q 432 639 432 613 q 400 730 432 690 q 309 770 369 770 m 518 637 q 503 578 518 607 q 463 524 489 549 q 417 482 438 498 q 368 447 396 466 l 448 394 q 551 212 551 326 q 535 134 551 173 q 488 61 519 95 q 408 7 458 28 q 296 -14 358 -14 q 125 39 189 -14 q 62 191 62 92 q 138 349 62 282 q 234 429 197 400 l 210 442 q 122 523 150 480 q 94 620 94 565 q 155 750 94 698 q 316 803 217 803 q 464 756 410 803 q 518 637 518 710 m 299 25 q 338 28 318 25 q 381 43 358 32 q 420 72 403 54 q 447 118 436 89 q 459 185 459 147 q 343 360 459 290 l 282 398 q 213 340 242 372 q 172 280 185 309 q 153 230 158 252 q 148 191 148 209 q 162 116 148 149 q 201 63 177 82 q 249 34 224 44 q 299 25 275 25 "},"R":{"x_min":24,"x_max":814.3125,"ha":804,"o":"m 378 861 q 284 845 308 861 q 260 797 260 829 l 260 451 l 329 451 q 406 456 372 451 q 471 476 439 462 q 523 513 503 490 q 556 574 544 536 q 569 663 569 612 q 551 763 569 722 q 504 824 534 804 q 444 852 475 844 q 378 861 414 861 m 376 908 q 514 894 456 908 q 617 838 571 880 q 691 665 691 768 q 677 586 691 623 q 643 523 663 549 q 597 477 623 498 q 548 445 570 456 q 505 427 526 433 l 681 136 q 742 55 713 82 q 814 29 771 29 l 814 -4 q 756 -14 795 -14 q 574 109 650 -14 l 425 350 q 374 391 408 378 q 260 404 340 404 l 260 95 q 276 52 260 65 q 335 39 293 39 l 372 39 q 383 27 383 39 l 383 0 l 380 -2 q 205 -2 260 -2 l 26 -2 l 24 0 l 24 27 q 34 39 24 39 l 70 39 q 130 52 113 39 q 147 95 147 66 l 147 799 q 128 843 147 829 q 86 857 109 857 l 32 857 q 24 865 24 857 l 24 896 l 26 897 q 202 897 138 897 q 292 902 224 897 q 376 908 360 908 "},"Å¥":{"x_min":33.265625,"x_max":645.484375,"ha":679,"o":"m 315 706 q 174 887 263 790 l 202 904 q 349 779 299 833 q 499 904 400 832 l 526 887 q 384 706 431 779 l 315 706 m 502 592 l 451 592 q 411 582 422 592 q 400 547 400 572 l 400 85 q 413 53 400 63 q 459 40 426 44 l 487 38 q 493 35 490 38 q 497 29 497 32 l 497 0 l 494 -1 q 344 -1 385 -1 l 198 -1 l 197 0 l 197 29 q 205 38 197 38 l 233 40 q 279 54 265 44 q 293 85 293 65 l 293 549 q 281 582 293 572 q 240 592 269 592 l 177 592 q 112 566 132 592 q 70 464 92 541 l 33 468 q 44 659 44 533 l 79 659 q 91 645 81 651 q 116 639 101 639 l 562 639 q 587 645 577 639 q 600 659 598 651 l 634 659 q 645 468 634 544 l 608 464 q 566 566 586 541 q 502 592 546 592 "},"Ä½":{"x_min":24,"x_max":701.5,"ha":731,"o":"m 485 54 q 552 68 523 54 q 602 108 582 82 q 635 164 622 135 q 660 236 648 194 l 701 229 q 668 -1 668 83 q 499 -1 537 -1 l 204 -1 l 26 -1 l 24 0 l 24 28 q 34 40 24 40 l 76 40 q 133 50 119 40 q 147 96 147 61 l 147 800 q 130 843 147 830 q 71 856 113 856 l 34 856 q 24 867 24 856 l 24 896 l 26 897 q 201 897 147 897 l 380 897 l 383 896 l 383 867 q 372 856 383 856 l 336 856 q 276 843 293 856 q 260 800 260 830 l 260 123 q 277 72 260 91 q 325 54 295 54 l 485 54 m 555 971 q 616 939 593 971 q 639 868 639 908 q 635 839 639 855 q 623 802 632 823 q 598 764 613 781 q 555 734 583 747 q 491 722 527 722 l 485 745 q 548 782 526 753 q 570 840 570 812 q 565 858 570 851 q 554 866 561 866 q 490 923 490 866 q 505 957 490 943 q 555 971 520 971 "},"Å»":{"x_min":57,"x_max":803.171875,"ha":838,"o":"m 765 -1 q 588 -1 626 -1 l 83 -1 q 57 20 57 -1 q 67 53 57 37 l 608 805 q 619 830 619 819 q 605 841 619 841 l 284 841 q 230 832 254 841 q 192 811 207 823 q 164 774 177 798 q 143 730 151 750 q 125 675 136 710 l 84 682 q 111 915 111 799 q 163 905 135 913 q 227 897 191 897 l 673 897 q 725 904 696 899 q 761 910 753 910 q 786 907 780 910 q 793 897 793 904 q 759 821 793 868 l 238 100 q 228 72 228 80 q 262 55 228 55 l 586 55 q 653 68 624 55 q 702 108 682 82 q 735 165 722 135 q 759 236 748 195 l 803 229 q 765 -1 776 115 m 364 1042 q 383 1089 364 1070 q 430 1109 402 1109 q 477 1089 457 1109 q 497 1042 497 1070 q 477 996 497 1015 q 430 977 457 977 q 383 996 402 977 q 364 1042 364 1015 "},"o":{"x_min":52,"x_max":721.28125,"ha":771,"o":"m 375 610 q 298 591 335 610 q 232 538 262 572 q 184 448 202 504 q 167 325 167 392 q 232 113 167 196 q 397 30 296 30 q 548 105 491 30 q 606 307 606 180 q 538 526 606 442 q 375 610 471 610 m 721 326 q 698 196 721 257 q 634 87 676 135 q 526 11 593 39 q 376 -17 459 -17 q 144 74 236 -17 q 52 308 52 166 q 147 560 52 461 q 387 659 242 659 q 553 617 477 659 q 675 499 629 576 q 721 326 721 422 "},"5":{"x_min":71,"x_max":532,"ha":611,"o":"m 426 234 q 380 393 426 337 q 267 449 335 449 q 100 416 178 449 l 144 796 q 286 789 217 789 q 502 803 382 789 l 511 799 l 490 707 q 353 701 423 701 q 195 712 286 701 l 168 493 q 301 514 225 514 q 425 476 372 514 q 505 380 479 438 q 532 258 532 323 q 457 63 532 140 q 265 -14 382 -14 q 180 -1 224 -14 q 103 35 135 11 q 71 84 71 58 q 84 116 71 103 q 118 129 98 129 q 180 86 149 129 q 218 46 199 60 q 268 33 238 33 q 381 88 336 33 q 426 234 426 144 "},"Ä§":{"x_min":45,"x_max":777,"ha":820,"o":"m 573 85 l 573 306 l 249 306 l 249 85 q 261 53 249 63 q 307 40 274 44 l 336 38 q 342 35 339 38 q 345 29 345 33 l 345 0 l 343 -1 q 194 -1 236 -1 l 47 -1 l 45 0 l 45 29 q 54 38 45 38 l 82 40 q 129 53 116 44 q 142 85 142 63 l 142 482 l 56 482 l 56 526 l 142 526 l 142 557 q 129 589 142 580 q 82 601 116 598 l 54 604 q 45 612 45 604 l 45 639 l 47 641 q 194 641 151 641 l 343 641 l 345 639 l 345 612 q 336 604 345 604 l 307 601 q 262 588 275 598 q 249 557 249 579 l 249 526 l 573 526 l 573 557 q 559 588 573 579 q 513 601 545 598 l 485 604 q 475 612 475 604 l 475 639 l 479 641 q 624 641 581 641 l 773 641 l 775 639 l 775 612 q 766 604 775 604 l 739 600 q 692 589 705 600 q 679 558 679 579 l 679 526 l 769 526 l 769 482 l 679 482 l 679 85 q 692 53 679 63 q 739 40 705 44 l 766 38 q 777 29 777 38 l 777 0 l 773 -1 q 622 -1 664 -1 l 479 -1 l 477 0 l 477 29 q 485 38 477 38 l 513 40 q 558 54 544 44 q 573 85 573 65 m 573 482 l 249 482 l 249 349 l 573 349 l 573 482 "},"Ãµ":{"x_min":52,"x_max":721.28125,"ha":771,"o":"m 375 610 q 298 591 335 610 q 232 538 262 572 q 184 448 202 504 q 167 325 167 392 q 232 113 167 196 q 397 30 296 30 q 548 105 491 30 q 606 307 606 180 q 538 526 606 442 q 375 610 471 610 m 721 326 q 698 196 721 257 q 634 87 676 135 q 526 11 593 39 q 376 -17 459 -17 q 144 74 236 -17 q 52 308 52 166 q 147 560 52 461 q 387 659 242 659 q 553 617 477 659 q 675 499 629 576 q 721 326 721 422 m 471 793 q 511 808 495 793 q 540 865 526 823 l 574 857 q 453 732 548 732 q 364 768 418 732 q 289 799 313 799 q 247 783 262 799 q 221 732 231 767 l 187 739 q 228 832 202 802 q 298 863 255 863 q 399 823 343 863 q 471 793 441 793 "},"ï¿½":{"x_min":83.65625,"x_max":1388.46875,"ha":1470,"o":"m 83 408 l 734 1062 l 1388 405 l 736 -245 l 83 408 m 724 140 q 743 153 743 140 l 743 214 q 769 316 743 266 q 840 384 784 345 q 939 477 901 429 q 987 608 987 534 q 971 695 987 660 q 919 763 956 729 q 758 817 862 817 q 586 763 649 817 q 517 637 517 703 q 529 595 517 610 q 574 579 548 579 q 614 594 599 579 q 628 627 628 605 q 615 667 628 652 q 610 695 610 678 q 616 720 611 710 q 636 743 620 729 q 745 776 676 776 q 859 699 818 776 q 885 602 885 648 q 864 517 885 555 q 801 441 844 479 q 758 394 787 431 q 714 306 724 353 q 710 218 710 287 l 710 153 q 724 140 710 140 m 678 2 q 660 -44 660 -16 q 678 -91 660 -72 q 727 -111 700 -111 q 776 -91 756 -111 q 796 -44 796 -69 q 776 2 796 -18 q 727 25 753 25 q 678 2 699 25 "},",":{"x_min":60.375,"x_max":236,"ha":305,"o":"m 144 132 q 210 94 185 132 q 236 -5 236 56 q 186 -123 236 -75 q 69 -184 136 -172 q 62 -150 55 -173 q 147 -102 112 -138 q 182 -40 182 -66 q 132 2 182 -3 q 70 63 70 12 q 91 112 70 93 q 144 132 112 132 "},"d":{"x_min":45,"x_max":723,"ha":779,"o":"m 45 29 q 53 37 45 37 l 85 40 q 128 56 116 43 q 141 101 141 69 l 141 556 q 130 590 141 582 q 85 601 120 597 l 54 604 q 45 610 45 604 l 45 639 l 46 641 l 182 641 q 376 641 330 641 q 518 615 453 641 q 628 546 583 590 q 697 441 672 502 q 723 313 723 381 q 703 187 723 242 q 652 97 684 132 q 577 39 621 62 q 489 8 534 17 q 396 -1 445 -1 q 262 -1 332 -1 q 182 -1 193 -1 l 46 -1 l 45 0 l 45 29 m 248 98 q 249 77 248 85 q 258 60 251 68 q 277 46 264 51 q 310 39 289 42 q 363 36 332 36 q 547 93 485 36 q 610 289 610 150 q 336 604 610 604 q 269 596 290 604 q 248 564 248 589 l 248 98 "},"\"":{"x_min":87,"x_max":381,"ha":466,"o":"m 122 591 q 87 825 87 812 q 107 872 87 850 q 157 895 128 895 q 194 881 182 895 q 206 848 206 867 q 194 776 206 839 q 172 655 183 713 l 160 597 l 122 591 m 297 592 q 262 826 262 813 q 282 873 262 851 q 332 896 303 896 q 369 882 358 896 q 381 849 381 868 q 369 777 381 840 q 347 656 358 715 l 335 599 l 297 592 "},"Ãª":{"x_min":45,"x_max":579.125,"ha":630,"o":"m 544 641 q 562 472 544 569 l 528 468 q 514 509 521 492 q 492 548 506 527 q 454 580 477 568 q 399 592 430 592 l 288 592 q 257 585 266 592 q 248 562 248 579 l 248 357 l 351 357 q 390 367 379 357 q 406 401 401 378 l 414 431 q 422 438 414 438 l 445 438 q 449 433 449 438 q 440 330 440 354 q 449 234 440 317 l 445 232 l 423 232 q 413 238 413 232 l 406 269 q 389 302 402 291 q 351 313 377 313 l 248 313 l 248 81 q 257 55 248 62 q 288 48 267 48 l 407 48 q 495 80 465 48 q 545 173 525 112 l 579 169 q 552 -1 552 70 l 183 -1 l 46 -1 l 45 0 l 45 31 q 53 37 45 37 l 85 40 q 129 53 117 43 q 141 84 141 62 l 141 558 q 128 590 141 581 q 85 599 115 599 l 53 603 q 45 609 45 604 l 45 639 l 46 641 l 184 641 l 285 641 l 544 641 m 375 903 q 515 724 420 829 l 486 704 q 339 830 386 780 q 191 704 281 770 l 163 724 q 306 903 264 839 l 375 903 "},"â€³":{"x_min":45,"x_max":399,"ha":451,"o":"m 342 974 q 381 957 363 974 q 399 921 399 941 q 392 900 399 909 l 263 730 q 249 720 255 720 q 234 726 240 720 q 228 739 228 732 q 230 751 228 743 l 302 950 q 318 967 307 961 q 342 974 329 974 m 158 972 q 197 955 179 972 q 215 919 215 939 q 208 897 215 906 l 80 728 q 65 717 72 717 q 51 722 57 717 q 45 736 45 728 q 47 749 45 740 l 119 948 q 134 965 123 959 q 158 972 145 972 "},"â€ž":{"x_min":61.375,"x_max":455,"ha":520,"o":"m 363 139 q 429 101 404 139 q 455 1 455 63 q 405 -116 455 -68 q 288 -177 355 -165 q 281 -143 274 -166 q 366 -94 331 -130 q 401 -33 401 -58 q 387 -2 401 -11 q 350 9 373 6 q 289 70 289 19 q 310 119 289 100 q 363 139 331 139 m 145 139 q 211 101 186 139 q 237 1 237 63 q 187 -116 237 -68 q 70 -177 137 -165 q 63 -143 56 -166 q 148 -94 113 -130 q 183 -33 183 -58 q 133 9 183 4 q 71 70 71 19 q 92 119 71 100 q 145 139 113 139 "},"Ä¾":{"x_min":45,"x_max":555,"ha":598,"o":"m 471 765 q 532 734 509 765 q 555 663 555 703 q 551 634 555 650 q 539 597 548 618 q 514 559 529 576 q 471 529 499 542 q 407 517 443 517 l 401 540 q 463 577 441 548 q 485 635 485 607 q 469 661 485 661 q 406 718 406 661 q 421 751 406 737 q 471 765 437 765 m 384 48 q 437 57 415 48 q 475 85 460 66 q 500 124 491 104 q 519 174 510 144 l 555 170 q 527 -1 527 64 l 184 -1 q 169 -1 180 -1 q 126 -1 158 -1 q 46 -1 94 -1 l 45 0 l 45 29 q 53 37 45 37 l 85 40 q 130 52 118 43 q 142 86 142 61 l 142 556 q 128 588 142 578 q 82 601 114 597 l 54 604 q 45 612 45 604 l 45 639 l 46 641 q 199 641 155 641 l 343 641 l 345 639 l 345 612 q 336 604 345 604 l 307 601 q 261 588 274 598 q 249 556 249 577 l 249 82 q 258 55 249 63 q 287 48 268 48 l 384 48 "},"â€¤":{"x_min":79,"x_max":226,"ha":305,"o":"m 100 7 q 79 59 79 29 q 100 110 79 88 q 152 133 122 133 q 204 110 182 133 q 226 59 226 88 q 204 7 226 29 q 152 -14 182 -14 q 100 7 122 -14 "},"Ã‚":{"x_min":3,"x_max":958,"ha":965,"o":"m 365 394 l 607 394 l 470 765 l 469 765 l 330 411 q 336 398 326 402 q 365 394 346 394 m 210 109 q 214 62 200 82 q 266 39 229 42 l 307 39 q 318 27 318 39 l 318 0 l 315 -1 q 131 -1 164 -1 l 5 -1 l 3 0 l 3 27 q 13 39 3 39 q 93 59 64 39 q 148 142 121 79 l 457 865 q 479 901 466 886 q 505 915 493 915 q 524 905 516 915 q 541 873 532 895 l 826 119 q 863 61 840 79 q 928 39 886 43 l 944 37 q 958 26 958 37 l 958 0 l 953 -1 q 792 -1 846 -1 l 608 -1 l 607 0 l 607 27 q 616 39 607 39 l 655 39 q 710 56 695 42 q 714 99 724 70 l 629 336 l 340 336 q 306 330 316 336 q 291 312 297 325 l 210 109 m 526 1119 q 666 988 585 1048 l 644 959 q 497 1045 560 998 q 348 959 426 993 l 328 988 q 466 1119 389 1034 l 526 1119 "},"Ä®":{"x_min":24,"x_max":391.8125,"ha":407,"o":"m 238 -313 q 146 -281 182 -313 q 110 -194 110 -249 q 149 -88 110 -143 q 251 -1 188 -33 l 204 -1 q 27 -1 95 -1 l 25 0 l 25 28 q 34 40 25 40 l 71 40 q 131 52 115 40 q 147 95 147 65 l 147 800 q 130 843 147 831 q 71 856 113 856 l 34 856 q 24 867 24 856 l 24 896 l 26 897 q 202 897 95 897 q 380 897 312 897 l 383 896 l 383 867 q 372 856 383 856 l 336 856 q 277 842 294 856 q 260 800 260 829 l 260 95 q 276 52 260 64 q 336 40 293 40 l 372 40 q 383 28 383 40 l 383 0 l 380 -4 l 364 -4 q 294 -22 327 -4 q 239 -66 261 -40 q 205 -121 218 -92 q 193 -176 193 -150 q 215 -235 193 -211 q 273 -259 237 -259 q 370 -208 325 -259 l 391 -220 q 324 -289 368 -265 q 238 -313 280 -313 "},"Ä—":{"x_min":45,"x_max":579.125,"ha":630,"o":"m 290 794 q 309 842 290 823 q 356 862 328 862 q 404 842 384 862 q 424 794 424 823 q 404 748 424 767 q 356 730 384 730 q 309 748 328 730 q 290 794 290 767 m 544 641 q 562 472 544 569 l 528 468 q 514 509 521 492 q 492 548 506 527 q 454 580 477 568 q 399 592 430 592 l 288 592 q 257 585 266 592 q 248 562 248 579 l 248 357 l 351 357 q 390 367 379 357 q 406 401 401 378 l 414 431 q 422 438 414 438 l 445 438 q 449 433 449 438 q 440 330 440 354 q 449 234 440 317 l 445 232 l 423 232 q 413 238 413 232 l 406 269 q 389 302 402 291 q 351 313 377 313 l 248 313 l 248 81 q 257 55 248 62 q 288 48 267 48 l 407 48 q 495 80 465 48 q 545 173 525 112 l 579 169 q 552 -1 552 70 l 183 -1 l 46 -1 l 45 0 l 45 31 q 53 37 45 37 l 85 40 q 129 53 117 43 q 141 84 141 62 l 141 558 q 128 590 141 581 q 85 599 115 599 l 53 603 q 45 609 45 604 l 45 639 l 46 641 l 184 641 l 285 641 l 544 641 "},"Å¢":{"x_min":9.90625,"x_max":779.3125,"ha":787,"o":"m 107 896 l 694 896 q 725 927 725 896 l 761 933 q 779 720 761 838 l 737 713 q 721 779 727 758 q 702 816 714 800 q 673 837 690 833 q 628 842 657 842 l 536 842 q 484 830 498 842 q 470 783 470 818 l 470 96 q 487 52 470 65 q 546 40 504 40 l 582 40 q 595 28 595 40 l 595 0 l 591 -1 q 449 -1 509 -1 l 423 -65 q 458 -61 439 -61 q 529 -84 501 -61 q 557 -147 557 -108 q 514 -218 557 -191 q 408 -246 472 -246 q 306 -222 359 -246 l 319 -192 q 400 -211 371 -211 q 459 -196 434 -211 q 484 -154 484 -181 q 467 -119 484 -132 q 425 -106 450 -106 q 363 -114 389 -106 l 354 -106 l 401 -1 l 237 -1 l 235 0 l 235 28 q 245 40 235 40 l 282 40 q 341 53 325 40 q 357 96 357 66 l 357 787 q 342 831 357 819 q 289 842 328 842 l 173 842 q 94 819 116 842 q 51 713 72 796 l 9 720 q 35 933 35 809 l 78 927 q 107 896 78 896 "},"Ã�":{"x_min":24,"x_max":383,"ha":407,"o":"m 260 800 l 260 95 q 276 52 260 64 q 336 40 293 40 l 372 40 q 383 28 383 40 l 383 0 l 380 -1 q 204 -1 314 -1 q 27 -1 96 -1 l 25 0 l 25 28 q 34 40 25 40 l 71 40 q 131 52 115 40 q 147 95 147 65 l 147 800 q 130 843 147 831 q 71 856 113 856 l 34 856 q 24 867 24 856 l 24 896 l 26 897 q 202 897 95 897 q 380 897 312 897 l 383 896 l 383 867 q 372 856 383 856 l 336 856 q 277 842 294 856 q 260 800 260 829 m 291 1138 l 377 1066 l 178 985 q 118 969 137 969 q 99 990 99 969 q 119 1019 99 1004 l 291 1138 "},"Â´":{"x_min":123,"x_max":342.734375,"ha":473,"o":"m 242 977 q 262 980 251 980 q 329 954 301 980 q 338 948 337 948 l 342 932 l 182 780 q 142 753 155 753 q 129 758 135 753 q 123 770 123 763 q 131 801 123 787 l 242 977 "},"Ãš":{"x_min":0,"x_max":918,"ha":917,"o":"m 445 -14 q 364 -6 404 -14 q 279 25 323 1 q 201 84 234 48 q 146 183 168 121 q 124 327 124 246 l 124 794 q 107 841 124 826 q 49 856 90 856 l 10 856 q 0 867 0 856 l 0 896 l 2 897 q 177 897 123 897 l 356 897 l 359 896 l 359 867 q 348 856 359 856 l 312 856 q 254 841 271 856 q 237 797 237 827 l 237 374 q 237 318 237 337 q 240 265 237 299 q 251 209 244 231 q 273 159 258 186 q 309 112 288 133 q 475 42 381 42 q 553 50 518 42 q 615 74 589 58 q 659 109 640 89 q 691 155 679 128 q 712 208 704 182 q 724 266 720 233 q 729 325 729 299 q 729 385 729 352 l 729 794 q 712 841 729 827 q 655 856 696 856 l 617 856 q 607 867 607 856 l 607 896 l 609 897 q 762 897 707 897 l 915 897 l 918 896 l 918 867 q 906 856 918 856 l 870 856 q 811 839 828 856 q 794 792 794 822 l 794 409 q 785 270 794 330 q 753 154 776 209 q 691 63 729 99 q 591 6 653 27 q 445 -14 529 -14 m 562 1137 l 648 1065 l 449 984 q 388 968 407 968 q 370 989 370 968 q 390 1018 370 1003 l 562 1137 "},"â€·":{"x_min":77,"x_max":621,"ha":695,"o":"m 470 974 q 496 981 480 981 q 517 976 507 981 q 533 958 529 968 l 620 756 q 620 754 620 755 q 621 752 621 752 q 615 741 621 746 q 602 735 610 735 q 590 739 594 735 l 450 909 q 443 928 443 919 q 470 974 443 953 m 278 976 q 303 984 286 984 q 324 979 313 984 q 341 961 336 970 l 427 758 q 427 756 427 758 q 428 754 428 755 q 422 744 428 749 q 408 738 415 738 q 397 742 402 738 l 257 913 q 251 930 251 922 q 278 976 251 957 m 104 976 q 129 984 113 984 q 150 979 140 984 q 167 961 163 970 l 253 758 q 254 756 253 758 q 255 754 255 755 q 249 744 255 749 q 235 738 242 738 q 224 742 229 738 l 83 913 q 77 930 77 922 q 104 976 77 957 "},"â€‰":{"x_min":0,"x_max":0,"ha":174},"Å¶":{"x_min":0,"x_max":799,"ha":797,"o":"m 353 100 l 353 360 q 340 419 353 401 l 138 760 q 84 837 102 819 q 30 858 66 855 l 13 858 q 0 868 0 858 l 0 896 l 1 897 q 148 897 130 897 l 308 897 l 310 896 l 310 869 q 301 858 310 858 l 261 858 q 238 855 246 858 q 227 848 230 852 q 226 836 224 845 q 231 821 228 828 q 242 801 235 815 l 433 466 l 436 466 l 613 801 q 624 846 629 834 q 594 858 618 858 l 552 858 q 546 867 546 858 l 546 896 l 547 898 q 674 898 657 898 l 796 898 l 799 896 l 799 868 q 784 859 799 862 l 755 857 q 716 845 732 855 q 691 823 699 834 q 669 785 684 812 l 473 431 q 464 373 464 409 l 464 100 q 481 52 464 67 q 540 38 499 38 l 577 38 q 588 27 588 38 l 588 0 l 585 -1 q 411 -1 465 -1 l 231 -1 l 229 0 l 229 27 q 239 38 229 38 l 276 38 q 335 53 317 38 q 353 100 353 69 m 436 1119 q 576 988 495 1049 l 554 959 q 407 1045 470 999 q 258 959 336 994 l 238 988 q 376 1119 299 1035 l 436 1119 "},"Å�":{"x_min":54.4375,"x_max":492,"ha":544,"o":"m 302 911 q 442 732 347 839 l 413 713 q 266 838 317 784 q 117 713 204 773 l 90 732 q 233 911 191 844 l 302 911 m 446 623 q 459 471 459 551 l 425 471 q 367 576 409 536 q 275 617 326 617 q 193 588 222 617 q 164 513 164 559 q 174 474 164 494 q 201 439 185 454 q 236 410 216 424 q 271 388 256 397 q 298 375 286 380 q 345 354 325 363 q 395 325 365 344 q 444 287 425 306 q 477 239 463 268 q 492 179 492 210 q 436 37 492 92 q 290 -17 381 -17 q 172 -5 226 -17 q 115 7 118 7 q 91 3 105 7 q 69 -1 76 0 q 54 196 69 63 l 92 196 q 156 66 110 109 q 265 24 202 24 q 383 148 383 24 q 373 199 383 177 q 340 240 363 221 q 295 271 318 258 q 233 302 272 284 q 68 487 68 379 q 99 582 68 542 q 177 640 131 622 q 273 659 222 659 q 357 649 322 659 q 414 631 393 640 q 446 623 434 623 "},"Ã�":{"x_min":0,"x_max":799,"ha":797,"o":"m 353 100 l 353 360 q 340 419 353 401 l 138 760 q 84 837 102 819 q 30 858 66 855 l 13 858 q 0 868 0 858 l 0 896 l 1 897 q 148 897 130 897 l 308 897 l 310 896 l 310 869 q 300 858 310 858 l 260 858 q 238 855 246 858 q 227 848 230 852 q 226 836 224 845 q 231 821 228 828 q 242 801 235 815 l 433 466 l 436 466 l 613 801 q 624 846 629 834 q 594 858 618 858 l 552 858 q 546 867 546 858 l 546 896 l 547 898 q 674 898 657 898 l 796 898 l 799 896 l 799 868 q 784 859 799 862 l 755 857 q 716 845 732 855 q 691 823 699 834 q 669 785 684 812 l 473 431 q 464 373 464 409 l 464 100 q 481 52 464 67 q 540 38 499 38 l 577 38 q 588 27 588 38 l 588 0 l 585 -1 q 411 -1 465 -1 l 231 -1 l 229 0 l 229 27 q 239 38 229 38 l 276 38 q 335 53 317 38 q 353 100 353 69 m 499 1140 l 585 1068 l 385 987 q 325 971 346 971 q 307 991 307 971 q 327 1020 307 1006 l 499 1140 "},"Äˆ":{"x_min":52,"x_max":846.390625,"ha":895,"o":"m 493 -14 q 333 11 406 -14 q 209 80 260 36 q 121 181 157 123 q 68 304 85 239 q 52 437 52 369 q 88 627 52 538 q 187 779 125 717 q 328 878 248 842 q 495 915 409 915 q 603 905 553 915 q 681 885 653 896 q 742 862 710 873 q 803 852 774 852 q 830 636 803 754 l 788 630 q 480 863 718 863 q 405 849 445 863 q 324 803 366 835 q 249 726 282 771 q 194 613 215 681 q 173 463 173 544 q 185 341 173 401 q 223 227 197 281 q 286 131 249 173 q 376 66 323 90 q 492 42 430 42 q 665 77 589 42 q 814 194 741 113 l 846 173 q 685 33 775 80 q 493 -14 595 -14 m 525 1120 q 666 989 584 1050 l 643 960 q 496 1046 559 999 q 347 960 425 995 l 328 989 q 465 1120 392 1037 l 525 1120 "},"â€ƒ":{"x_min":0,"x_max":0,"ha":1050},"Ä…":{"x_min":3,"x_max":745,"ha":747,"o":"m 223 227 l 163 81 q 157 62 157 65 q 170 43 157 49 q 213 38 184 38 l 231 38 q 237 35 234 38 q 240 29 240 33 l 240 0 l 237 -2 q 95 -2 122 -2 l 5 -2 l 3 0 l 3 28 q 5 34 3 32 q 11 37 8 37 q 45 43 32 39 q 73 60 58 47 q 100 96 89 73 l 345 622 q 365 648 351 638 q 389 658 379 658 q 444 623 430 658 l 647 105 q 681 52 664 65 q 733 37 698 40 q 745 28 745 35 l 745 0 l 740 -3 q 681 -3 713 -3 q 561 -65 609 -9 q 513 -176 513 -121 q 535 -234 513 -210 q 593 -258 557 -258 q 689 -207 643 -258 l 710 -219 q 644 -288 688 -264 q 558 -312 599 -312 q 465 -280 501 -312 q 430 -194 430 -248 q 467 -90 430 -143 q 565 -2 504 -36 l 469 -2 l 467 0 l 467 28 q 476 37 467 37 l 501 39 q 543 48 530 43 q 557 65 557 53 q 554 81 557 70 l 492 242 l 254 242 q 223 227 227 242 m 475 283 l 366 557 l 364 557 l 259 302 q 260 293 259 296 q 267 286 261 290 q 286 283 273 283 l 475 283 "},"â±ª":{"x_min":40,"x_max":778.125,"ha":801,"o":"m 594 0 q 310 308 310 307 l 242 254 l 242 82 q 255 49 242 59 q 299 39 268 39 l 329 39 q 335 36 332 39 q 338 30 338 34 l 338 1 l 336 0 q 183 0 227 0 l 43 0 l 42 1 l 42 30 q 50 39 42 39 l 79 39 q 138 82 138 39 l 138 559 q 124 593 138 583 q 79 603 110 603 l 50 603 q 40 611 40 603 l 40 638 l 43 640 q 179 640 138 640 l 336 640 l 338 638 l 338 611 q 329 603 338 603 l 299 603 q 242 559 242 603 l 242 319 l 531 540 q 558 569 550 555 q 557 593 565 583 q 524 603 548 603 l 511 603 q 501 611 501 603 l 501 638 l 503 640 q 642 640 600 640 l 755 640 l 757 638 l 757 611 q 750 603 757 603 q 585 521 694 603 l 388 370 l 663 82 q 702 46 690 53 q 731 39 713 39 q 778 10 778 39 l 778 -178 l 746 -178 q 738 -143 741 -156 q 728 -109 735 -131 q 714 -75 721 -88 q 695 -46 707 -62 q 670 -21 683 -30 q 637 -6 656 -12 q 594 0 617 0 "},"â€‹":{"x_min":0,"x_max":0,"ha":0},"Ã–":{"x_min":52,"x_max":920,"ha":970,"o":"m 171 911 q 152 955 152 929 q 171 999 152 981 q 215 1018 190 1018 q 260 999 242 1018 q 279 955 279 981 q 260 911 279 929 q 215 893 242 893 q 171 911 190 893 m 705 907 q 687 951 687 925 q 705 995 687 977 q 749 1014 723 1014 q 793 995 775 1014 q 812 951 812 977 q 793 907 812 925 q 749 889 775 889 q 705 907 723 889 m 464 867 q 383 852 422 867 q 305 805 343 837 q 240 725 268 772 q 194 608 211 679 q 178 454 178 538 q 206 276 178 357 q 282 142 234 195 q 389 61 329 90 q 511 33 448 33 q 712 140 633 33 q 792 430 792 248 q 703 754 792 642 q 464 867 615 867 m 920 457 q 800 116 920 246 q 483 -14 681 -14 q 266 39 363 -14 q 110 194 168 92 q 52 430 52 296 q 107 675 52 564 q 261 850 162 786 q 482 914 360 914 q 656 881 575 914 q 795 788 736 848 q 886 644 853 729 q 920 457 920 558 "},"z":{"x_min":47,"x_max":581.4375,"ha":632,"o":"m 147 640 l 472 640 q 545 648 520 648 q 576 635 576 648 q 549 585 576 621 l 205 82 q 197 61 197 69 q 224 47 197 47 l 389 47 q 472 72 445 47 q 525 158 499 97 l 544 198 l 581 189 q 537 0 546 69 l 67 0 q 47 13 47 0 q 56 37 47 23 l 421 562 q 431 582 431 578 q 418 592 431 592 l 208 592 q 143 561 175 592 q 92 461 112 530 l 56 465 q 76 654 76 572 q 82 659 76 659 q 105 648 89 657 q 147 640 122 640 "},"â±¶":{"x_min":40,"x_max":531.609375,"ha":582,"o":"m 138 497 q 124 544 138 529 q 78 559 110 559 l 51 559 q 40 570 40 559 l 40 596 l 42 598 q 185 598 138 598 l 336 598 l 339 596 l 339 570 q 326 559 339 559 l 299 559 q 253 543 267 559 q 240 497 240 528 l 240 343 l 387 343 q 435 358 421 343 q 458 406 450 373 l 466 446 q 477 459 468 459 l 526 459 q 530 452 530 459 q 526 392 530 437 q 522 319 522 346 q 522 277 522 298 q 526 228 522 255 q 531 186 530 200 l 528 182 l 478 182 q 465 192 467 182 l 458 234 q 436 281 451 267 q 387 296 421 296 l 240 296 l 240 100 q 253 53 240 68 q 299 39 267 39 l 326 39 q 339 28 339 39 l 339 1 l 336 0 q 185 0 240 0 l 42 0 l 40 1 l 40 28 q 51 39 40 39 l 78 39 q 124 53 111 39 q 138 100 138 68 l 138 497 "},"Å˜":{"x_min":24,"x_max":814.3125,"ha":804,"o":"m 378 861 q 284 845 308 861 q 260 797 260 829 l 260 451 l 329 451 q 406 456 372 451 q 471 476 439 462 q 523 513 503 490 q 556 574 544 536 q 569 663 569 612 q 551 763 569 722 q 504 824 534 804 q 444 852 475 844 q 378 861 414 861 m 376 908 q 514 894 456 908 q 617 838 571 880 q 691 665 691 768 q 677 586 691 623 q 643 523 663 549 q 597 477 623 498 q 548 445 570 456 q 505 427 526 433 l 681 136 q 742 55 713 82 q 814 29 771 29 l 814 -4 q 756 -14 795 -14 q 574 109 650 -14 l 425 350 q 374 391 408 378 q 260 404 340 404 l 260 95 q 276 52 260 65 q 335 39 293 39 l 372 39 q 383 27 383 39 l 383 0 l 380 -2 q 205 -2 260 -2 l 26 -2 l 24 0 l 24 27 q 34 39 24 39 l 70 39 q 130 52 113 39 q 147 95 147 66 l 147 799 q 128 843 147 829 q 86 857 109 857 l 32 857 q 24 865 24 857 l 24 896 l 26 897 q 202 897 138 897 q 292 902 224 897 q 376 908 360 908 m 339 968 q 198 1100 286 1033 l 221 1128 q 368 1043 303 1092 q 517 1128 445 1098 l 538 1100 q 398 968 468 1047 l 339 968 "},"Ã£":{"x_min":3,"x_max":745,"ha":747,"o":"m 223 228 l 163 82 q 157 63 157 66 q 170 44 157 50 q 213 39 184 39 l 231 39 q 237 36 234 39 q 240 30 240 34 l 240 0 l 237 -1 q 95 -1 122 -1 l 5 -1 l 3 0 l 3 29 q 5 35 3 33 q 11 38 8 38 q 45 44 32 40 q 73 61 58 48 q 100 97 89 74 l 345 623 q 365 649 351 639 q 389 659 378 659 q 444 624 430 659 l 647 106 q 681 53 664 66 q 733 38 698 41 q 745 29 745 36 l 745 0 l 740 -1 q 625 -1 666 -1 l 469 -1 l 467 0 l 467 29 q 476 38 467 38 l 501 40 q 543 49 530 44 q 557 66 557 54 q 554 82 557 71 l 492 243 l 254 243 q 223 228 227 243 m 475 284 l 366 558 l 364 558 l 259 303 q 260 294 259 297 q 267 287 261 291 q 286 284 273 284 l 475 284 m 492 794 q 531 809 516 794 q 561 866 547 824 l 595 858 q 473 733 569 733 q 385 769 439 733 q 310 800 333 800 q 268 784 283 800 q 241 733 252 768 l 208 740 q 249 833 223 803 q 319 864 276 864 q 419 824 365 864 q 492 794 461 794 "},"Å‡":{"x_min":16,"x_max":962,"ha":966,"o":"m 838 774 l 838 29 q 809 -10 838 -10 q 753 20 774 -10 l 268 632 q 221 678 232 678 q 210 662 213 678 q 207 610 207 647 l 207 121 q 225 64 207 87 q 283 39 244 42 l 320 39 q 331 27 331 39 l 331 0 l 328 -1 q 173 -1 229 -1 l 18 -1 l 16 0 l 16 26 q 33 39 16 36 l 69 39 q 127 67 109 43 q 145 122 145 90 l 145 764 q 110 825 138 794 q 50 859 82 856 q 27 870 27 862 l 27 894 l 31 898 l 219 898 l 696 282 q 757 210 746 217 q 765 206 762 206 q 774 215 772 206 q 776 248 776 224 l 776 775 q 758 831 776 808 q 700 858 740 854 l 664 858 q 651 861 658 858 q 645 869 645 864 l 645 896 l 650 897 q 805 897 754 897 l 959 897 l 962 896 l 962 869 q 951 858 962 858 l 913 858 q 856 831 874 854 q 838 774 838 808 m 460 969 q 320 1101 407 1034 l 342 1129 q 489 1044 424 1093 q 638 1129 569 1099 l 659 1101 q 520 969 589 1048 l 460 969 "},"Ã¦":{"x_min":7,"x_max":875.484375,"ha":960,"o":"m 701 48 q 790 80 759 48 q 838 172 820 113 l 875 168 q 847 -1 847 52 l 512 -1 l 375 -1 l 374 0 l 374 31 q 380 37 374 37 l 404 40 q 449 54 437 45 q 461 85 461 64 l 461 301 l 306 301 q 265 282 274 301 l 166 82 q 167 56 156 64 q 211 40 178 47 l 225 38 q 234 29 234 35 l 234 0 l 232 0 q 91 0 118 0 l 8 0 l 7 0 l 7 29 q 15 38 7 38 q 98 85 75 43 q 233 330 144 156 q 334 573 334 534 q 324 593 334 585 q 289 603 314 600 q 281 609 281 604 l 281 638 l 283 641 q 511 641 405 641 l 845 641 q 865 472 845 582 l 830 467 q 819 500 824 486 q 803 533 814 514 q 779 563 792 552 q 746 583 766 575 q 699 592 725 592 l 602 592 q 562 560 562 592 l 562 344 l 646 344 q 684 354 673 344 q 701 388 695 365 l 707 417 q 716 426 710 426 l 739 426 q 743 421 743 426 q 740 389 743 411 q 736 350 736 368 q 736 317 736 332 q 744 221 736 293 l 741 219 l 716 219 q 706 225 709 219 l 701 256 q 684 289 695 279 q 646 299 673 299 l 562 299 l 562 82 q 602 48 562 48 l 701 48 m 383 546 l 301 357 q 299 350 299 352 q 326 344 299 344 l 461 344 l 461 543 q 453 582 461 573 q 430 592 446 592 q 383 546 404 592 "},"Ä©":{"x_min":-3.828125,"x_max":382.296875,"ha":388,"o":"m 249 556 l 249 93 q 261 57 249 69 q 307 40 274 44 l 336 38 q 345 29 345 38 l 345 0 l 343 -1 q 194 -1 237 -1 l 47 -1 l 45 0 l 45 29 q 54 38 45 38 l 82 40 q 142 93 142 46 l 142 556 q 128 588 142 578 q 82 601 114 597 l 54 604 q 45 609 45 604 l 45 639 l 46 641 q 199 641 155 641 l 343 641 l 345 639 l 345 610 q 336 604 345 604 l 307 601 q 262 588 275 598 q 249 556 249 577 m 279 771 q 319 785 304 771 q 349 842 334 800 l 382 834 q 261 709 357 709 q 172 745 226 709 q 97 776 120 776 q 55 760 70 776 q 29 709 39 744 l -3 716 q 37 809 11 779 q 107 840 63 840 q 207 801 150 840 q 279 771 247 771 "},"Ã‰":{"x_min":17,"x_max":721.4375,"ha":761,"o":"m 617 897 q 630 811 619 888 q 647 696 642 735 l 607 689 q 588 742 596 722 q 568 783 581 762 q 540 815 555 805 q 501 833 524 826 q 448 841 478 841 l 302 841 q 264 831 276 841 q 253 796 253 821 l 253 502 l 428 502 q 479 515 464 502 q 497 560 494 529 l 502 595 q 504 602 502 599 q 511 606 507 606 l 539 606 q 545 600 545 606 q 545 481 545 526 l 545 354 l 543 350 l 510 350 q 501 353 504 350 q 498 359 498 356 l 498 396 q 482 438 498 426 q 430 450 466 450 l 253 450 l 253 100 q 265 64 253 74 q 302 55 277 55 l 491 55 q 678 236 628 55 l 721 229 l 669 -1 q 492 -1 558 -1 l 197 -1 l 19 -1 l 17 0 l 17 29 q 27 39 17 39 l 69 39 q 124 56 108 42 q 140 99 140 70 l 140 798 q 124 841 140 829 q 69 857 109 854 l 27 857 q 17 867 17 857 l 17 896 l 19 897 q 197 897 159 897 l 546 897 q 611 902 579 897 q 617 897 617 902 m 485 1140 l 571 1068 l 372 987 q 312 971 333 971 q 293 991 293 971 q 313 1020 293 1006 l 485 1140 "},"Å€":{"x_min":45,"x_max":554.734375,"ha":584,"o":"m 417 378 q 399 424 399 398 q 418 471 399 451 q 464 491 437 491 q 510 471 490 491 q 531 424 531 451 q 511 378 531 398 q 464 359 492 359 q 417 378 435 359 m 384 48 q 437 57 415 48 q 475 85 460 66 q 500 124 491 104 q 519 174 510 144 l 554 170 q 527 -1 527 64 l 184 -1 q 169 -1 180 -1 q 126 -1 158 -1 q 46 -1 94 -1 l 45 0 l 45 29 q 53 37 45 37 l 85 40 q 130 52 118 43 q 142 86 142 61 l 142 556 q 128 588 142 578 q 82 601 114 597 l 54 604 q 45 612 45 604 l 45 639 l 46 641 q 199 641 155 641 l 343 641 l 345 639 l 345 612 q 336 604 345 604 l 307 601 q 261 588 274 598 q 249 556 249 577 l 249 82 q 258 55 249 63 q 287 48 267 48 l 384 48 "},"~":{"x_min":35.9375,"x_max":579.15625,"ha":623,"o":"m 35 290 q 101 414 50 361 q 213 468 151 468 q 263 453 234 468 q 316 422 292 439 q 368 392 339 406 q 417 378 396 378 q 494 400 453 378 q 555 470 534 423 l 579 462 q 540 374 564 410 q 491 323 516 338 q 447 301 465 307 q 412 296 428 296 q 359 310 388 296 q 308 341 330 324 q 257 371 286 357 q 205 386 229 386 q 122 358 166 386 q 54 286 77 330 l 35 290 "},"ÄŠ":{"x_min":52,"x_max":846.390625,"ha":895,"o":"m 493 -14 q 333 11 406 -14 q 209 80 260 36 q 121 181 157 123 q 68 304 85 239 q 52 437 52 369 q 88 627 52 538 q 187 779 125 717 q 328 878 248 842 q 495 915 409 915 q 603 905 553 915 q 681 885 653 896 q 742 862 710 873 q 803 852 774 852 q 830 636 803 754 l 788 630 q 480 863 718 863 q 405 849 445 863 q 324 803 366 835 q 249 726 282 771 q 194 613 215 681 q 173 463 173 544 q 185 341 173 401 q 223 227 197 281 q 286 131 249 173 q 376 66 323 90 q 492 42 430 42 q 665 77 589 42 q 814 194 741 113 l 846 173 q 685 33 775 80 q 493 -14 595 -14 m 430 1040 q 449 1087 430 1068 q 496 1107 468 1107 q 543 1087 523 1107 q 563 1040 563 1068 q 543 994 563 1013 q 496 975 523 975 q 449 994 468 975 q 430 1040 430 1013 "},"Â³":{"x_min":54,"x_max":380,"ha":425,"o":"m 261 867 q 244 909 261 896 q 204 923 228 923 q 153 910 178 923 q 129 874 129 897 q 126 855 129 862 q 116 841 124 848 q 93 834 108 834 q 73 839 80 834 q 63 850 65 845 q 61 859 61 855 q 69 884 61 869 q 95 916 78 899 q 146 944 113 932 q 222 956 180 956 q 308 934 276 956 q 340 873 340 912 q 269 779 340 819 q 344 744 309 776 q 380 657 380 712 q 321 541 380 586 q 177 497 262 497 q 94 512 135 497 q 54 548 54 528 q 64 567 54 558 q 87 576 75 576 q 123 556 107 576 q 147 538 133 544 q 193 532 162 532 q 220 536 205 532 q 255 552 236 541 q 285 588 273 563 q 298 646 298 612 q 289 685 298 668 q 269 711 281 702 q 242 726 258 720 q 214 733 226 732 q 190 735 202 735 q 161 732 184 735 l 161 765 q 233 798 206 772 q 261 867 261 825 "},"Â¡":{"x_min":82,"x_max":235,"ha":315,"o":"m 160 -317 q 105 -290 128 -317 q 82 -215 82 -264 q 97 -77 82 -164 q 120 52 113 9 q 133 177 133 118 q 133 268 133 236 q 140 306 133 300 q 163 334 143 334 q 187 315 183 334 q 187 262 187 306 q 187 159 187 217 q 199 52 187 100 q 219 -78 204 4 q 235 -215 235 -161 q 211 -291 235 -266 q 160 -317 188 -317 m 233 537 q 211 485 233 507 q 159 464 189 464 q 107 485 129 464 q 86 537 86 507 q 107 589 86 567 q 159 611 129 611 q 211 589 189 611 q 233 537 233 567 "},"â�‰":{"x_min":82,"x_max":765,"ha":815,"o":"m 387 791 q 395 755 387 765 q 403 722 403 745 q 387 687 403 700 q 349 674 371 674 q 310 687 328 674 q 293 733 293 701 q 364 858 293 802 q 536 913 426 913 q 703 855 641 913 q 765 702 765 798 q 752 630 765 663 q 714 569 739 597 q 669 524 689 541 q 617 485 650 508 q 545 415 559 441 q 521 314 521 367 l 521 252 q 502 238 521 238 q 485 252 485 238 l 485 316 q 487 366 485 345 q 497 418 489 387 q 526 480 505 449 q 577 540 546 511 q 641 616 621 581 q 661 697 661 650 q 620 818 661 766 q 521 871 580 871 q 425 847 463 871 q 387 791 387 824 m 450 5 q 429 57 429 27 q 450 108 429 86 q 502 131 472 131 q 554 108 532 131 q 576 57 576 86 q 554 5 576 27 q 502 -17 532 -17 q 450 5 472 -17 m 156 915 q 211 888 188 915 q 235 813 235 861 q 219 675 235 762 q 196 545 203 588 q 184 420 184 479 q 184 329 184 361 q 176 291 184 297 q 153 264 173 264 q 130 282 133 264 q 130 335 130 291 q 130 438 130 380 q 116 545 130 497 q 97 676 112 593 q 82 813 82 759 q 105 889 82 864 q 156 915 128 915 m 104 8 q 83 60 83 30 q 104 111 83 89 q 156 134 126 134 q 208 111 186 134 q 230 60 230 89 q 208 8 230 30 q 156 -13 186 -13 q 104 8 126 -13 "},"[":{"x_min":153,"x_max":444.453125,"ha":495,"o":"m 153 -153 l 153 977 l 444 977 l 444 934 q 380 931 407 934 q 331 923 354 928 q 295 913 309 918 q 270 898 281 908 q 253 879 258 889 q 244 854 247 870 q 241 821 241 837 q 241 780 241 805 l 241 42 q 242 -10 241 8 q 251 -48 244 -29 q 271 -76 259 -67 q 307 -93 282 -85 q 362 -106 331 -102 q 444 -111 394 -111 l 444 -153 l 153 -153 "},"â±§":{"x_min":17,"x_max":942,"ha":965,"o":"m 717 -2 l 585 -2 l 583 1 l 583 28 q 594 39 583 39 l 630 39 q 689 54 672 39 q 707 100 707 69 l 707 458 l 253 458 l 253 100 q 270 53 253 67 q 328 39 287 39 l 365 39 q 376 28 376 39 l 376 1 l 374 0 q 200 0 254 0 l 20 0 l 18 1 l 18 28 q 28 39 18 39 l 65 39 q 124 54 106 39 q 142 100 142 69 l 142 797 q 123 844 142 829 q 65 859 105 859 l 28 859 q 17 869 17 859 l 17 896 l 19 897 q 194 897 140 897 l 373 897 l 376 896 l 376 869 q 365 859 376 859 l 328 859 q 270 843 287 859 q 253 797 253 828 l 253 512 l 707 512 l 707 798 q 689 844 707 830 q 630 859 671 859 l 594 859 q 582 870 582 859 l 582 896 l 584 897 q 759 897 705 897 l 938 897 l 942 896 l 942 870 q 930 859 942 859 l 894 859 q 835 843 853 859 q 818 798 818 828 l 818 100 q 831 51 818 64 q 877 39 844 39 q 907 32 895 39 q 920 4 920 25 l 920 -196 l 887 -196 q 816 -47 863 -93 q 717 -2 770 -2 "},"â€–":{"x_min":83,"x_max":281,"ha":386,"o":"m 281 -263 l 225 -263 l 225 1192 l 281 1192 l 281 -263 m 139 -263 l 83 -263 l 83 1192 l 139 1192 l 139 -263 "},"â€Œ":{"x_min":0,"x_max":0,"ha":0},"%":{"x_min":82,"x_max":831,"ha":885,"o":"m 600 107 q 619 36 600 58 q 662 14 638 14 q 728 49 698 14 q 774 131 759 85 q 789 218 789 178 q 782 261 789 243 q 764 288 775 279 q 744 299 754 296 q 726 303 735 303 q 664 270 694 303 q 617 192 634 237 q 600 107 600 147 m 527 126 q 581 278 527 209 q 711 348 636 348 q 795 318 760 348 q 831 221 831 289 q 819 142 831 184 q 786 62 807 100 q 730 0 765 24 q 654 -26 694 -26 q 560 20 594 -26 q 527 126 527 67 m 505 717 q 618 733 560 717 q 714 791 675 750 l 766 781 l 193 -19 l 142 -6 l 641 691 q 491 665 576 665 q 433 673 467 665 q 380 694 400 682 q 385 659 385 678 q 373 582 385 624 q 340 502 361 541 q 283 438 319 463 q 207 413 248 413 q 136 436 166 413 q 94 493 107 459 q 82 564 82 526 q 136 716 82 646 q 263 786 191 786 q 318 775 291 786 q 357 751 346 764 q 505 717 432 717 m 153 545 q 172 475 153 496 q 215 454 191 454 q 281 488 251 454 q 326 569 311 523 q 342 658 342 616 q 323 722 342 703 q 279 742 304 742 q 217 709 247 742 q 169 631 186 677 q 153 545 153 586 "},"P":{"x_min":24,"x_max":691,"ha":724,"o":"m 260 798 l 260 446 q 358 440 285 440 q 515 490 462 440 q 569 650 569 540 q 557 740 569 702 q 528 801 546 778 q 483 838 509 824 q 431 857 457 852 q 374 862 405 862 q 282 847 304 862 q 260 798 260 832 m 147 95 l 147 800 q 128 844 147 830 q 86 858 109 858 l 32 858 q 24 866 24 858 l 24 897 l 26 898 q 202 898 138 898 q 295 903 223 898 q 383 909 366 909 q 495 897 444 909 q 577 866 545 885 q 633 823 610 846 q 668 772 657 799 q 685 721 680 744 q 691 675 691 698 q 681 600 691 637 q 648 525 672 563 q 589 458 625 487 q 496 411 553 429 q 365 393 438 393 q 260 406 303 393 l 260 95 q 276 52 260 64 q 335 40 293 40 l 372 40 q 383 28 383 40 l 383 0 l 380 -1 q 205 -1 260 -1 l 26 -1 l 24 0 l 24 28 q 34 40 24 40 l 70 40 q 129 53 112 40 q 147 95 147 66 "},"_":{"x_min":7,"x_max":670,"ha":675,"o":"m 670 -153 l 670 -214 l 7 -214 l 7 -153 l 670 -153 "},"Å”":{"x_min":24,"x_max":814.3125,"ha":804,"o":"m 378 861 q 284 845 308 861 q 260 797 260 829 l 260 451 l 329 451 q 406 456 372 451 q 471 476 439 462 q 523 513 503 490 q 556 574 544 536 q 569 663 569 612 q 551 763 569 722 q 504 824 534 804 q 444 852 475 844 q 378 861 414 861 m 376 908 q 514 894 456 908 q 616 838 571 880 q 691 665 691 768 q 677 586 691 623 q 643 523 663 549 q 597 477 623 498 q 548 445 570 456 q 505 427 526 433 l 681 136 q 742 55 713 82 q 814 29 771 29 l 814 -4 q 756 -14 795 -14 q 574 109 650 -14 l 425 350 q 374 391 408 378 q 260 404 340 404 l 260 95 q 276 52 260 65 q 335 39 293 39 l 372 39 q 383 27 383 39 l 383 0 l 380 -2 q 205 -2 260 -2 l 26 -2 l 24 0 l 24 27 q 34 39 24 39 l 70 39 q 130 52 113 39 q 147 95 147 66 l 147 799 q 128 843 147 829 q 86 857 109 857 l 32 857 q 24 865 24 857 l 24 896 l 26 897 q 202 897 138 897 q 292 902 224 897 q 376 908 360 908 m 433 1139 l 519 1067 l 319 986 q 259 970 280 970 q 240 990 240 970 q 261 1019 240 1005 l 433 1139 "},"Ã±":{"x_min":45,"x_max":764,"ha":793,"o":"m 521 794 q 561 809 545 794 q 590 866 576 824 l 624 858 q 503 733 598 733 q 414 769 468 733 q 339 800 362 800 q 296 784 312 800 q 270 733 281 768 l 237 740 q 278 833 252 803 q 348 864 305 864 q 449 824 393 864 q 521 794 490 794 m 667 539 l 667 21 q 639 -16 667 -16 q 613 -9 624 -16 q 585 14 601 -2 l 258 449 q 221 482 230 482 q 207 433 207 482 l 207 98 q 222 59 207 75 q 269 40 238 44 l 296 38 q 307 29 307 38 l 307 0 l 305 -1 q 177 -1 221 -1 l 49 -1 l 45 0 l 45 29 q 59 38 45 38 l 86 40 q 146 99 146 46 l 146 551 q 115 588 133 574 q 61 602 97 602 q 49 610 49 602 l 49 638 l 52 641 l 238 641 l 557 207 q 596 174 586 174 q 606 210 606 174 l 606 540 q 590 580 606 562 q 545 601 574 598 l 516 604 q 502 610 502 604 l 502 639 l 504 641 q 636 641 599 641 l 759 641 l 764 641 l 764 610 q 754 604 764 604 l 726 601 q 667 539 667 595 "},"â€š":{"x_min":95.765625,"x_max":272,"ha":372,"o":"m 180 132 q 246 94 221 132 q 272 -5 272 56 q 222 -123 272 -75 q 105 -184 172 -172 q 97 -150 91 -173 q 183 -101 148 -138 q 218 -40 218 -65 q 204 -9 218 -18 q 167 2 190 0 q 106 63 106 12 q 127 112 106 93 q 180 132 148 132 "},"Ã†":{"x_min":0,"x_max":1154.3125,"ha":1208,"o":"m 372 424 l 591 424 l 591 799 q 589 831 591 822 l 372 424 m 649 0 l 470 0 l 468 1 l 468 26 q 479 39 468 39 l 516 39 q 574 54 557 39 q 591 100 591 69 l 591 370 l 344 370 l 197 94 q 179 54 179 60 q 189 42 179 45 q 224 39 199 39 l 264 39 q 273 30 273 39 l 273 1 l 270 0 q 127 0 181 0 l 1 0 l 0 1 l 0 28 q 13 39 0 39 l 44 39 q 91 50 75 39 q 127 97 108 62 l 498 802 q 503 821 503 810 q 490 848 503 837 q 459 859 476 859 l 415 859 q 406 868 406 859 l 406 896 l 407 897 l 648 897 l 755 897 l 1097 897 l 1117 703 l 1079 698 q 1035 796 1070 750 q 951 842 1000 842 l 754 842 q 716 832 728 842 q 704 797 704 822 l 704 509 l 844 509 q 892 523 878 509 q 914 570 906 537 l 923 611 q 933 623 926 623 l 963 623 q 969 616 969 623 q 958 485 958 509 q 969 351 958 436 l 965 347 l 933 347 q 922 356 925 347 l 914 400 q 893 446 908 431 q 844 461 878 461 l 704 461 l 704 100 q 716 64 704 73 q 754 54 729 54 l 965 54 q 1064 99 1029 54 q 1118 229 1100 145 l 1154 222 l 1119 0 l 755 0 l 649 0 "},"ÄŸ":{"x_min":53,"x_max":717,"ha":757,"o":"m 250 920 q 293 828 250 865 q 400 792 337 792 q 501 826 454 792 q 549 920 549 860 l 587 900 q 569 827 583 860 q 535 773 555 794 q 492 738 516 753 q 445 718 468 724 q 400 713 422 713 q 270 765 321 713 q 212 900 220 817 l 250 920 m 552 222 q 538 253 552 244 q 492 265 524 261 l 464 268 q 456 276 456 268 l 456 307 l 457 308 q 609 308 568 308 l 714 308 l 717 307 l 717 276 q 708 268 717 270 q 669 255 680 263 q 659 222 659 246 l 659 117 q 677 85 659 104 q 396 -14 534 -14 q 150 78 248 -14 q 53 305 53 170 q 155 563 53 467 q 413 659 257 659 q 538 646 457 659 q 637 633 620 633 q 654 456 637 546 l 618 451 q 396 621 586 621 q 228 537 289 621 q 167 323 167 453 q 176 248 167 288 q 206 168 186 208 q 256 96 227 128 q 328 43 285 63 q 421 23 372 23 q 552 78 496 23 l 552 222 "},"Åª":{"x_min":0,"x_max":918,"ha":917,"o":"m 445 -14 q 364 -6 404 -14 q 279 25 323 1 q 201 84 234 48 q 146 183 168 121 q 124 327 124 246 l 124 794 q 107 841 124 826 q 49 856 90 856 l 10 856 q 0 867 0 856 l 0 896 l 2 897 q 177 897 123 897 l 356 897 l 359 896 l 359 867 q 348 856 359 856 l 312 856 q 254 841 271 856 q 237 797 237 827 l 237 374 q 237 318 237 337 q 240 265 237 299 q 251 209 244 231 q 273 159 258 186 q 309 112 288 133 q 475 42 381 42 q 553 50 518 42 q 615 74 589 58 q 659 109 640 89 q 691 155 679 128 q 712 208 704 182 q 724 266 720 233 q 729 325 729 299 q 729 385 729 352 l 729 794 q 712 841 729 827 q 655 856 696 856 l 617 856 q 607 867 607 856 l 607 896 l 609 897 q 762 897 707 897 l 915 897 l 918 896 l 918 867 q 906 856 918 856 l 870 856 q 811 839 828 856 q 794 792 794 822 l 794 409 q 785 270 794 330 q 753 154 776 209 q 691 63 729 99 q 591 6 653 27 q 445 -14 529 -14 m 642 1017 l 304 1017 q 290 1023 295 1017 q 286 1038 286 1029 q 295 1064 286 1050 q 316 1078 304 1078 l 657 1078 q 671 1072 666 1078 q 676 1059 676 1066 q 665 1031 676 1045 q 642 1017 655 1017 "},"Âª":{"x_min":37,"x_max":385.5,"ha":412,"o":"m 261 697 q 142 653 174 674 q 110 598 110 631 q 124 558 110 574 q 172 542 139 542 q 213 552 193 542 q 261 587 233 562 l 261 697 m 320 497 q 281 513 296 497 q 262 551 265 530 q 201 508 225 519 q 144 497 178 497 q 67 523 98 497 q 37 594 37 550 q 180 714 37 677 l 261 734 q 254 796 261 772 q 235 831 247 820 q 211 846 223 842 q 185 850 200 850 q 131 839 151 850 q 111 812 111 829 q 113 794 111 801 q 116 778 116 789 q 107 758 116 767 q 80 749 98 749 q 55 758 65 749 q 45 783 45 767 q 93 853 45 822 q 189 885 141 885 q 241 878 217 885 q 287 855 264 871 q 323 806 310 839 q 336 726 336 773 l 336 622 q 354 543 336 543 q 371 549 365 543 l 385 527 q 356 506 374 516 q 320 497 338 497 "},"â�ˆ":{"x_min":40,"x_max":744,"ha":824,"o":"m 135 794 q 143 758 135 768 q 151 724 151 748 q 134 689 151 702 q 97 676 118 676 q 57 689 75 676 q 40 735 40 703 q 111 861 40 805 q 283 916 174 916 q 450 858 388 916 q 512 705 512 801 q 502 644 512 674 q 479 595 492 615 q 444 552 466 574 q 406 517 422 530 q 365 487 390 505 q 292 417 306 443 q 268 316 268 367 l 268 255 q 250 241 268 241 q 232 255 232 241 l 232 319 q 234 368 232 347 q 244 420 236 389 q 273 482 252 451 q 324 542 293 513 q 388 618 369 584 q 408 699 408 653 q 367 821 408 769 q 269 874 327 874 q 173 850 211 874 q 135 794 135 827 m 197 7 q 176 59 176 29 q 197 110 176 88 q 249 133 219 133 q 301 110 279 133 q 323 59 323 88 q 301 7 323 29 q 249 -14 279 -14 q 197 7 219 -14 m 666 917 q 720 890 697 917 q 744 815 744 864 q 728 676 744 763 q 707 547 712 588 q 693 422 699 481 q 688 331 688 363 q 685 293 688 299 q 663 266 683 266 q 640 284 643 266 q 640 383 640 285 q 629 547 640 481 q 606 677 621 594 q 591 815 591 761 q 614 891 591 866 q 666 917 638 917 m 593 62 q 615 114 593 92 q 667 136 637 136 q 718 114 696 136 q 741 62 741 92 q 718 10 741 32 q 667 -11 696 -11 q 615 10 637 -11 q 593 62 593 32 "},"Å’":{"x_min":58,"x_max":1125.078125,"ha":1179,"o":"m 466 45 l 484 45 q 540 57 525 45 q 555 99 555 70 l 555 798 q 540 839 555 829 q 484 849 525 849 l 435 849 q 338 828 382 849 q 259 764 295 808 q 204 641 224 720 q 184 454 184 562 q 207 270 184 350 q 271 141 231 189 q 361 69 312 93 q 466 45 410 45 m 468 1 q 294 34 373 1 q 165 127 216 68 q 85 267 113 187 q 58 441 58 348 q 84 618 58 536 q 158 762 110 700 q 283 861 207 825 q 454 897 359 897 l 612 897 l 720 897 l 1077 897 l 1097 703 l 1059 699 q 1038 762 1054 731 q 993 818 1022 794 q 930 842 964 842 l 718 842 q 680 832 692 842 q 668 798 668 822 l 668 509 l 813 509 q 862 523 848 509 q 884 570 876 537 l 894 612 q 896 620 894 616 q 903 624 899 624 l 933 624 q 937 617 937 624 q 933 557 937 603 q 929 485 929 511 q 929 442 929 464 q 933 392 929 420 q 938 352 937 364 l 935 348 l 903 348 q 893 357 893 348 l 884 400 q 862 447 877 432 q 813 462 846 462 l 668 462 l 668 100 q 680 64 668 73 q 718 54 693 54 l 935 54 q 1035 100 999 54 q 1087 229 1070 146 l 1125 222 l 1089 1 l 719 1 l 610 1 l 468 1 "},"Ä„":{"x_min":3,"x_max":963.421875,"ha":965,"o":"m 810 -313 q 717 -281 753 -313 q 682 -194 682 -249 q 721 -89 682 -144 q 823 -1 760 -34 l 792 -1 l 608 -1 l 607 0 l 607 27 q 616 39 607 39 l 655 39 q 709 56 695 42 q 713 98 724 70 l 629 335 l 340 335 q 306 329 316 335 q 291 311 297 324 l 210 109 q 214 62 200 81 q 266 39 229 42 l 307 39 q 318 27 318 39 l 318 0 l 315 -1 q 131 -1 164 -1 l 5 -1 l 3 0 l 3 27 q 13 39 3 39 q 93 59 64 39 q 148 141 121 79 l 457 864 q 479 900 466 885 q 505 914 493 914 q 524 904 516 914 q 541 872 532 894 l 826 119 q 863 61 840 79 q 928 39 886 43 l 944 37 q 958 26 958 37 l 958 0 l 953 -3 l 934 -3 q 814 -65 863 -9 q 765 -176 765 -121 q 787 -235 765 -211 q 845 -259 809 -259 q 943 -208 897 -259 l 963 -220 q 896 -289 940 -265 q 810 -313 852 -313 m 365 393 l 607 393 l 470 764 l 469 764 l 330 410 q 336 397 326 401 q 365 393 346 393 "},"T":{"x_min":9.90625,"x_max":779.3125,"ha":787,"o":"m 107 897 l 694 897 q 725 928 725 897 l 761 934 q 779 720 761 839 l 737 713 q 721 779 727 758 q 702 817 714 800 q 673 838 690 834 q 628 843 657 843 l 536 843 q 484 831 498 843 q 470 784 470 819 l 470 96 q 487 52 470 65 q 546 40 504 40 l 582 40 q 595 28 595 40 l 595 0 l 591 -1 q 415 -1 470 -1 l 237 -1 l 235 0 l 235 28 q 245 40 235 40 l 282 40 q 341 53 325 40 q 357 96 357 66 l 357 788 q 342 831 357 820 q 289 843 328 843 l 173 843 q 94 819 116 843 q 51 713 72 796 l 9 720 q 35 934 35 809 l 78 928 q 107 897 78 897 "},"Å¡":{"x_min":54.4375,"x_max":492,"ha":544,"o":"m 234 706 q 94 887 182 790 l 121 904 q 269 779 220 832 q 418 904 319 832 l 445 887 q 304 706 350 779 l 234 706 m 446 623 q 459 471 459 551 l 425 471 q 367 576 409 536 q 275 617 326 617 q 193 588 222 617 q 164 513 164 559 q 174 474 164 494 q 201 439 185 454 q 236 410 216 424 q 271 388 256 397 q 298 375 286 380 q 345 354 325 363 q 395 325 365 344 q 444 287 425 306 q 477 239 463 268 q 492 179 492 210 q 436 37 492 92 q 290 -17 381 -17 q 172 -5 226 -17 q 115 7 118 7 q 91 3 105 7 q 69 -1 76 0 q 54 196 69 63 l 92 196 q 156 66 110 109 q 265 24 202 24 q 383 148 383 24 q 373 199 383 177 q 340 240 363 221 q 295 271 318 258 q 233 302 272 284 q 68 487 68 379 q 99 582 68 542 q 177 640 131 622 q 273 659 222 659 q 357 649 322 659 q 414 631 393 640 q 446 623 434 623 "},"Ãž":{"x_min":12,"x_max":679,"ha":726,"o":"m 249 666 l 249 261 q 347 255 269 255 q 407 260 379 255 q 463 281 435 266 q 511 321 491 297 q 544 385 531 345 q 557 476 557 425 q 545 562 557 525 q 515 621 533 599 q 472 657 497 643 q 423 676 447 671 q 372 682 398 682 q 310 677 351 682 q 249 666 270 672 m 136 801 q 119 844 136 832 q 59 856 102 856 l 23 856 q 15 859 19 856 q 12 867 12 862 l 12 896 l 15 897 q 190 897 136 897 l 369 897 l 372 896 l 372 867 q 360 856 372 856 l 323 856 q 265 843 281 856 q 249 801 249 830 l 249 723 q 373 723 298 723 q 503 706 447 723 q 592 664 560 689 q 645 605 624 639 q 672 540 665 570 q 679 476 679 509 q 669 409 679 443 q 635 338 660 374 q 575 274 611 302 q 482 229 539 247 q 354 212 425 212 q 249 222 276 212 l 249 97 q 265 52 249 65 q 323 40 282 40 l 360 40 q 372 28 372 40 l 372 0 l 369 -1 q 194 -1 249 -1 l 15 -1 l 12 0 l 12 28 q 23 40 12 40 l 59 40 q 119 53 102 40 q 136 96 136 67 l 136 801 "},"j":{"x_min":-78,"x_max":375,"ha":418,"o":"m 289 133 q 152 -193 289 -85 q 5 -243 92 -243 q -49 -224 -21 -243 q -78 -174 -78 -205 q -61 -140 -78 -153 q -27 -126 -44 -126 q 38 -161 13 -126 q 75 -185 55 -185 q 102 -179 90 -185 q 130 -154 115 -173 q 155 -105 144 -135 q 172 -21 165 -75 q 180 105 180 32 l 180 559 q 166 591 180 581 q 120 601 153 601 l 82 601 q 74 608 74 601 l 74 639 l 75 641 q 236 641 194 641 l 372 641 l 375 639 l 375 610 q 365 603 375 605 l 347 601 q 301 586 314 594 q 289 557 289 577 l 289 133 "},"1":{"x_min":127.6875,"x_max":529,"ha":611,"o":"m 262 663 q 144 624 231 663 l 127 667 q 284 742 234 716 q 385 803 335 768 q 393 796 392 800 l 393 107 q 402 55 393 68 q 445 42 412 42 l 518 42 q 529 30 529 42 l 529 0 l 526 -1 l 338 -1 l 148 -1 l 146 0 l 146 30 q 149 37 146 33 q 156 41 152 41 l 240 41 q 269 45 259 41 q 285 59 280 49 q 291 77 290 68 q 293 105 293 86 l 293 581 q 293 605 293 597 q 291 623 293 612 q 289 640 290 635 q 284 652 287 645 q 275 660 280 658 q 262 663 269 663 "},"â€º":{"x_min":94,"x_max":400,"ha":493,"o":"m 94 0 l 94 75 q 288 298 196 217 q 94 521 201 368 l 94 596 q 400 325 262 400 l 400 270 q 94 0 255 171 "},"<":{"x_min":68,"x_max":610,"ha":676,"o":"m 169 331 l 610 171 l 610 101 l 68 298 l 68 365 l 610 561 l 610 492 l 169 331 "},"t":{"x_min":33.265625,"x_max":645.484375,"ha":679,"o":"m 502 592 l 451 592 q 411 582 422 592 q 400 547 400 572 l 400 85 q 413 53 400 63 q 459 40 426 44 l 487 38 q 493 35 490 38 q 497 29 497 32 l 497 0 l 494 -1 q 344 -1 385 -1 l 198 -1 l 197 0 l 197 29 q 205 38 197 38 l 233 40 q 279 54 265 44 q 293 85 293 65 l 293 549 q 281 582 293 572 q 240 592 269 592 l 177 592 q 112 566 132 592 q 70 464 92 541 l 33 468 q 44 659 44 533 l 79 659 q 91 645 81 651 q 116 639 101 639 l 562 639 q 587 645 577 639 q 600 659 598 651 l 634 659 q 645 468 634 544 l 608 464 q 566 566 586 541 q 502 592 546 592 "},"Â¬":{"x_min":33.53125,"x_max":746,"ha":777,"o":"m 671 184 l 671 496 l 33 496 l 33 557 l 746 557 l 746 184 l 671 184 "},"Ã¹":{"x_min":37,"x_max":739,"ha":776,"o":"m 381 -14 q 319 -6 351 -14 q 252 21 286 1 q 191 70 218 41 q 147 146 164 100 q 131 251 131 193 l 131 555 q 118 587 131 577 q 70 600 105 596 l 45 603 q 37 609 37 603 l 37 638 l 38 640 q 187 640 144 640 l 330 640 l 333 638 l 333 609 q 324 603 333 603 l 296 600 q 250 587 264 597 q 237 555 237 576 l 237 280 q 240 203 237 237 q 253 135 243 170 q 281 77 264 99 q 331 40 299 55 q 405 26 362 26 q 575 138 540 26 q 590 292 590 186 l 590 555 q 576 587 590 578 q 530 600 562 597 l 502 603 q 493 610 493 603 l 493 638 l 495 640 q 620 640 579 640 l 736 640 l 739 638 l 739 610 q 730 603 739 603 l 706 600 q 664 586 675 596 q 653 555 653 577 l 653 311 q 646 202 653 249 q 621 113 639 155 q 574 44 604 71 q 495 1 543 17 q 381 -14 447 -14 m 371 928 l 469 752 q 478 719 478 735 q 471 709 478 714 q 456 704 465 704 q 416 731 446 704 l 257 884 l 260 899 q 350 931 303 931 q 371 928 360 931 "},"Ä‰":{"x_min":52,"x_max":624.34375,"ha":683,"o":"m 427 913 q 567 733 471 839 l 538 714 q 390 839 439 787 q 241 714 330 777 l 214 733 q 357 913 315 845 l 427 913 m 383 -17 q 242 11 306 -17 q 137 87 178 40 q 74 192 96 134 q 52 311 52 250 q 145 560 52 462 q 376 659 238 659 q 512 646 439 659 q 604 634 584 634 q 619 455 604 558 l 583 451 q 521 573 570 528 q 385 618 471 618 q 322 610 351 618 q 263 581 292 602 q 212 529 233 561 q 178 444 191 497 q 166 324 166 392 q 173 241 166 281 q 196 161 180 200 q 238 94 213 122 q 302 48 263 65 q 390 30 342 30 q 502 53 458 30 q 596 133 547 75 l 624 111 q 518 13 573 44 q 383 -17 462 -17 "},"Ã¯":{"x_min":14,"x_max":363,"ha":387,"o":"m 249 556 l 249 93 q 261 57 249 69 q 307 40 274 44 l 336 38 q 345 29 345 38 l 345 0 l 343 -1 q 194 -1 237 -1 l 47 -1 l 45 0 l 45 29 q 54 38 45 38 l 82 40 q 142 93 142 46 l 142 556 q 128 588 142 578 q 82 601 114 597 l 54 604 q 45 609 45 604 l 45 639 l 46 641 q 199 641 155 641 l 343 641 l 345 639 l 345 610 q 336 604 345 604 l 307 601 q 262 588 275 598 q 249 556 249 577 m 236 798 q 255 842 236 824 q 299 861 274 861 q 344 842 326 861 q 363 798 363 824 q 344 753 363 772 q 299 734 326 734 q 255 753 274 734 q 236 798 236 772 m 14 798 q 32 842 14 824 q 77 861 50 861 q 121 842 102 861 q 141 798 141 824 q 121 753 141 772 q 77 734 102 734 q 32 753 50 734 q 14 798 14 772 "},"êœ ":{"x_min":37,"x_max":812.953125,"ha":886,"o":"m 37 965 l 812 793 l 793 688 l 442 765 l 442 649 l 340 649 l 340 789 l 141 834 l 141 552 l 37 552 l 37 858 l 37 895 l 37 965 "},"Ä«":{"x_min":-5,"x_max":385,"ha":388,"o":"m 249 556 l 249 93 q 261 57 249 69 q 307 40 274 44 l 336 38 q 345 29 345 38 l 345 0 l 343 -1 q 194 -1 237 -1 l 47 -1 l 45 0 l 45 29 q 54 38 45 38 l 82 40 q 142 93 142 46 l 142 556 q 128 588 142 578 q 82 601 114 597 l 54 604 q 45 609 45 604 l 45 639 l 46 641 q 199 641 155 641 l 343 641 l 345 639 l 345 610 q 336 604 345 604 l 307 601 q 262 588 275 598 q 249 556 249 577 m 351 707 l 12 707 q 0 713 4 707 q -5 728 -5 719 q 4 755 -5 741 q 25 769 13 769 l 366 769 q 380 762 375 769 q 385 749 385 756 q 374 721 385 735 q 351 707 364 707 "},"Ã’":{"x_min":52,"x_max":920,"ha":970,"o":"m 464 867 q 383 852 422 867 q 305 805 343 837 q 240 725 268 772 q 194 608 211 679 q 178 454 178 538 q 206 276 178 357 q 282 142 234 195 q 389 61 329 90 q 511 33 448 33 q 712 140 633 33 q 792 430 792 248 q 703 754 792 642 q 464 867 615 867 m 920 457 q 800 116 920 246 q 483 -14 681 -14 q 266 39 363 -14 q 110 194 168 92 q 52 430 52 296 q 107 675 52 564 q 261 850 162 786 q 482 914 360 914 q 656 881 575 914 q 795 788 736 848 q 886 644 853 729 q 920 457 920 558 m 422 1137 l 589 1020 q 611 991 611 1005 q 589 971 611 971 q 530 987 571 971 l 316 1074 l 422 1137 "},"ÄŽ":{"x_min":24,"x_max":908,"ha":968,"o":"m 24 27 q 33 40 24 40 l 75 40 q 129 54 112 40 q 147 101 147 68 l 147 797 q 133 845 147 834 q 75 856 119 856 l 36 856 q 24 867 24 856 l 24 894 l 26 897 q 114 897 60 897 q 201 897 167 897 q 315 897 245 897 q 429 897 385 897 q 670 834 560 897 q 844 663 780 771 q 908 428 908 555 q 893 297 908 357 q 852 194 878 237 q 790 116 826 150 q 715 60 754 82 q 629 24 675 38 q 541 4 584 10 q 454 -1 498 -1 q 311 -1 377 -1 q 201 -1 245 -1 q 26 -1 87 -1 l 24 0 l 24 27 m 260 100 q 269 66 260 76 q 311 50 279 55 q 411 45 342 45 q 525 54 473 45 q 625 87 576 63 q 707 150 674 111 q 760 250 740 188 q 781 394 781 312 q 768 524 781 461 q 724 646 755 587 q 648 750 694 706 q 533 822 603 795 q 376 849 463 849 q 328 849 346 849 q 293 844 310 849 q 268 828 276 839 q 260 799 260 817 l 260 100 m 404 969 q 264 1101 353 1032 l 286 1129 q 433 1044 368 1093 q 582 1129 513 1099 l 603 1101 q 464 969 533 1048 l 404 969 "},"&":{"x_min":61,"x_max":925,"ha":979,"o":"m 347 469 q 208 354 245 413 q 171 216 171 296 q 217 74 171 120 q 336 29 264 29 q 400 38 372 29 q 455 69 429 47 q 500 114 481 91 q 549 177 519 136 q 428 346 495 248 q 347 469 360 445 m 584 130 q 471 20 532 58 q 326 -17 409 -17 q 221 -4 268 -17 q 138 35 174 8 q 81 108 101 63 q 61 216 61 154 q 121 372 61 299 q 316 521 181 444 q 247 718 247 640 q 304 840 247 786 q 459 895 361 895 q 585 854 534 895 q 636 749 636 813 q 578 630 636 693 q 430 515 521 568 l 435 504 q 605 259 478 430 q 747 528 747 470 q 724 550 747 550 l 686 550 q 679 559 679 550 l 679 583 l 681 585 q 801 585 753 585 l 922 585 l 925 583 l 925 561 q 912 550 925 550 l 873 550 q 820 523 842 550 q 756 419 798 496 q 638 212 694 297 l 686 148 q 745 81 716 104 q 792 58 775 58 q 852 76 827 58 q 898 136 877 95 l 920 124 q 860 19 897 55 q 784 -17 823 -17 q 750 -14 764 -17 q 714 -2 735 -11 q 670 26 693 5 q 625 79 648 47 l 584 130 m 399 571 q 504 663 465 614 q 543 749 543 711 q 519 821 543 795 q 452 847 495 847 q 420 840 437 847 q 386 819 403 833 q 358 779 369 804 q 347 721 347 753 q 399 571 347 671 "},"I":{"x_min":24,"x_max":383,"ha":407,"o":"m 260 800 l 260 95 q 276 52 260 64 q 336 40 293 40 l 372 40 q 383 28 383 40 l 383 0 l 380 -1 q 204 -1 314 -1 q 27 -1 95 -1 l 25 0 l 25 28 q 34 40 25 40 l 71 40 q 131 52 115 40 q 147 95 147 65 l 147 800 q 130 843 147 831 q 71 856 113 856 l 34 856 q 24 867 24 856 l 24 896 l 26 897 q 202 897 95 897 q 380 897 312 897 l 383 896 l 383 867 q 372 856 383 856 l 336 856 q 277 842 294 856 q 260 800 260 829 "},"G":{"x_min":45,"x_max":936,"ha":962,"o":"m 521 915 q 627 905 578 915 q 704 883 677 895 q 764 861 732 871 q 823 851 796 851 q 854 637 837 716 l 812 629 q 785 699 801 667 q 745 762 770 731 q 687 815 720 794 q 607 849 655 836 q 501 863 559 863 q 332 812 408 863 q 210 667 255 761 q 166 454 166 573 q 191 311 166 384 q 262 176 216 238 q 383 75 308 114 q 546 36 457 36 q 659 53 604 36 q 750 103 715 70 l 750 317 q 733 361 750 349 q 673 373 716 373 l 637 373 q 627 384 627 373 l 627 423 l 629 425 q 804 425 750 425 l 933 425 l 936 423 l 936 387 q 925 376 936 378 q 877 361 892 373 q 863 315 863 349 l 863 154 q 885 115 863 132 q 721 18 810 51 q 514 -14 632 -14 q 323 20 411 -14 q 174 115 234 55 q 79 256 114 175 q 45 426 45 337 q 85 631 45 537 q 193 785 126 724 q 345 881 260 847 q 521 915 430 915 "},"`":{"x_min":133.953125,"x_max":353,"ha":544,"o":"m 247 972 l 344 796 q 353 762 353 779 q 346 752 353 757 q 331 748 340 748 q 291 775 321 748 l 133 927 l 136 943 q 226 975 179 975 q 247 972 235 975 "},"Â·":{"x_min":98,"x_max":249,"ha":347,"o":"m 173 284 q 119 306 140 284 q 98 358 98 328 q 120 411 98 388 q 173 435 143 435 q 225 412 202 435 q 249 358 249 389 q 227 306 249 328 q 173 284 205 284 "},"Å�":{"x_min":52,"x_max":721.28125,"ha":771,"o":"m 240 914 q 283 822 240 859 q 390 786 327 786 q 492 820 445 786 q 540 914 540 854 l 578 894 q 553 806 573 844 q 504 747 532 768 q 447 717 476 727 q 390 707 419 707 q 261 759 311 707 q 203 894 210 811 l 240 914 m 375 610 q 298 591 335 610 q 232 538 262 572 q 184 448 202 504 q 167 325 167 392 q 232 113 167 196 q 397 30 296 30 q 548 105 491 30 q 606 307 606 180 q 538 526 606 442 q 375 610 471 610 m 721 326 q 698 196 721 257 q 634 87 676 135 q 526 11 593 39 q 376 -17 459 -17 q 144 74 236 -17 q 52 308 52 166 q 147 560 52 461 q 387 659 242 659 q 553 617 477 659 q 675 499 629 576 q 721 326 721 422 "},"Â¿":{"x_min":52,"x_max":524,"ha":563,"o":"m 430 -197 q 421 -161 430 -171 q 413 -127 413 -150 q 429 -91 413 -104 q 467 -79 445 -79 q 506 -92 488 -79 q 524 -138 524 -106 q 453 -264 524 -206 q 281 -318 390 -318 q 113 -260 175 -318 q 52 -108 52 -203 q 61 -47 52 -76 q 84 1 71 -18 q 119 44 96 21 q 158 79 143 67 q 199 110 173 91 q 271 179 258 154 q 296 280 296 226 l 296 341 q 314 355 296 355 q 332 341 332 355 l 332 278 q 329 228 332 249 q 319 176 327 207 q 290 115 311 146 q 239 54 270 84 q 175 -21 194 13 q 156 -103 156 -56 q 196 -224 156 -172 q 295 -277 236 -277 q 391 -253 353 -277 q 430 -197 430 -229 m 388 538 q 366 486 388 508 q 314 465 344 465 q 262 486 284 465 q 241 538 241 508 q 262 590 241 568 q 314 612 284 612 q 366 590 344 612 q 388 538 388 568 "},"Ã½":{"x_min":17,"x_max":648,"ha":664,"o":"m 416 930 q 436 933 426 933 q 504 907 477 933 q 512 901 512 901 l 517 886 l 356 733 q 316 706 328 706 q 303 711 309 706 q 297 723 297 716 q 305 754 297 741 l 416 930 m 284 85 l 284 272 l 108 560 q 77 591 95 581 q 27 604 59 600 q 17 610 17 604 l 17 639 l 19 641 q 75 641 25 641 q 133 641 125 641 q 272 642 240 641 l 275 641 l 275 610 q 272 606 275 608 q 267 604 270 604 l 237 601 q 212 589 214 599 q 223 561 210 578 l 364 332 l 366 332 l 495 561 q 507 593 510 587 q 481 601 505 599 l 449 604 q 443 610 443 604 l 443 641 l 445 641 q 499 641 453 641 q 552 641 546 641 q 646 641 606 641 l 648 639 l 648 610 q 638 604 648 605 l 614 601 q 571 587 583 597 q 543 548 559 578 l 390 278 l 390 85 q 402 53 390 63 q 449 40 415 44 l 478 38 q 488 29 488 38 l 488 0 l 485 -1 q 336 -1 379 -1 l 189 -1 l 186 0 l 186 29 q 189 35 186 33 q 196 38 192 38 l 224 40 q 270 54 256 44 q 284 85 284 64 "},"Å¿":{"x_min":54.4375,"x_max":492,"ha":544,"o":"m 446 623 q 459 471 459 551 l 425 471 q 367 576 409 536 q 275 617 326 617 q 193 588 222 617 q 164 513 164 559 q 174 474 164 494 q 201 439 185 454 q 236 410 216 424 q 271 388 256 397 q 298 375 286 380 q 345 354 325 363 q 395 325 365 344 q 444 287 425 306 q 477 239 463 268 q 492 179 492 210 q 436 37 492 92 q 290 -17 381 -17 q 172 -5 226 -17 q 115 7 118 7 q 91 3 105 7 q 69 -1 76 0 q 54 196 69 63 l 92 196 q 156 66 110 109 q 265 24 202 24 q 383 148 383 24 q 373 199 383 177 q 340 240 363 221 q 295 271 318 258 q 233 302 272 284 q 68 487 68 379 q 99 582 68 542 q 177 640 131 622 q 273 659 222 659 q 357 649 322 659 q 414 631 393 640 q 446 623 434 623 "},"Âº":{"x_min":54,"x_max":432,"ha":484,"o":"m 54 596 q 104 735 54 684 q 245 786 155 786 q 331 771 294 786 q 390 729 368 756 q 421 672 411 703 q 432 604 432 640 q 381 474 432 527 q 238 421 331 421 q 107 471 161 421 q 54 596 54 521 m 237 751 q 161 710 187 751 q 135 609 135 669 q 165 506 135 552 q 254 460 196 460 q 285 465 270 460 q 317 483 301 470 q 343 521 333 495 q 353 581 353 546 q 322 707 353 663 q 237 751 291 751 "},"Åº":{"x_min":47,"x_max":581.4375,"ha":632,"o":"m 350 936 q 369 939 358 939 q 437 914 410 939 q 445 907 442 909 l 450 892 l 290 740 q 250 713 262 713 q 237 718 243 713 q 231 729 231 723 q 239 761 231 747 l 350 936 m 147 640 l 472 640 q 545 648 520 648 q 576 635 576 648 q 549 585 576 621 l 205 82 q 197 61 197 69 q 224 47 197 47 l 389 47 q 472 72 445 47 q 525 158 499 97 l 544 198 l 581 189 q 537 0 546 69 l 67 0 q 47 13 47 0 q 56 37 47 23 l 421 562 q 431 582 431 578 q 418 592 431 592 l 208 592 q 143 561 175 592 q 92 461 112 530 l 56 465 q 76 654 76 572 q 82 659 76 659 q 105 648 89 657 q 147 640 122 640 "},"Å±":{"x_min":37,"x_max":739,"ha":776,"o":"m 641 932 q 661 893 661 917 q 651 867 661 876 l 493 714 q 484 712 490 712 q 471 717 478 712 q 465 729 465 722 q 466 735 465 733 l 575 928 q 608 945 584 945 q 641 932 626 945 m 454 943 q 478 901 478 927 q 470 879 478 889 l 328 711 q 317 707 324 707 q 304 712 310 707 q 298 725 298 717 q 299 729 298 728 l 388 932 q 424 951 397 951 q 454 943 439 951 m 381 -14 q 319 -6 351 -14 q 252 21 286 1 q 191 70 218 41 q 147 146 164 100 q 131 251 131 193 l 131 555 q 118 587 131 577 q 70 600 105 596 l 45 603 q 37 609 37 603 l 37 638 l 38 640 q 187 640 144 640 l 330 640 l 333 638 l 333 609 q 324 603 333 603 l 296 600 q 250 587 264 597 q 237 555 237 576 l 237 280 q 240 203 237 237 q 253 135 243 170 q 281 77 264 99 q 331 40 299 55 q 405 26 362 26 q 575 138 540 26 q 590 292 590 186 l 590 555 q 576 587 590 578 q 530 600 562 597 l 502 603 q 493 610 493 603 l 493 638 l 495 640 q 620 640 579 640 l 736 640 l 739 638 l 739 610 q 730 603 739 603 l 706 600 q 664 586 675 596 q 653 555 653 577 l 653 311 q 646 202 653 249 q 621 113 639 155 q 574 44 604 71 q 495 1 543 17 q 381 -14 447 -14 "},"â�‚":{"x_min":28,"x_max":812.265625,"ha":838,"o":"m 404 628 q 353 633 381 633 q 282 642 306 633 q 259 676 259 651 q 268 701 259 691 q 297 712 277 712 q 354 686 319 712 q 411 652 390 660 q 397 710 409 675 q 385 761 385 745 q 394 793 385 780 q 419 807 404 807 q 448 796 437 807 q 460 765 460 785 q 448 708 460 749 q 437 650 437 668 q 480 676 458 660 q 517 702 501 692 q 550 712 532 712 q 580 700 571 712 q 590 676 590 689 q 509 633 590 633 q 443 628 474 633 q 485 594 457 612 q 527 560 512 576 q 542 523 542 545 q 531 499 542 508 q 507 490 520 490 q 472 509 486 490 q 445 563 458 528 q 422 614 432 599 q 400 561 414 599 q 372 506 385 523 q 339 490 359 490 q 314 499 324 490 q 305 523 305 509 q 320 561 305 546 q 362 594 335 576 q 404 628 390 612 m 173 138 q 123 143 150 143 q 51 152 75 143 q 28 186 28 161 q 37 211 28 201 q 66 222 46 222 q 124 196 88 222 q 180 162 159 170 q 166 220 178 185 q 154 271 154 256 q 163 304 154 290 q 189 318 173 318 q 217 307 206 318 q 229 276 229 296 q 217 218 229 259 q 206 161 206 178 q 249 186 227 170 q 286 212 271 202 q 319 222 302 222 q 349 210 340 222 q 359 186 359 199 q 278 143 359 143 q 212 138 244 143 q 254 104 226 122 q 296 71 282 86 q 311 34 311 56 q 300 10 311 20 q 276 1 289 1 q 241 20 255 1 q 214 74 227 39 q 191 124 201 109 q 169 72 183 109 q 141 18 154 34 q 108 1 128 1 q 84 11 94 1 q 74 34 74 21 q 89 72 74 57 q 132 105 105 87 q 173 138 159 122 m 626 138 q 576 143 603 143 q 504 152 528 143 q 481 186 481 161 q 490 211 481 201 q 519 222 499 222 q 577 196 542 222 q 633 162 612 170 q 619 220 631 185 q 607 271 607 256 q 616 304 607 291 q 641 318 625 318 q 670 307 659 318 q 682 276 682 296 q 670 218 682 259 q 659 161 659 178 q 701 186 680 170 q 738 212 723 202 q 772 222 754 222 q 802 210 793 222 q 812 186 812 199 q 730 143 812 143 q 665 138 697 143 q 706 104 679 122 q 748 71 733 86 q 764 34 764 56 q 753 10 764 20 q 729 1 742 1 q 694 20 707 1 q 667 74 680 39 q 644 124 653 109 q 625 83 636 109 q 608 42 615 57 q 589 14 602 26 q 561 1 577 1 q 537 11 547 1 q 527 34 527 21 q 542 72 527 57 q 585 105 557 87 q 626 138 612 122 "},"Å„":{"x_min":45,"x_max":764,"ha":793,"o":"m 525 933 q 545 936 533 936 q 612 910 586 936 q 620 904 618 905 l 625 889 l 465 736 q 425 709 437 709 q 412 714 418 709 q 406 726 406 719 q 414 757 406 744 l 525 933 m 667 539 l 667 21 q 639 -16 667 -16 q 613 -9 624 -16 q 585 14 601 -2 l 258 449 q 221 482 230 482 q 207 433 207 482 l 207 98 q 222 59 207 75 q 269 40 238 44 l 296 38 q 307 29 307 38 l 307 0 l 305 -1 q 177 -1 221 -1 l 49 -1 l 45 0 l 45 29 q 59 38 45 38 l 86 40 q 146 99 146 46 l 146 551 q 115 588 133 574 q 61 602 97 602 q 49 610 49 602 l 49 638 l 52 641 l 238 641 l 557 207 q 596 174 586 174 q 606 210 606 174 l 606 540 q 590 580 606 562 q 545 601 574 598 l 516 604 q 502 610 502 604 l 502 639 l 504 641 q 636 641 599 641 l 759 641 l 764 641 l 764 610 q 754 604 764 604 l 726 601 q 667 539 667 595 "},";":{"x_min":60.375,"x_max":236,"ha":305,"o":"m 144 132 q 210 94 185 132 q 236 -5 236 56 q 186 -123 236 -75 q 69 -184 136 -172 q 62 -150 55 -173 q 147 -102 112 -138 q 182 -40 182 -66 q 132 2 182 -3 q 70 63 70 12 q 91 112 70 93 q 144 132 112 132 m 96 441 q 75 493 75 463 q 96 544 75 522 q 148 567 118 567 q 200 544 178 567 q 222 493 222 522 q 200 441 222 463 q 148 419 178 419 q 96 441 118 419 "},"â€…":{"x_min":0,"x_max":0,"ha":345},"Ä ":{"x_min":45,"x_max":936,"ha":962,"o":"m 521 915 q 627 905 578 915 q 704 883 677 895 q 764 861 732 871 q 823 851 796 851 q 854 637 837 716 l 812 629 q 785 699 801 667 q 745 762 770 731 q 687 815 720 794 q 607 849 655 836 q 501 863 559 863 q 332 812 408 863 q 210 667 255 761 q 166 454 166 573 q 191 311 166 384 q 262 176 216 238 q 383 75 308 114 q 546 36 457 36 q 659 53 604 36 q 750 103 715 70 l 750 317 q 733 361 750 349 q 673 373 716 373 l 637 373 q 627 384 627 373 l 627 423 l 629 425 q 804 425 750 425 l 933 425 l 936 423 l 936 387 q 925 376 936 378 q 877 361 892 373 q 863 315 863 349 l 863 154 q 885 115 863 132 q 721 18 810 51 q 514 -14 632 -14 q 323 20 411 -14 q 174 115 234 55 q 79 256 114 175 q 45 426 45 337 q 85 631 45 537 q 193 785 126 724 q 345 881 260 847 q 521 915 430 915 m 455 1046 q 474 1093 455 1074 q 521 1113 493 1113 q 568 1093 548 1113 q 588 1046 588 1074 q 568 1000 588 1019 q 521 981 548 981 q 474 1000 493 981 q 455 1046 455 1019 "},"6":{"x_min":61,"x_max":562,"ha":611,"o":"m 166 364 q 165 315 165 350 q 176 195 165 248 q 204 112 187 143 q 244 61 221 81 q 289 33 268 40 q 334 26 311 26 q 422 75 387 26 q 458 227 458 125 q 454 273 458 250 q 440 325 451 297 q 412 376 429 354 q 366 412 396 397 q 299 427 337 427 q 166 364 224 427 m 525 766 q 395 737 452 759 q 291 669 338 715 q 170 403 193 573 q 240 451 194 431 q 327 471 287 471 q 430 452 385 471 q 499 407 475 433 q 538 346 523 381 q 557 286 553 312 q 562 237 562 261 q 555 174 562 206 q 531 108 549 142 q 488 47 514 73 q 419 3 463 20 q 320 -14 375 -14 q 254 -6 286 -14 q 186 24 222 1 q 123 82 149 46 q 78 179 96 118 q 61 320 61 240 q 97 508 61 418 q 204 670 133 599 q 344 768 270 737 q 521 800 418 800 l 525 766 "},"â€´":{"x_min":92,"x_max":624,"ha":720,"o":"m 567 972 q 606 955 588 972 q 624 918 624 939 q 616 897 624 906 l 488 727 q 473 717 480 717 q 459 722 465 717 q 453 736 453 728 q 455 748 453 740 l 527 948 q 543 965 531 959 q 567 972 554 972 m 386 972 q 425 955 407 972 q 443 918 443 939 q 436 897 443 906 l 308 727 q 293 717 300 717 q 278 722 284 717 q 272 736 272 728 q 275 748 272 742 l 347 948 q 362 965 351 959 q 386 972 373 972 m 206 972 q 245 955 227 972 q 263 918 263 939 q 256 897 263 906 l 127 727 q 113 717 119 717 q 98 722 104 717 q 92 736 92 728 q 94 748 92 740 l 167 948 q 182 965 171 959 q 206 972 193 972 "},"n":{"x_min":45,"x_max":764,"ha":793,"o":"m 667 539 l 667 21 q 639 -16 667 -16 q 613 -9 624 -16 q 585 14 601 -2 l 258 449 q 221 482 230 482 q 207 433 207 482 l 207 98 q 222 59 207 75 q 269 40 238 44 l 296 38 q 307 29 307 38 l 307 0 l 305 -1 q 177 -1 221 -1 l 49 -1 l 45 0 l 45 29 q 59 38 45 38 l 86 40 q 146 99 146 46 l 146 551 q 115 588 133 574 q 61 602 97 602 q 49 610 49 602 l 49 638 l 52 641 l 238 641 l 557 207 q 596 174 586 174 q 606 210 606 174 l 606 540 q 590 580 606 562 q 545 601 574 598 l 516 604 q 502 610 502 604 l 502 639 l 504 641 q 636 641 599 641 l 759 641 l 764 641 l 764 610 q 754 604 764 604 l 726 601 q 667 539 667 595 "},"Ä£":{"x_min":53,"x_max":717,"ha":757,"o":"m 412 713 q 351 743 374 713 q 329 814 329 774 q 332 843 329 827 q 344 879 335 858 q 369 918 354 901 q 412 947 384 935 q 476 960 440 960 l 482 937 q 420 900 442 929 q 398 842 398 870 q 413 817 398 817 q 478 759 478 817 q 462 726 478 740 q 412 713 446 713 m 552 222 q 538 253 552 244 q 491 265 524 261 l 464 268 q 456 276 456 268 l 456 307 l 457 308 q 609 308 568 308 l 714 308 l 717 307 l 717 276 q 708 268 717 270 q 669 255 680 263 q 659 222 659 246 l 659 117 q 677 85 659 104 q 396 -14 534 -14 q 150 78 248 -14 q 53 305 53 170 q 155 563 53 467 q 413 659 257 659 q 538 646 457 659 q 637 633 620 633 q 654 456 637 546 l 618 451 q 396 621 586 621 q 228 537 289 621 q 167 323 167 453 q 176 248 167 288 q 206 168 186 208 q 256 96 227 128 q 328 43 285 63 q 421 23 372 23 q 552 78 496 23 l 552 222 "},"Â¤":{"x_min":35.96875,"x_max":572.734375,"ha":609,"o":"m 140 401 q 185 268 140 322 q 302 215 230 215 q 418 269 373 215 q 464 400 464 323 q 417 531 464 477 q 305 585 370 585 q 186 531 233 585 q 140 401 140 477 m 302 157 q 152 206 220 157 l 92 133 l 35 189 l 110 248 q 57 400 57 313 q 110 553 57 490 l 38 609 l 90 665 l 153 595 q 302 643 220 643 q 454 591 389 643 l 518 668 l 572 611 l 495 550 q 549 400 549 487 q 497 251 549 318 l 570 190 l 519 137 l 455 208 q 302 157 387 157 "},"Äœ":{"x_min":45,"x_max":936,"ha":962,"o":"m 521 915 q 627 905 578 915 q 704 883 677 895 q 764 861 732 871 q 823 851 796 851 q 854 637 837 716 l 812 629 q 785 699 801 667 q 745 762 770 731 q 687 815 720 794 q 607 849 655 836 q 501 863 559 863 q 332 812 408 863 q 210 667 255 761 q 166 454 166 573 q 191 311 166 384 q 262 176 216 238 q 383 75 308 114 q 546 36 457 36 q 659 53 604 36 q 750 103 715 70 l 750 317 q 733 361 750 349 q 673 373 716 373 l 637 373 q 627 384 627 373 l 627 423 l 629 425 q 804 425 750 425 l 933 425 l 936 423 l 936 387 q 925 376 936 378 q 877 361 892 373 q 863 315 863 349 l 863 154 q 885 115 863 132 q 721 18 810 51 q 514 -14 632 -14 q 323 20 411 -14 q 174 115 234 55 q 79 256 114 175 q 45 426 45 337 q 85 631 45 537 q 193 785 126 724 q 345 881 260 847 q 521 915 430 915 m 534 1119 q 674 988 591 1051 l 653 959 q 505 1045 567 999 q 357 959 437 995 l 338 988 q 475 1119 399 1034 l 534 1119 "},"p":{"x_min":45,"x_max":571,"ha":604,"o":"m 246 592 l 246 311 q 336 299 277 299 q 462 456 462 299 q 427 572 462 540 q 329 604 393 604 q 246 592 285 604 m 141 86 l 141 554 q 124 593 141 585 q 55 601 108 601 q 46 609 46 601 l 46 641 l 48 641 q 112 641 56 641 q 192 641 169 641 q 260 641 210 641 q 338 641 311 641 q 437 630 394 641 q 505 602 480 619 q 545 562 529 586 q 565 517 560 538 q 571 471 571 496 q 565 417 571 444 q 543 361 560 391 q 502 310 527 331 q 433 274 477 288 q 334 260 390 260 q 246 273 277 260 l 246 86 q 258 56 246 64 q 307 41 271 47 l 335 37 q 345 29 345 35 l 345 0 l 343 -1 q 189 -1 232 -1 l 46 -1 l 45 0 l 45 29 q 52 37 45 35 l 82 41 q 127 56 114 46 q 141 86 141 66 "},"â€¡":{"x_min":113.546875,"x_max":744.84375,"ha":817,"o":"m 723 660 q 744 610 744 639 q 723 562 744 581 q 669 543 701 543 q 439 597 528 543 q 504 340 439 425 q 440 83 440 255 q 669 138 534 138 q 722 118 699 138 q 744 69 744 99 q 722 19 744 39 q 669 0 700 0 q 440 55 532 0 q 490 -204 490 -52 q 472 -262 490 -237 q 429 -288 454 -288 q 385 -263 404 -288 q 367 -204 367 -239 q 417 55 367 -50 q 186 0 327 0 q 135 20 157 0 q 113 69 113 40 q 136 118 113 98 q 186 138 159 138 q 416 83 327 138 q 352 340 416 264 q 417 597 417 408 q 187 543 332 543 q 135 562 156 543 q 114 610 114 581 q 136 660 114 639 q 187 682 157 682 q 417 625 325 682 q 367 885 367 728 q 384 943 367 918 q 429 968 402 968 q 472 943 454 968 q 490 885 490 918 q 440 625 490 727 q 669 682 530 682 q 723 660 701 682 "},"Åˆ":{"x_min":45,"x_max":764,"ha":793,"o":"m 390 708 q 250 889 339 791 l 277 906 q 425 781 377 832 q 575 906 477 835 l 601 889 q 460 708 508 784 l 390 708 m 667 539 l 667 21 q 639 -16 667 -16 q 613 -9 624 -16 q 585 14 601 -2 l 258 449 q 221 482 230 482 q 207 433 207 482 l 207 98 q 222 59 207 75 q 269 40 238 44 l 296 38 q 307 29 307 38 l 307 0 l 305 -1 q 177 -1 221 -1 l 49 -1 l 45 0 l 45 29 q 59 38 45 38 l 86 40 q 146 99 146 46 l 146 551 q 115 588 133 574 q 61 602 97 602 q 49 610 49 602 l 49 638 l 52 641 l 238 641 l 557 207 q 596 174 586 174 q 606 210 606 174 l 606 540 q 590 580 606 562 q 545 601 574 598 l 516 604 q 502 610 502 604 l 502 639 l 504 641 q 636 641 599 641 l 759 641 l 764 641 l 764 610 q 754 604 764 604 l 726 601 q 667 539 667 595 "},"Ä™":{"x_min":45,"x_max":579.625,"ha":630,"o":"m 427 -312 q 333 -280 370 -312 q 297 -193 297 -248 q 335 -89 297 -143 q 435 -2 373 -34 l 183 -2 l 46 -2 l 45 0 l 45 29 q 53 36 45 36 l 85 39 q 129 52 117 42 q 141 83 141 61 l 141 557 q 128 589 141 580 q 85 598 115 598 l 53 602 q 45 608 45 603 l 45 638 l 46 640 l 185 640 l 285 640 l 544 640 q 562 471 544 568 l 528 467 q 514 508 522 491 q 492 547 506 526 q 454 579 478 567 q 399 591 430 591 l 288 591 q 257 584 267 591 q 248 561 248 578 l 248 356 l 351 356 q 390 366 379 356 q 406 400 401 377 l 414 430 q 423 437 414 437 l 446 437 q 450 432 450 437 q 440 329 440 353 q 450 233 440 316 l 446 231 l 423 231 q 413 237 413 231 l 406 268 q 389 301 402 290 q 351 312 377 312 l 248 312 l 248 80 q 257 54 248 61 q 288 47 267 47 l 407 47 q 495 79 465 47 q 545 172 525 111 l 579 168 q 551 17 556 68 l 567 0 q 470 -30 515 0 q 403 -99 426 -59 q 380 -175 380 -139 q 402 -234 380 -210 q 461 -258 424 -258 q 557 -207 512 -258 l 578 -219 q 512 -288 555 -264 q 427 -312 468 -312 "},"S":{"x_min":47.015625,"x_max":604,"ha":659,"o":"m 533 876 q 558 665 533 786 l 517 659 q 505 699 510 683 q 489 739 499 716 q 469 779 480 763 q 444 814 459 796 q 410 842 428 832 q 367 860 392 853 q 314 867 343 867 q 204 822 247 867 q 162 711 162 777 q 357 522 162 593 q 428 495 399 507 q 493 459 457 482 q 551 410 529 436 q 588 344 573 384 q 604 255 604 304 q 569 122 604 185 q 469 21 534 60 q 328 -17 405 -17 q 228 -11 268 -17 q 168 0 188 -5 q 136 6 147 6 q 103 3 122 6 q 72 0 84 0 q 47 242 72 60 l 88 247 q 305 33 134 33 q 438 78 386 33 q 491 206 491 124 q 482 273 491 243 q 461 321 474 302 q 427 357 448 340 q 386 383 405 373 q 337 404 366 392 q 281 426 305 416 q 222 454 257 436 q 163 492 187 472 q 114 539 138 513 q 78 600 91 565 q 66 673 66 635 q 106 800 66 743 q 205 886 146 857 q 326 915 265 915 q 416 908 383 915 q 475 891 448 901 q 533 876 501 881 "},"â±«":{"x_min":57,"x_max":851,"ha":858,"o":"m 670 0 l 83 0 q 57 20 57 0 q 67 52 57 37 l 602 804 q 615 831 615 818 q 600 842 615 842 l 241 842 q 176 821 205 842 q 130 771 147 801 q 104 710 114 740 q 95 656 95 681 l 58 656 l 87 927 l 125 923 l 125 916 q 132 901 125 904 q 162 898 139 898 l 752 898 q 778 894 771 898 q 786 880 786 890 q 754 820 786 865 l 238 99 q 228 71 228 79 q 262 54 228 54 l 800 54 l 821 54 q 841 46 832 54 q 851 26 851 39 l 851 -137 l 823 -137 q 763 -52 813 -104 q 670 0 714 0 "},"/":{"x_min":5.421875,"x_max":391.984375,"ha":404,"o":"m 391 948 l 62 -29 l 5 -29 l 335 948 l 391 948 "},"Ä¯":{"x_min":45,"x_max":345,"ha":388,"o":"m 176 -312 q 83 -280 119 -312 q 48 -193 48 -248 q 86 -88 48 -143 q 186 -2 124 -34 l 48 -2 l 45 0 l 45 28 q 54 37 45 37 l 82 39 q 142 92 142 45 l 142 555 q 128 587 142 577 q 82 600 114 596 l 54 603 q 45 608 45 603 l 45 638 l 46 640 q 199 640 155 640 l 343 640 l 345 638 l 345 609 q 336 603 345 603 l 307 600 q 262 587 275 597 q 249 555 249 576 l 249 92 q 261 56 249 68 q 307 39 274 43 l 336 37 q 345 28 345 37 l 345 0 l 343 -2 q 294 -2 322 -2 q 177 -67 224 -12 q 131 -175 131 -122 q 153 -234 131 -210 q 211 -258 175 -258 q 307 -207 261 -258 l 329 -219 q 262 -288 306 -264 q 176 -312 218 -312 "},"â±¡":{"x_min":21,"x_max":554.125,"ha":583,"o":"m 342 464 l 342 410 l 249 410 l 249 321 l 342 321 l 342 267 l 249 267 l 249 82 q 258 55 249 63 q 287 48 267 48 l 384 48 q 437 57 415 48 q 475 85 460 66 q 500 124 491 104 q 519 174 510 144 l 554 170 q 527 -1 527 64 l 184 -1 q 169 -1 180 -1 q 126 -1 158 -1 q 46 -1 94 -1 l 45 0 l 45 29 q 53 37 45 37 l 85 40 q 130 52 118 43 q 142 86 142 61 l 142 267 l 21 267 l 21 321 l 142 321 l 142 410 l 21 410 l 21 464 l 142 464 l 142 556 q 128 588 142 578 q 82 601 114 597 l 54 604 q 45 612 45 604 l 45 639 l 46 641 q 199 641 155 641 l 343 641 l 345 639 l 345 612 q 336 604 345 604 l 307 601 q 261 587 274 598 q 249 556 249 577 l 249 464 l 342 464 "},"Å¦":{"x_min":9.90625,"x_max":779.3125,"ha":787,"o":"m 178 458 l 178 512 l 357 512 l 357 788 q 342 831 357 820 q 289 843 328 843 l 173 843 q 94 819 116 843 q 51 713 72 796 l 9 720 q 35 934 35 809 l 78 928 q 107 897 78 897 l 694 897 q 725 928 725 897 l 761 934 q 779 720 761 839 l 737 713 q 721 779 727 758 q 702 817 714 800 q 673 838 690 834 q 628 843 657 843 l 536 843 q 484 831 498 843 q 470 784 470 819 l 470 512 l 660 512 l 660 458 l 470 458 l 470 96 q 487 52 470 65 q 546 40 504 40 l 582 40 q 595 28 595 40 l 595 0 l 591 -1 q 415 -1 470 -1 l 237 -1 l 235 0 l 235 28 q 245 40 235 40 l 282 40 q 341 53 325 40 q 357 96 357 66 l 357 458 l 178 458 "},"y":{"x_min":17,"x_max":648,"ha":664,"o":"m 284 85 l 284 272 l 108 560 q 77 591 95 581 q 27 604 59 600 q 17 610 17 604 l 17 639 l 19 641 q 75 641 25 641 q 133 641 125 641 q 272 642 240 641 l 275 641 l 275 610 q 272 606 275 608 q 267 604 270 604 l 237 601 q 212 589 214 599 q 223 561 210 578 l 364 332 l 367 332 l 495 561 q 507 593 510 587 q 481 601 505 599 l 449 604 q 443 610 443 604 l 443 641 l 445 641 q 499 641 453 641 q 552 641 546 641 q 646 641 606 641 l 648 639 l 648 610 q 638 604 648 605 l 614 601 q 571 587 583 597 q 543 548 559 578 l 390 278 l 390 85 q 402 53 390 63 q 449 40 415 44 l 478 38 q 488 29 488 38 l 488 0 l 485 -1 q 336 -1 379 -1 l 189 -1 l 186 0 l 186 29 q 189 35 186 33 q 196 38 192 38 l 224 40 q 270 54 256 44 q 284 85 284 64 "},"â±¥":{"x_min":3,"x_max":745,"ha":784,"o":"m 223 228 l 163 82 q 157 64 157 67 q 168 48 157 54 l 322 243 l 254 243 q 223 228 227 243 m 378 243 l 218 39 l 231 38 q 237 35 234 38 q 240 29 240 33 l 240 0 l 237 -2 l 187 -2 l 107 -104 l 50 -104 l 131 -1 l 95 -1 l 5 -1 l 3 0 l 3 29 q 5 35 3 33 q 11 38 8 38 q 45 44 32 40 q 73 61 58 48 q 100 97 89 74 l 345 623 q 365 649 351 639 q 389 659 378 659 q 444 624 430 659 l 502 474 l 677 698 l 733 698 l 522 427 l 647 106 q 681 53 664 66 q 733 38 698 41 q 745 29 745 36 l 745 0 l 740 -1 q 625 -1 666 -1 l 469 -1 l 467 0 l 467 29 q 476 38 467 38 l 501 40 q 543 49 530 44 q 557 67 557 54 q 554 82 557 71 l 492 243 l 378 243 m 354 284 l 433 386 l 366 558 l 364 558 l 259 303 q 260 294 259 297 q 267 287 261 291 q 286 284 273 284 l 354 284 m 410 284 l 475 284 l 453 339 l 410 284 "},"â±¨":{"x_min":40,"x_max":779,"ha":819,"o":"m 579 101 l 579 318 l 242 318 l 242 82 q 255 49 242 59 q 300 39 269 39 l 329 39 q 335 36 332 39 q 338 30 338 34 l 338 1 l 336 0 q 183 0 227 0 l 43 0 l 42 1 l 42 30 q 50 39 42 39 l 79 39 q 138 82 138 39 l 138 559 q 124 593 138 583 q 79 603 110 603 l 50 603 q 40 611 40 603 l 40 638 l 43 641 q 179 641 138 641 l 336 641 l 338 638 l 338 611 q 329 603 338 603 l 300 603 q 242 559 242 603 l 242 363 l 579 363 l 579 559 q 564 593 579 582 q 519 603 550 603 l 490 603 q 482 611 482 603 l 482 638 l 483 640 q 618 640 577 640 l 776 640 l 779 638 l 779 611 q 771 603 779 603 l 741 603 q 695 592 709 603 q 682 559 682 581 l 682 106 q 696 57 682 75 q 731 39 711 39 q 764 32 752 39 q 776 9 776 26 l 776 -178 l 746 -178 q 733 -132 740 -154 q 712 -86 725 -111 q 681 -42 698 -61 q 636 -12 663 -24 q 579 0 610 0 l 481 0 l 481 28 q 491 39 481 39 l 517 39 q 565 54 551 39 q 579 101 579 70 "},"g":{"x_min":53,"x_max":717,"ha":757,"o":"m 552 222 q 538 253 552 244 q 492 265 524 261 l 464 268 q 456 276 456 268 l 456 307 l 457 308 q 609 308 568 308 l 714 308 l 717 307 l 717 276 q 708 268 717 270 q 669 255 680 263 q 659 222 659 246 l 659 117 q 677 85 659 104 q 396 -14 534 -14 q 150 78 248 -14 q 53 305 53 170 q 155 563 53 467 q 413 659 257 659 q 538 646 457 659 q 637 633 620 633 q 654 456 637 546 l 618 451 q 396 621 586 621 q 228 537 289 621 q 167 323 167 453 q 176 248 167 288 q 206 168 186 208 q 256 96 227 128 q 328 43 285 63 q 421 23 372 23 q 552 78 496 23 l 552 222 "},"Ä¸":{"x_min":45,"x_max":700,"ha":726,"o":"m 249 299 l 249 93 q 263 58 249 71 q 307 40 277 46 l 322 38 q 331 29 331 35 l 331 0 l 329 -1 q 200 -1 241 -1 l 47 -1 l 45 0 l 45 29 q 54 38 45 38 l 82 40 q 127 58 112 44 q 142 93 142 72 l 142 556 q 128 588 142 578 q 82 601 115 597 l 54 604 q 45 609 45 604 l 45 639 l 46 641 q 203 641 160 641 l 329 641 l 331 639 l 331 610 q 322 604 331 606 l 307 600 q 261 585 273 593 q 249 555 249 576 l 249 346 q 306 364 281 346 q 381 435 332 382 q 481 574 481 543 q 470 591 481 583 q 440 604 459 600 q 432 610 432 606 l 432 641 l 433 641 q 586 641 545 641 l 683 641 l 688 641 l 688 609 q 676 602 688 602 q 625 598 643 602 q 582 580 607 594 q 534 538 558 565 l 415 400 q 383 349 383 366 q 396 325 383 340 l 605 72 q 683 39 623 52 l 690 38 q 700 29 700 34 l 700 0 l 696 0 q 583 0 622 0 l 498 0 l 497 0 l 497 17 q 476 72 497 49 l 322 264 q 290 291 307 284 q 249 299 273 299 "},"Â²":{"x_min":62,"x_max":374.859375,"ha":426,"o":"m 101 816 q 76 826 88 816 q 65 849 65 836 q 73 881 65 864 q 97 916 81 899 q 144 945 114 933 q 213 957 174 957 q 284 947 252 957 q 339 910 315 937 q 364 841 364 883 q 333 758 364 796 q 239 675 303 721 q 148 551 148 610 l 260 551 q 288 559 276 551 q 312 583 301 567 q 328 611 322 600 q 341 643 333 623 l 374 637 q 348 506 354 568 l 62 506 q 95 594 62 552 q 188 683 129 637 q 241 730 224 710 q 270 776 259 749 q 282 840 282 803 q 257 903 282 883 q 207 924 233 924 q 150 912 167 924 q 133 882 133 900 q 136 865 133 876 q 140 849 140 854 q 126 825 140 834 q 101 816 113 816 "},"â€“":{"x_min":56,"x_max":688,"ha":742,"o":"m 56 400 l 688 400 l 688 331 l 56 331 l 56 400 "},"Ã«":{"x_min":45,"x_max":579.125,"ha":630,"o":"m 544 641 q 562 472 544 569 l 528 468 q 514 509 522 492 q 492 548 506 527 q 454 580 477 568 q 399 592 430 592 l 288 592 q 257 585 266 592 q 248 562 248 579 l 248 357 l 351 357 q 390 367 378 357 q 406 401 401 378 l 414 431 q 422 438 414 438 l 445 438 q 449 433 449 438 q 440 330 440 354 q 449 234 440 317 l 445 232 l 423 232 q 413 238 413 232 l 406 269 q 389 302 402 291 q 351 313 377 313 l 248 313 l 248 81 q 257 55 248 62 q 288 48 267 48 l 407 48 q 495 80 465 48 q 545 173 525 112 l 579 169 q 552 -1 552 70 l 183 -1 l 46 -1 l 45 0 l 45 31 q 53 37 45 37 l 85 40 q 129 53 117 43 q 141 84 141 62 l 141 558 q 128 590 141 581 q 85 599 115 599 l 53 603 q 45 609 45 604 l 45 639 l 46 641 l 184 641 l 285 641 l 544 641 m 389 798 q 408 842 389 824 q 453 861 427 861 q 497 842 479 861 q 516 798 516 824 q 497 753 516 772 q 453 734 479 734 q 408 753 427 734 q 389 798 389 772 m 167 798 q 185 842 167 824 q 229 861 203 861 q 274 842 255 861 q 293 798 293 824 q 274 753 293 772 q 229 734 255 734 q 185 753 203 734 q 167 798 167 772 "},"J":{"x_min":-82,"x_max":421,"ha":437,"o":"m 82 -185 q 112 -179 97 -185 q 143 -154 126 -173 q 171 -105 159 -136 q 190 -21 182 -75 q 199 104 199 32 l 199 779 q 178 841 199 827 q 100 856 157 856 l 72 856 q 60 867 60 856 l 60 894 l 62 897 q 253 897 198 897 l 417 897 l 421 894 l 421 868 q 409 856 421 856 l 386 856 q 328 842 344 856 q 312 797 312 827 l 312 134 q 290 -15 312 49 q 240 -119 269 -81 q 165 -193 210 -157 q 6 -248 100 -248 q -51 -227 -21 -248 q -82 -172 -82 -206 q -63 -137 -82 -151 q -29 -122 -45 -122 q 5 -129 -9 -122 q 27 -141 21 -135 q 43 -160 34 -148 q 82 -185 61 -185 "},"Ãƒ":{"x_min":3,"x_max":958,"ha":965,"o":"m 365 394 l 607 394 l 470 765 l 469 765 l 330 411 q 336 398 326 402 q 365 394 346 394 m 210 109 q 214 62 200 82 q 266 39 229 42 l 307 39 q 318 27 318 39 l 318 0 l 315 -1 q 131 -1 164 -1 l 5 -1 l 3 0 l 3 27 q 13 39 3 39 q 93 59 64 39 q 148 142 121 79 l 457 865 q 479 901 466 886 q 505 915 493 915 q 524 905 516 915 q 541 873 532 895 l 826 119 q 863 61 840 79 q 928 39 886 43 l 944 37 q 958 26 958 37 l 958 0 l 953 -1 q 792 -1 846 -1 l 608 -1 l 607 0 l 607 27 q 616 39 607 39 l 655 39 q 710 56 695 42 q 714 99 724 70 l 629 336 l 340 336 q 306 330 316 336 q 291 312 297 325 l 210 109 m 585 1035 q 625 1049 610 1035 q 655 1106 641 1064 l 688 1098 q 568 974 663 974 q 479 1009 533 974 q 404 1040 427 1040 q 362 1024 377 1040 q 336 974 346 1009 l 302 980 q 343 1073 317 1043 q 413 1104 369 1104 q 514 1065 457 1104 q 585 1035 554 1035 "},"Å·":{"x_min":17,"x_max":648,"ha":664,"o":"m 365 906 q 505 727 409 835 l 476 707 q 329 833 375 784 q 180 707 270 772 l 152 727 q 296 906 253 839 l 365 906 m 284 85 l 284 272 l 108 560 q 77 591 95 581 q 27 604 59 600 q 17 610 17 604 l 17 639 l 19 641 q 75 641 25 641 q 133 641 125 641 q 272 642 240 641 l 275 641 l 275 610 q 272 606 275 608 q 267 604 270 604 l 237 601 q 212 589 214 599 q 223 561 210 578 l 364 332 l 367 332 l 495 561 q 507 593 510 587 q 481 601 505 599 l 449 604 q 443 610 443 604 l 443 641 l 445 641 q 499 641 453 641 q 552 641 546 641 q 646 641 606 641 l 648 639 l 648 610 q 638 604 648 605 l 614 601 q 571 587 583 597 q 543 548 559 578 l 390 278 l 390 85 q 402 53 390 63 q 449 40 415 44 l 478 38 q 488 29 488 38 l 488 0 l 485 -1 q 336 -1 379 -1 l 189 -1 l 186 0 l 186 29 q 189 35 186 33 q 196 38 192 38 l 224 40 q 270 54 256 44 q 284 85 284 64 "},"Å•":{"x_min":45,"x_max":654.734375,"ha":668,"o":"m 453 931 q 472 934 461 934 q 540 908 512 934 q 548 902 546 903 l 553 887 l 393 734 q 352 707 365 707 q 340 712 346 707 q 334 724 334 717 q 342 755 334 742 l 453 931 m 449 481 q 421 573 449 545 q 328 601 394 601 q 260 590 277 601 q 244 558 244 580 l 244 334 l 291 334 q 411 366 374 334 q 449 481 449 398 m 140 85 l 140 552 q 134 575 140 566 q 114 590 128 585 q 89 596 101 594 q 56 601 77 598 q 49 604 52 601 q 46 609 46 607 l 46 639 l 48 641 q 190 641 134 641 q 263 641 218 641 q 323 641 308 641 q 490 600 428 641 q 553 480 553 559 q 508 368 553 411 q 400 318 463 325 l 400 316 q 459 286 431 314 q 501 223 487 258 l 548 119 q 591 46 571 68 q 645 24 611 24 l 654 -5 q 579 -17 624 -17 q 541 -7 560 -17 q 508 15 522 1 q 480 47 494 29 q 459 80 467 66 q 444 109 451 94 l 402 193 q 384 227 394 212 q 358 258 374 242 q 315 283 341 274 q 255 293 288 293 l 244 293 l 244 91 q 307 39 244 51 l 323 37 q 334 28 334 34 l 334 0 l 329 -2 q 190 -2 231 -2 l 46 -2 l 45 0 l 45 28 q 52 37 45 37 l 81 39 q 126 53 113 43 q 140 85 140 64 "},"â€�":{"x_min":46,"x_max":418,"ha":467,"o":"m 380 301 l 66 301 q 51 308 57 301 q 46 324 46 315 q 57 358 46 341 q 80 376 68 376 l 399 376 q 418 351 418 376 q 405 319 418 338 q 380 301 393 301 "},"Â©":{"x_min":47,"x_max":831,"ha":878,"o":"m 606 301 q 541 239 582 265 q 446 213 499 213 q 291 276 350 213 q 233 427 233 339 q 291 570 233 507 q 442 634 349 634 q 532 624 497 634 q 585 614 568 614 l 602 505 l 565 500 q 555 543 559 529 q 538 574 550 557 q 503 598 526 591 q 443 605 480 605 q 401 596 422 605 q 358 570 380 588 q 324 513 337 551 q 311 424 311 476 q 347 300 311 350 q 451 251 383 251 q 577 321 528 251 l 606 301 m 591 63 q 439 32 519 32 q 286 63 359 32 q 161 147 213 94 q 77 273 108 200 q 47 425 47 346 q 78 577 47 504 q 161 702 109 650 q 286 786 214 755 q 439 817 359 817 q 591 786 519 817 q 716 702 664 755 q 800 577 769 650 q 831 425 831 505 q 800 272 831 345 q 716 147 769 199 q 591 63 664 94 m 439 774 q 263 727 344 774 q 136 600 182 680 q 90 425 90 520 q 136 250 90 331 q 263 123 182 170 q 439 77 344 77 q 614 123 533 77 q 741 250 694 169 q 788 425 788 330 q 741 600 788 520 q 614 727 695 680 q 439 774 534 774 "},"Ä‚":{"x_min":3,"x_max":958,"ha":965,"o":"m 365 394 l 607 394 l 470 765 l 469 765 l 330 411 q 336 398 326 402 q 365 394 346 394 m 211 109 q 215 62 200 82 q 266 39 229 42 l 307 39 q 318 27 318 39 l 318 0 l 315 -1 q 131 -1 164 -1 l 5 -1 l 3 0 l 3 27 q 13 39 3 39 q 93 59 64 39 q 148 142 121 79 l 457 865 q 479 901 466 886 q 505 915 493 915 q 524 905 516 915 q 541 873 532 895 l 826 119 q 863 61 840 79 q 928 39 886 43 l 944 37 q 958 26 958 37 l 958 0 l 953 -1 q 792 -1 846 -1 l 608 -1 l 607 0 l 607 27 q 616 39 607 39 l 655 39 q 710 56 695 42 q 714 99 724 70 l 629 336 l 340 336 q 306 330 316 336 q 291 312 297 325 l 211 109 m 684 1118 q 623 1003 678 1046 q 495 960 568 960 q 364 1002 418 960 q 311 1118 311 1045 l 347 1118 q 397 1055 355 1078 q 497 1033 440 1033 q 596 1056 552 1033 q 646 1118 640 1079 l 684 1118 "},"D":{"x_min":24,"x_max":908,"ha":968,"o":"m 24 27 q 33 40 24 40 l 75 40 q 129 54 112 40 q 147 101 147 68 l 147 797 q 133 845 147 834 q 75 856 119 856 l 36 856 q 24 867 24 856 l 24 894 l 26 897 q 114 897 60 897 q 201 897 167 897 q 315 897 245 897 q 429 897 385 897 q 670 834 560 897 q 844 663 780 771 q 908 428 908 555 q 893 297 908 357 q 852 194 878 237 q 790 116 826 150 q 715 60 754 82 q 629 24 675 38 q 541 4 584 10 q 454 -1 498 -1 q 311 -1 377 -1 q 201 -1 245 -1 q 26 -1 87 -1 l 24 0 l 24 27 m 260 100 q 269 66 260 76 q 311 50 279 55 q 411 45 342 45 q 525 54 473 45 q 625 87 576 63 q 707 150 674 111 q 760 250 740 188 q 781 394 781 312 q 768 524 781 461 q 724 646 755 587 q 648 750 694 706 q 533 822 603 795 q 376 849 463 849 q 328 849 346 849 q 293 844 310 849 q 268 828 276 839 q 260 799 260 817 l 260 100 "},"â�‡":{"x_min":40,"x_max":1035,"ha":1085,"o":"m 135 794 q 143 758 135 768 q 151 724 151 748 q 134 689 151 702 q 97 676 118 676 q 57 689 75 676 q 40 735 40 703 q 111 861 40 805 q 283 916 174 916 q 450 858 388 916 q 512 705 512 801 q 502 645 512 674 q 479 595 492 615 q 444 552 466 575 q 406 518 422 530 q 365 487 390 505 q 292 417 306 444 q 268 316 268 368 l 268 255 q 250 241 268 241 q 232 255 232 241 l 232 319 q 234 368 232 347 q 244 420 236 389 q 273 482 252 451 q 324 543 293 513 q 388 618 369 584 q 408 700 408 653 q 367 821 408 769 q 269 874 327 874 q 173 850 211 874 q 135 794 135 827 m 197 7 q 176 59 176 29 q 197 110 176 88 q 249 133 219 133 q 301 110 279 133 q 323 59 323 88 q 301 7 323 29 q 249 -14 279 -14 q 197 7 219 -14 m 657 794 q 665 758 657 768 q 673 724 673 748 q 657 689 673 702 q 619 676 640 676 q 579 689 597 676 q 562 735 562 703 q 633 861 562 805 q 806 916 696 916 q 973 858 911 916 q 1035 705 1035 801 q 1025 645 1035 674 q 1002 595 1015 615 q 967 552 989 575 q 929 518 945 530 q 888 487 913 505 q 815 417 829 444 q 790 316 790 368 l 790 255 q 772 241 790 241 q 754 255 754 241 l 754 319 q 756 368 754 347 q 766 420 758 389 q 795 482 775 451 q 847 543 815 513 q 911 618 892 584 q 931 700 931 653 q 890 821 931 769 q 791 874 850 874 q 695 850 733 874 q 657 794 657 827 m 720 7 q 699 59 699 29 q 720 110 699 88 q 772 133 742 133 q 824 110 802 133 q 846 59 846 88 q 824 7 846 29 q 772 -14 802 -14 q 720 7 742 -14 "},"Å‚":{"x_min":9.734375,"x_max":554.125,"ha":583,"o":"m 384 48 q 437 57 415 48 q 475 85 460 66 q 500 124 491 104 q 519 174 510 144 l 554 170 q 527 -1 527 64 l 184 -1 q 169 -1 180 -1 q 126 -1 158 -1 q 46 -1 94 -1 l 45 0 l 45 29 q 53 37 45 37 l 85 40 q 130 52 118 43 q 142 86 142 61 l 142 292 l 33 228 l 9 270 l 142 348 l 142 556 q 128 588 142 578 q 82 601 114 597 l 54 604 q 45 612 45 604 l 45 639 l 46 641 q 199 641 155 641 l 343 641 l 345 639 l 345 612 q 336 604 345 604 l 307 601 q 261 588 274 598 q 249 556 249 577 l 249 410 l 339 463 l 363 422 l 249 354 l 249 82 q 258 55 249 63 q 287 48 267 48 l 384 48 "},"Ã¿":{"x_min":17,"x_max":648,"ha":664,"o":"m 407 797 q 425 841 407 823 q 470 860 444 860 q 514 841 496 860 q 533 797 533 823 q 514 752 533 771 q 470 733 496 733 q 425 752 444 733 q 407 797 407 771 m 184 797 q 202 841 184 823 q 247 860 220 860 q 291 841 272 860 q 311 797 311 823 q 291 752 311 771 q 247 733 272 733 q 202 752 220 733 q 184 797 184 771 m 284 85 l 284 272 l 108 560 q 76 591 94 581 q 27 604 58 600 q 17 610 17 604 l 17 639 l 19 641 q 75 641 25 641 q 133 641 125 641 q 272 642 240 641 l 275 641 l 275 610 q 272 606 275 608 q 267 604 270 604 l 237 601 q 212 589 214 599 q 223 561 210 578 l 364 332 l 366 332 l 495 561 q 507 593 510 587 q 481 601 505 599 l 449 604 q 443 610 443 604 l 443 641 l 445 641 q 499 641 453 641 q 552 641 545 641 q 646 641 606 641 l 648 639 l 648 610 q 638 604 648 605 l 614 601 q 571 587 583 597 q 543 548 559 578 l 390 278 l 390 85 q 402 53 390 63 q 449 40 415 44 l 478 38 q 488 29 488 38 l 488 0 l 485 -1 q 336 -1 379 -1 l 189 -1 l 186 0 l 186 29 q 189 35 186 33 q 196 38 192 38 l 224 40 q 270 54 256 44 q 284 85 284 64 "},"Äº":{"x_min":45,"x_max":554.125,"ha":597,"o":"m 289 931 q 308 934 297 934 q 376 909 350 934 q 384 902 382 903 l 388 887 l 229 735 q 189 708 201 708 q 176 713 182 708 q 170 724 170 718 q 178 756 170 743 l 289 931 m 384 48 q 437 57 415 48 q 475 85 460 66 q 500 124 491 104 q 519 174 510 144 l 554 170 q 527 -1 527 64 l 184 -1 q 169 -1 180 -1 q 126 -1 158 -1 q 46 -1 94 -1 l 45 0 l 45 29 q 53 37 45 37 l 85 40 q 130 52 118 43 q 142 86 142 61 l 142 556 q 128 588 142 578 q 82 601 114 597 l 54 604 q 45 612 45 604 l 45 639 l 46 641 q 199 641 155 641 l 343 641 l 345 639 l 345 612 q 336 604 345 604 l 307 601 q 261 588 274 598 q 249 556 249 577 l 249 82 q 258 55 249 63 q 287 48 267 48 l 384 48 "},"Å�":{"x_min":7.046875,"x_max":701.5,"ha":731,"o":"m 430 624 l 455 582 l 260 469 l 260 123 q 277 72 260 91 q 325 54 295 54 l 485 54 q 552 68 523 54 q 602 108 582 82 q 635 164 622 135 q 660 236 648 194 l 701 229 q 668 -1 668 83 q 499 -1 537 -1 l 204 -1 l 26 -1 l 24 0 l 24 28 q 34 40 24 40 l 76 40 q 133 50 119 40 q 147 96 147 61 l 147 405 l 32 339 l 7 382 l 147 462 l 147 800 q 130 843 147 830 q 71 856 113 856 l 34 856 q 24 867 24 856 l 24 896 l 26 897 q 201 897 147 897 l 380 897 l 383 896 l 383 867 q 372 856 383 856 l 336 856 q 276 842 293 856 q 260 800 260 829 l 260 526 l 430 624 "},"â€ˆ":{"x_min":0,"x_max":0,"ha":230},"$":{"x_min":56.578125,"x_max":552,"ha":608,"o":"m 125 13 q 105 5 116 13 q 77 -2 93 -2 q 56 202 77 51 l 92 206 q 158 87 110 137 q 273 29 205 37 l 273 366 q 219 392 240 381 q 164 426 197 404 q 111 472 131 449 q 76 529 91 495 q 62 603 62 564 q 81 681 62 645 q 132 740 101 717 q 200 776 164 762 q 273 793 236 789 l 273 871 l 320 871 l 320 794 q 404 787 347 794 q 482 783 462 781 q 509 584 482 738 l 472 579 l 466 604 q 411 710 445 674 q 320 751 376 745 l 320 454 q 552 215 552 368 q 552 188 552 201 q 546 151 552 175 q 532 107 541 128 q 505 64 523 87 q 464 25 488 41 q 403 -3 440 8 q 320 -16 365 -16 l 320 -113 l 273 -113 l 273 -16 q 183 -1 230 -16 q 125 13 136 13 m 320 348 l 320 29 q 364 42 343 33 q 407 68 385 51 q 441 112 428 84 q 454 175 454 139 q 442 245 454 215 q 407 296 430 276 q 365 327 385 315 q 320 348 346 338 m 273 473 l 273 751 q 186 706 221 744 q 151 608 151 667 q 273 473 151 530 "},"w":{"x_min":14,"x_max":1054,"ha":1066,"o":"m 335 -17 q 288 37 309 -17 l 100 549 q 40 600 85 589 l 28 604 q 14 610 14 606 l 14 639 l 17 641 q 114 641 74 641 l 261 641 l 263 639 l 263 612 q 253 604 263 604 l 229 601 q 201 586 206 598 q 206 558 197 574 l 369 118 l 484 439 q 493 475 493 465 q 490 504 493 495 l 469 558 q 396 604 456 595 q 384 610 384 606 l 384 639 l 386 641 q 490 641 445 641 l 639 641 l 642 639 l 642 610 q 632 604 642 604 l 600 600 q 578 540 557 596 l 737 108 l 902 555 q 906 574 906 564 q 896 591 906 583 q 869 601 887 599 l 840 604 q 832 610 832 604 l 832 639 l 833 641 q 960 641 916 641 l 1051 641 l 1054 641 l 1054 610 q 1041 602 1054 602 q 994 589 1013 602 q 969 565 975 577 q 957 538 962 554 l 775 38 q 717 -17 755 -17 q 690 -11 702 -17 q 671 4 678 -6 q 660 21 663 14 q 653 38 656 28 l 537 365 q 520 394 525 394 q 507 369 516 394 l 390 38 q 379 11 384 21 q 363 -7 375 1 q 335 -17 352 -17 "},"â€§":{"x_min":56,"x_max":203,"ha":305,"o":"m 56 361 q 77 413 56 391 q 129 435 99 435 q 181 413 159 435 q 203 361 203 391 q 181 309 203 331 q 129 288 159 288 q 77 309 99 288 q 56 361 56 331 "},"\\":{"x_min":15.59375,"x_max":396.046875,"ha":398,"o":"m 76 970 l 396 -67 l 335 -67 l 15 970 l 76 970 "},"ÃŒ":{"x_min":24,"x_max":383,"ha":407,"o":"m 260 800 l 260 95 q 276 52 260 64 q 336 40 293 40 l 372 40 q 383 28 383 40 l 383 0 l 380 -1 q 203 -1 313 -1 q 27 -1 95 -1 l 25 0 l 25 28 q 34 40 25 40 l 71 40 q 131 52 115 40 q 147 95 147 65 l 147 800 q 130 843 147 831 q 71 856 113 856 l 34 856 q 24 867 24 856 l 24 896 l 26 897 q 202 897 95 897 q 380 897 312 897 l 383 896 l 383 867 q 372 856 383 856 l 336 856 q 277 842 294 856 q 260 800 260 829 m 137 1135 l 305 1019 q 326 990 326 1004 q 305 969 326 969 q 245 985 288 969 l 31 1073 l 137 1135 "},"Ã‡":{"x_min":52,"x_max":846.390625,"ha":895,"o":"m 497 -116 q 435 -124 462 -116 l 427 -116 l 472 -11 q 287 28 369 -11 q 155 133 205 68 q 78 275 104 197 q 52 436 52 353 q 88 627 52 537 q 187 779 125 717 q 328 878 248 842 q 495 915 409 915 q 603 905 553 915 q 681 885 653 896 q 742 863 710 873 q 803 853 774 853 q 830 637 803 755 l 788 631 q 480 863 718 863 q 405 849 445 863 q 324 803 366 835 q 249 726 282 771 q 194 613 215 681 q 173 464 173 544 q 185 342 173 402 q 223 228 197 282 q 286 132 249 173 q 376 67 323 91 q 492 43 430 43 q 665 78 589 43 q 814 195 741 114 l 846 174 q 521 -6 714 -6 l 494 -76 q 530 -72 513 -72 q 601 -95 573 -72 q 630 -158 630 -119 q 587 -229 630 -202 q 481 -257 545 -257 q 378 -232 431 -257 l 392 -202 q 461 -220 441 -220 q 472 -222 466 -222 q 531 -206 506 -222 q 556 -165 556 -191 q 539 -130 556 -143 q 497 -116 522 -116 "},"Åœ":{"x_min":47.015625,"x_max":604,"ha":659,"o":"m 533 876 q 558 665 533 786 l 517 659 q 505 699 510 683 q 489 739 499 716 q 469 779 480 763 q 444 814 459 796 q 410 842 428 832 q 367 860 392 853 q 314 867 343 867 q 204 822 247 867 q 162 711 162 777 q 357 522 162 593 q 428 495 399 507 q 493 459 457 482 q 551 410 529 436 q 588 344 573 384 q 604 255 604 304 q 569 122 604 185 q 469 21 534 60 q 328 -17 405 -17 q 228 -11 268 -17 q 168 0 188 -5 q 136 6 147 6 q 103 3 122 6 q 72 0 84 0 q 47 242 72 60 l 88 247 q 305 33 134 33 q 438 78 386 33 q 491 206 491 124 q 482 273 491 243 q 461 321 474 302 q 427 357 448 340 q 386 383 405 373 q 337 404 366 392 q 281 426 305 416 q 222 454 257 436 q 163 492 187 472 q 114 539 138 513 q 78 600 91 565 q 66 673 66 635 q 106 800 66 743 q 205 886 146 857 q 326 915 265 915 q 416 908 383 915 q 475 891 448 901 q 533 876 501 881 m 346 1128 q 486 997 400 1062 l 464 968 q 317 1054 380 1007 q 168 968 246 1003 l 149 997 q 286 1128 208 1043 l 346 1128 "},"C":{"x_min":52,"x_max":846.390625,"ha":895,"o":"m 493 -14 q 333 11 406 -14 q 209 80 260 36 q 121 181 157 123 q 68 304 85 239 q 52 437 52 369 q 88 627 52 538 q 187 779 125 717 q 328 878 248 842 q 495 915 409 915 q 603 905 553 915 q 681 885 653 896 q 742 862 710 873 q 803 852 774 852 q 830 636 803 754 l 788 630 q 480 863 718 863 q 405 849 445 863 q 324 803 366 835 q 249 726 282 771 q 194 613 215 681 q 173 463 173 544 q 185 341 173 401 q 223 227 197 281 q 286 131 249 173 q 376 66 323 90 q 492 42 430 42 q 665 77 589 42 q 814 194 741 113 l 846 173 q 685 33 775 80 q 493 -14 595 -14 "},"Ä’":{"x_min":17,"x_max":721.4375,"ha":761,"o":"m 617 897 q 630 811 619 888 q 647 696 642 735 l 607 689 q 589 742 596 722 q 568 783 581 762 q 540 815 555 805 q 502 833 525 826 q 448 841 479 841 l 302 841 q 264 831 276 841 q 253 796 253 821 l 253 502 l 428 502 q 479 515 464 502 q 497 560 494 529 l 502 595 q 504 602 502 599 q 511 606 507 606 l 539 606 q 545 600 545 606 q 545 481 545 526 l 545 354 l 543 350 l 510 350 q 501 353 504 350 q 498 359 498 356 l 498 396 q 482 438 498 426 q 430 450 466 450 l 253 450 l 253 100 q 265 64 253 74 q 302 55 277 55 l 491 55 q 678 236 628 55 l 721 229 l 669 -1 q 492 -1 558 -1 l 196 -1 l 19 -1 l 17 0 l 17 29 q 27 39 17 39 l 69 39 q 124 56 108 42 q 140 99 140 70 l 140 798 q 124 841 140 829 q 69 857 109 854 l 27 857 q 17 867 17 857 l 17 896 l 19 897 q 196 897 159 897 l 546 897 q 611 902 580 897 q 617 897 617 902 m 534 1019 l 195 1019 q 181 1025 186 1019 q 177 1040 177 1031 q 186 1066 177 1052 q 207 1080 196 1080 l 548 1080 q 562 1073 557 1080 q 568 1061 568 1067 q 557 1033 568 1047 q 534 1019 546 1019 "},"êœ¡":{"x_min":37,"x_max":812.953125,"ha":871,"o":"m 141 -184 l 340 -141 l 340 0 l 442 0 l 442 -118 l 793 -38 l 812 -144 l 37 -318 l 37 -245 l 37 -208 l 37 97 l 141 97 l 141 -184 "},"!":{"x_min":82,"x_max":235,"ha":315,"o":"m 156 915 q 211 888 188 915 q 235 813 235 862 q 219 675 235 762 q 196 545 203 588 q 184 420 184 479 q 184 329 184 361 q 176 291 184 297 q 153 264 173 264 q 130 282 133 264 q 130 335 130 291 q 130 438 130 380 q 116 545 130 497 q 97 676 112 593 q 82 813 82 759 q 105 889 82 864 q 156 915 128 915 m 104 7 q 83 59 83 29 q 104 110 83 88 q 156 133 126 133 q 208 110 186 133 q 230 59 230 88 q 208 7 230 29 q 156 -14 186 -14 q 104 7 126 -14 "},"Ã§":{"x_min":52,"x_max":624.34375,"ha":683,"o":"m 375 -111 q 313 -119 340 -111 l 305 -111 l 347 -16 q 221 21 278 -9 q 127 98 163 52 q 71 199 91 144 q 52 311 52 254 q 145 560 52 462 q 377 659 238 659 q 512 646 440 659 q 604 634 584 634 q 619 455 604 558 l 583 451 q 521 573 570 528 q 385 618 471 618 q 322 610 351 618 q 263 581 292 602 q 212 529 233 560 q 178 444 191 497 q 166 324 166 391 q 173 240 166 281 q 196 161 180 200 q 238 93 213 122 q 303 47 263 65 q 390 30 342 30 q 503 52 459 30 q 596 133 547 75 l 624 110 q 523 14 576 45 q 395 -16 469 -16 l 372 -71 q 408 -67 389 -67 q 479 -90 451 -67 q 508 -153 508 -114 q 465 -224 508 -197 q 358 -252 423 -252 q 256 -228 311 -252 l 269 -197 q 350 -217 322 -217 q 409 -202 384 -217 q 434 -160 434 -187 q 417 -125 434 -138 q 375 -111 400 -111 "},"Ä´":{"x_min":-82,"x_max":421,"ha":437,"o":"m 82 -185 q 112 -179 97 -185 q 143 -154 126 -173 q 171 -105 159 -136 q 190 -21 182 -75 q 199 104 199 32 l 199 779 q 178 841 199 827 q 100 856 157 856 l 72 856 q 60 867 60 856 l 60 894 l 62 897 q 253 897 198 897 l 417 897 l 421 894 l 421 868 q 409 856 421 856 l 386 856 q 328 842 344 856 q 312 797 312 827 l 312 134 q 290 -15 312 49 q 240 -119 269 -81 q 165 -193 210 -157 q 6 -248 100 -248 q -51 -227 -21 -248 q -82 -172 -82 -206 q -63 -137 -82 -151 q -29 -122 -45 -122 q 5 -129 -9 -122 q 27 -141 21 -135 q 43 -160 34 -148 q 82 -185 61 -185 m 277 1119 q 416 987 332 1051 l 394 958 q 248 1045 308 998 q 98 958 177 994 l 79 987 q 216 1119 138 1032 l 277 1119 "},"Ãˆ":{"x_min":17,"x_max":721.4375,"ha":761,"o":"m 617 897 q 630 811 619 888 q 647 696 642 735 l 607 689 q 588 742 596 722 q 568 783 581 762 q 540 815 555 805 q 501 833 524 826 q 448 841 478 841 l 302 841 q 264 831 276 841 q 253 796 253 821 l 253 502 l 428 502 q 479 515 464 502 q 497 560 494 529 l 502 595 q 504 602 502 599 q 511 606 507 606 l 539 606 q 545 600 545 606 q 545 481 545 526 l 545 354 l 543 350 l 510 350 q 501 353 504 350 q 498 359 498 356 l 498 396 q 482 438 498 426 q 430 450 466 450 l 253 450 l 253 100 q 265 64 253 74 q 302 55 277 55 l 491 55 q 678 236 628 55 l 721 229 l 669 -1 q 492 -1 558 -1 l 197 -1 l 19 -1 l 17 0 l 17 29 q 27 39 17 39 l 69 39 q 124 56 108 42 q 140 99 140 70 l 140 798 q 124 841 140 829 q 69 857 109 854 l 27 857 q 17 867 17 857 l 17 896 l 19 897 q 197 897 159 897 l 546 897 q 611 902 579 897 q 617 897 617 902 m 340 1135 l 508 1019 q 529 990 529 1004 q 508 969 529 969 q 448 985 491 969 l 234 1073 l 340 1135 "},"X":{"x_min":4,"x_max":905,"ha":909,"o":"m 18 869 l 18 896 l 23 898 q 165 898 149 898 l 330 898 q 337 896 335 896 l 337 868 q 329 858 337 858 l 285 858 q 261 853 269 858 q 255 839 254 849 q 262 821 257 830 q 279 795 267 812 l 444 550 q 461 535 456 535 q 479 552 466 535 l 658 795 q 677 828 672 815 q 675 849 681 841 q 649 858 669 858 l 608 858 q 599 868 599 858 l 599 897 l 601 898 q 739 898 723 898 l 873 898 l 878 897 l 878 869 q 865 859 878 859 q 812 852 835 859 q 770 830 789 845 q 741 803 752 815 q 713 767 730 791 l 530 521 q 513 479 513 496 q 534 433 513 462 l 749 141 q 895 40 817 40 q 905 29 905 40 l 905 0 l 902 -1 q 757 -1 828 -1 l 583 -1 l 579 0 l 579 28 q 587 38 579 38 l 615 40 q 658 55 656 45 q 633 101 660 66 l 450 363 q 430 378 438 378 q 409 358 423 378 l 226 107 q 208 75 212 88 q 213 52 204 63 q 247 40 221 42 l 273 38 q 282 28 282 36 l 282 0 l 277 -1 q 121 -1 142 -1 l 5 -1 l 4 0 l 4 28 q 19 38 4 38 q 72 48 47 38 q 118 77 98 59 q 151 109 138 95 q 178 144 163 123 l 369 404 q 383 436 383 422 q 363 478 383 454 l 163 763 q 39 860 103 849 q 18 869 18 864 "},"Ã´":{"x_min":52,"x_max":721.28125,"ha":771,"o":"m 375 610 q 298 591 335 610 q 232 538 262 572 q 184 448 202 504 q 167 325 167 392 q 232 113 167 196 q 397 30 296 30 q 548 105 491 30 q 606 307 606 180 q 538 526 606 442 q 375 610 471 610 m 721 326 q 698 196 721 257 q 634 87 676 135 q 526 11 593 39 q 376 -17 459 -17 q 144 74 236 -17 q 52 308 52 166 q 147 560 52 461 q 387 659 242 659 q 553 617 477 659 q 675 499 629 576 q 721 326 721 422 m 429 899 q 570 720 475 825 l 540 700 q 393 825 440 775 q 244 700 330 761 l 216 720 q 359 899 317 832 l 429 899 "},"â€Ÿ":{"x_min":71,"x_max":452.578125,"ha":522,"o":"m 157 968 q 211 947 190 968 q 232 897 232 927 q 211 844 232 865 q 161 823 191 823 q 125 831 139 823 q 121 795 121 816 q 148 742 121 770 q 226 703 175 715 l 220 675 q 113 730 155 686 q 71 836 71 774 q 94 931 71 894 q 157 968 117 968 m 377 968 q 431 947 410 968 q 452 897 452 927 q 431 845 452 867 q 380 823 409 823 q 345 833 357 823 q 340 795 340 817 q 367 743 340 770 q 446 703 395 716 l 438 675 q 332 731 374 687 q 291 836 291 774 q 314 931 291 895 q 377 968 337 968 "},"Ä–":{"x_min":17,"x_max":721.4375,"ha":761,"o":"m 617 897 q 630 811 619 888 q 647 696 642 735 l 607 689 q 588 742 596 722 q 568 783 581 762 q 540 815 555 805 q 501 833 524 826 q 448 841 478 841 l 302 841 q 264 831 276 841 q 253 796 253 821 l 253 502 l 428 502 q 479 515 464 502 q 497 560 494 529 l 502 595 q 504 602 502 599 q 511 606 507 606 l 539 606 q 545 600 545 606 q 545 481 545 526 l 545 354 l 543 350 l 510 350 q 501 353 504 350 q 498 359 498 356 l 498 396 q 482 438 498 426 q 430 450 466 450 l 253 450 l 253 100 q 265 64 253 74 q 302 55 277 55 l 491 55 q 678 236 628 55 l 721 229 l 669 -1 q 492 -1 558 -1 l 197 -1 l 19 -1 l 17 0 l 17 29 q 27 39 17 39 l 69 39 q 124 56 108 42 q 140 99 140 70 l 140 798 q 124 841 140 829 q 69 857 109 854 l 27 857 q 17 867 17 857 l 17 896 l 19 897 q 197 897 159 897 l 546 897 q 611 902 579 897 q 617 897 617 902 m 341 982 q 322 1029 322 1001 q 341 1076 322 1057 q 388 1096 360 1096 q 436 1076 416 1096 q 456 1029 456 1057 q 436 983 456 1002 q 388 964 416 964 q 341 982 360 964 "},"Ä€":{"x_min":3,"x_max":958,"ha":965,"o":"m 365 394 l 607 394 l 470 765 l 469 765 l 330 411 q 336 398 326 402 q 365 394 346 394 m 210 109 q 214 62 199 82 q 266 39 228 42 l 306 39 q 318 27 318 39 l 318 0 l 315 -1 q 130 -1 164 -1 l 5 -1 l 3 0 l 3 27 q 13 39 3 39 q 92 59 64 39 q 148 142 121 79 l 457 865 q 479 901 466 886 q 505 915 493 915 q 524 905 516 915 q 541 873 532 895 l 826 119 q 863 61 840 79 q 928 39 886 43 l 944 37 q 958 26 958 37 l 958 0 l 953 -1 q 792 -1 846 -1 l 608 -1 l 607 0 l 607 27 q 616 39 607 39 l 655 39 q 710 56 695 42 q 714 99 724 70 l 629 336 l 340 336 q 306 330 315 336 q 291 312 296 325 l 210 109 m 655 1010 l 316 1010 q 302 1016 307 1010 q 298 1031 298 1022 q 307 1057 298 1043 q 328 1071 317 1071 l 669 1071 q 683 1064 678 1071 q 689 1051 689 1058 q 678 1024 689 1038 q 655 1010 667 1010 "},"Ä‹":{"x_min":52,"x_max":624.34375,"ha":683,"o":"m 312 779 q 331 826 312 807 q 378 846 350 846 q 425 826 405 846 q 445 779 445 807 q 425 733 445 752 q 378 714 405 714 q 331 733 350 714 q 312 779 312 752 m 383 -17 q 242 11 306 -17 q 137 87 178 40 q 74 192 96 134 q 52 311 52 250 q 145 560 52 462 q 377 659 238 659 q 512 646 440 659 q 604 634 584 634 q 619 455 604 558 l 583 451 q 521 573 570 528 q 385 618 471 618 q 322 610 351 618 q 263 581 292 602 q 212 529 233 561 q 178 444 191 497 q 166 324 166 392 q 173 241 166 281 q 196 161 180 200 q 238 94 213 122 q 303 48 263 65 q 390 30 342 30 q 503 53 459 30 q 596 133 547 75 l 624 111 q 518 13 573 44 q 383 -17 462 -17 "},"Ä‘":{"x_min":41,"x_max":722,"ha":765,"o":"m 44 29 q 52 37 44 37 l 84 40 q 127 56 115 43 q 140 102 140 70 l 140 290 l 41 290 l 41 344 l 140 344 l 140 556 q 129 590 140 582 q 84 601 119 597 l 53 604 q 44 610 44 604 l 44 639 l 45 641 l 181 641 q 375 641 329 641 q 517 615 452 641 q 627 546 582 590 q 696 441 671 502 q 722 313 722 381 q 702 187 722 242 q 651 97 683 132 q 576 39 620 62 q 488 8 533 17 q 395 -1 444 -1 q 261 -1 331 -1 q 181 -1 192 -1 l 45 -1 l 44 0 l 44 29 m 247 98 q 248 77 247 85 q 257 60 250 68 q 276 46 263 51 q 309 39 288 42 q 362 36 331 36 q 546 93 484 36 q 609 289 609 150 q 335 604 609 604 q 268 596 289 604 q 247 564 247 589 l 247 344 l 331 344 l 331 290 l 247 290 l 247 98 "},"Ä¿":{"x_min":24,"x_max":701.5,"ha":731,"o":"m 485 54 q 552 68 523 54 q 602 108 582 82 q 635 165 622 135 q 660 236 648 195 l 701 229 q 668 -1 668 83 q 500 -1 538 -1 l 204 -1 l 26 -1 l 24 0 l 24 28 q 34 40 24 40 l 76 40 q 133 50 119 40 q 147 96 147 61 l 147 800 q 130 843 147 830 q 71 856 113 856 l 34 856 q 24 867 24 856 l 24 896 l 26 897 q 201 897 147 897 l 380 897 l 383 896 l 383 867 q 372 856 383 856 l 336 856 q 276 843 293 856 q 260 800 260 830 l 260 123 q 277 72 260 91 q 325 54 295 54 l 485 54 m 473 393 q 419 415 440 393 q 399 467 399 437 q 421 520 399 496 q 473 544 443 544 q 525 521 502 544 q 549 467 549 498 q 527 415 549 437 q 473 393 505 393 "},"Å‹":{"x_min":40,"x_max":790,"ha":830,"o":"m 612 8 l 254 451 q 218 484 226 484 q 209 474 211 484 q 207 436 207 463 l 207 96 q 221 54 207 71 q 264 37 235 37 l 293 37 q 304 28 304 37 l 304 0 l 300 -2 q 173 -2 215 -2 l 46 -2 l 40 0 l 40 28 q 55 37 40 37 l 83 37 q 128 55 113 37 q 143 96 143 73 l 143 547 q 115 585 137 567 q 68 603 93 603 l 62 603 q 50 609 50 603 l 50 638 l 53 642 l 226 642 l 584 202 q 624 163 620 163 q 631 173 630 167 l 631 543 q 616 585 631 567 q 571 603 601 603 l 543 603 q 528 609 528 603 l 528 638 l 536 640 q 663 640 624 640 l 788 640 l 790 640 l 790 611 q 787 605 790 607 q 781 603 785 603 l 752 603 q 709 585 723 603 q 695 543 695 568 l 695 0 q 679 -128 695 -86 q 616 -216 663 -171 q 512 -248 582 -248 q 462 -240 490 -248 q 411 -215 435 -233 q 387 -172 387 -197 q 426 -137 387 -137 q 458 -152 446 -137 q 472 -182 470 -168 q 476 -193 474 -189 q 487 -202 478 -198 q 510 -207 495 -207 q 582 -155 552 -207 q 612 8 612 -103 "},"}":{"x_min":40,"x_max":325,"ha":379,"o":"m 131 -49 l 131 183 q 151 307 131 269 q 225 365 172 344 q 149 430 167 388 q 131 560 131 472 l 131 773 q 107 893 131 853 q 96 909 101 901 q 84 921 90 916 q 74 930 78 927 q 63 937 69 934 q 55 940 57 939 q 46 943 52 941 q 40 946 40 946 l 40 962 q 196 917 161 962 q 232 753 232 870 l 232 527 q 236 470 232 495 q 250 424 240 445 q 279 388 260 402 q 325 369 297 374 l 325 361 q 232 204 232 337 l 232 -39 q 194 -188 232 -145 q 40 -235 156 -235 l 40 -218 q 109 -165 82 -206 q 131 -49 131 -128 "},"Ã¢":{"x_min":3,"x_max":745,"ha":747,"o":"m 223 228 l 163 82 q 157 63 157 66 q 170 44 157 50 q 213 39 184 39 l 231 39 q 237 36 234 39 q 240 30 240 34 l 240 0 l 237 -1 q 95 -1 122 -1 l 5 -1 l 3 0 l 3 29 q 5 35 3 33 q 11 38 8 38 q 45 44 32 40 q 73 61 58 48 q 100 97 89 74 l 345 623 q 365 649 351 639 q 389 659 378 659 q 444 624 430 659 l 647 106 q 681 53 664 66 q 733 38 698 41 q 745 29 745 36 l 745 0 l 740 -1 q 625 -1 666 -1 l 469 -1 l 467 0 l 467 29 q 476 38 467 38 l 501 40 q 543 49 530 44 q 557 66 557 54 q 554 82 557 71 l 492 243 l 254 243 q 223 228 227 243 m 475 284 l 366 558 l 364 558 l 259 303 q 260 294 259 297 q 267 287 261 291 q 286 284 273 284 l 475 284 m 435 905 q 575 725 480 831 l 546 706 q 399 831 446 781 q 250 706 340 771 l 222 725 q 366 905 324 840 l 435 905 "},"Ã¸":{"x_min":52,"x_max":721.28125,"ha":771,"o":"m 375 610 q 298 591 335 610 q 232 538 262 572 q 184 448 202 504 q 167 325 167 392 q 225 122 167 201 l 523 543 q 375 610 461 610 m 721 326 q 698 196 721 257 q 634 87 676 135 q 526 11 593 39 q 376 -17 459 -17 q 212 23 285 -17 l 151 -63 l 111 -37 l 172 50 q 83 160 115 93 q 52 308 52 227 q 147 560 52 461 q 387 659 242 659 q 570 607 488 659 l 624 685 l 664 659 l 608 579 q 691 468 660 534 q 721 326 721 403 m 554 504 l 257 86 q 397 30 317 30 q 548 105 491 30 q 606 307 606 180 q 554 504 606 422 "},"â€°":{"x_min":82,"x_max":1211,"ha":1303,"o":"m 1211 213 q 1199 137 1211 178 q 1166 58 1187 96 q 1110 -5 1145 19 q 1033 -31 1074 -31 q 942 11 977 -31 q 908 119 908 53 q 931 223 908 172 q 997 308 954 274 q 1091 342 1040 342 q 1133 336 1113 342 q 1171 316 1152 330 q 1200 276 1189 303 q 1211 213 1211 250 m 1040 9 q 1108 45 1077 9 q 1154 127 1139 81 q 1169 210 1169 172 q 1149 276 1169 256 q 1106 297 1130 297 q 1019 233 1060 297 q 979 101 979 169 q 995 34 979 59 q 1040 9 1012 9 m 600 106 q 619 35 600 57 q 662 13 638 13 q 728 48 698 13 q 774 130 759 84 q 789 217 789 177 q 782 260 789 242 q 764 287 775 278 q 744 298 754 295 q 726 302 735 302 q 664 269 694 302 q 617 191 634 236 q 600 106 600 146 m 527 125 q 581 277 527 208 q 711 347 636 347 q 795 317 760 347 q 831 220 831 288 q 819 141 831 183 q 786 61 807 99 q 730 -1 765 23 q 654 -27 694 -27 q 560 19 594 -27 q 527 125 527 66 m 505 716 q 618 732 560 716 q 714 790 675 749 l 766 780 l 193 -20 l 142 -7 l 641 690 q 491 664 576 664 q 433 672 467 664 q 380 693 400 681 q 385 658 385 677 q 373 581 385 623 q 340 501 361 540 q 283 437 319 462 q 207 412 248 412 q 136 435 166 412 q 94 492 107 458 q 82 563 82 525 q 136 715 82 645 q 263 785 191 785 q 318 774 291 785 q 357 750 346 763 q 505 716 432 716 m 153 544 q 172 474 153 495 q 215 453 191 453 q 281 487 251 453 q 326 568 311 522 q 342 657 342 615 q 323 721 342 702 q 279 741 304 741 q 217 708 247 741 q 169 630 186 676 q 153 544 153 585 "},"Ã„":{"x_min":3,"x_max":958,"ha":965,"o":"m 583 953 q 602 997 583 978 q 646 1016 621 1016 q 691 997 673 1016 q 710 953 710 978 q 691 908 710 927 q 646 890 673 890 q 602 908 621 890 q 583 953 583 927 m 294 908 q 276 952 276 926 q 294 996 276 978 q 339 1015 313 1015 q 383 996 365 1015 q 402 952 402 978 q 383 908 402 926 q 339 890 365 890 q 294 908 313 890 m 365 394 l 607 394 l 470 765 l 469 765 l 330 411 q 336 398 326 402 q 365 394 346 394 m 211 109 q 215 62 200 82 q 267 39 229 42 l 307 39 q 318 27 318 39 l 318 0 l 315 -1 q 131 -1 164 -1 l 5 -1 l 3 0 l 3 27 q 13 39 3 39 q 93 59 64 39 q 149 142 121 79 l 457 865 q 480 900 466 886 q 505 915 493 915 q 524 905 516 915 q 541 873 532 895 l 826 119 q 863 61 840 79 q 928 39 886 43 l 944 37 q 958 26 958 37 l 958 0 l 953 -1 q 792 -1 846 -1 l 608 -1 l 607 0 l 607 27 q 616 39 607 39 l 655 39 q 710 56 695 42 q 714 99 724 70 l 629 336 l 340 336 q 307 330 316 336 q 292 312 297 325 l 211 109 "},"Å™":{"x_min":45,"x_max":654.734375,"ha":668,"o":"m 287 707 q 146 888 235 791 l 174 905 q 322 780 273 833 q 472 905 373 833 l 498 888 q 356 707 403 780 l 287 707 m 449 481 q 421 573 449 545 q 328 601 394 601 q 260 590 277 601 q 244 558 244 580 l 244 334 l 291 334 q 411 366 374 334 q 449 481 449 398 m 140 85 l 140 552 q 134 575 140 566 q 114 590 128 585 q 89 596 101 594 q 56 601 77 598 q 49 604 52 601 q 46 609 46 607 l 46 639 l 48 641 q 190 641 134 641 q 263 641 218 641 q 323 641 308 641 q 490 600 428 641 q 553 480 553 559 q 508 368 553 411 q 400 318 463 325 l 400 316 q 459 286 431 314 q 501 223 487 258 l 548 119 q 591 46 571 68 q 645 24 611 24 l 654 -5 q 579 -17 624 -17 q 541 -7 560 -17 q 508 15 522 1 q 480 47 494 29 q 459 80 467 66 q 444 109 451 94 l 402 193 q 384 227 394 212 q 358 258 374 242 q 315 283 341 274 q 255 293 288 293 l 244 293 l 244 91 q 307 39 244 51 l 323 37 q 334 28 334 34 l 334 0 l 329 -2 q 190 -2 231 -2 l 46 -2 l 45 0 l 45 28 q 52 37 45 37 l 81 39 q 126 53 113 43 q 140 85 140 64 "},"â€”":{"x_min":40,"x_max":990,"ha":1030,"o":"m 40 400 l 990 400 l 990 331 l 40 331 l 40 400 "},"N":{"x_min":16,"x_max":962,"ha":966,"o":"m 838 774 l 838 29 q 809 -10 838 -10 q 753 20 774 -10 l 268 632 q 221 678 232 678 q 210 662 213 678 q 207 610 207 647 l 207 121 q 225 64 207 87 q 283 39 244 42 l 320 39 q 331 27 331 39 l 331 0 l 328 -1 q 173 -1 229 -1 l 18 -1 l 16 0 l 16 26 q 33 39 16 36 l 69 39 q 127 67 109 43 q 145 122 145 90 l 145 764 q 110 825 138 794 q 50 859 82 856 q 27 870 27 862 l 27 894 l 31 898 l 219 898 l 696 282 q 757 210 746 217 q 765 206 762 206 q 774 215 772 206 q 776 248 776 224 l 776 775 q 758 831 776 808 q 700 858 740 854 l 664 858 q 651 861 658 858 q 645 869 645 864 l 645 896 l 650 897 q 805 897 754 897 l 959 897 l 962 896 l 962 869 q 951 858 962 858 l 913 858 q 856 831 874 854 q 838 774 838 808 "},"â�„":{"x_min":-324.84375,"x_max":369.609375,"ha":61,"o":"m 311 836 l 369 836 l -267 -75 l -324 -75 l 311 836 "},"2":{"x_min":81,"x_max":539,"ha":611,"o":"m 82 615 q 96 678 82 645 q 137 738 111 710 q 208 785 164 767 q 304 803 252 803 q 386 791 346 803 q 461 756 426 779 q 517 693 496 733 q 539 603 539 653 q 529 536 539 567 q 499 476 520 505 q 460 426 479 446 q 406 372 441 405 l 274 244 q 244 212 264 234 q 199 149 224 190 q 175 81 175 108 l 410 81 q 467 102 446 81 q 502 180 488 124 l 537 175 l 509 0 l 81 0 q 85 57 81 33 q 102 113 89 81 q 145 183 116 146 q 222 269 175 221 l 319 365 q 403 479 377 424 q 429 597 429 534 q 415 676 429 642 q 379 726 401 709 q 336 751 357 743 q 295 760 315 760 q 202 734 231 760 q 174 676 174 708 q 178 644 174 665 q 184 614 184 625 q 168 576 184 589 q 134 564 153 564 q 97 579 112 564 q 82 615 82 594 "},"Ã¼":{"x_min":37,"x_max":739,"ha":776,"o":"m 381 -14 q 319 -6 351 -14 q 252 21 286 1 q 191 70 218 41 q 147 146 164 100 q 131 251 131 193 l 131 555 q 118 587 131 577 q 70 600 105 596 l 45 603 q 37 609 37 603 l 37 638 l 38 640 q 187 640 144 640 l 330 640 l 333 638 l 333 609 q 324 603 333 603 l 296 600 q 250 587 263 597 q 237 555 237 576 l 237 280 q 240 203 237 237 q 253 135 243 170 q 281 77 264 99 q 331 40 299 55 q 405 26 362 26 q 575 138 540 26 q 590 292 590 186 l 590 555 q 576 587 590 578 q 530 600 562 597 l 502 603 q 493 610 493 603 l 493 638 l 495 640 q 620 640 579 640 l 736 640 l 739 638 l 739 610 q 730 603 739 603 l 706 600 q 664 586 675 596 q 653 555 653 577 l 653 311 q 646 202 653 249 q 621 113 639 155 q 574 44 604 71 q 495 1 543 17 q 381 -14 447 -14 m 468 796 q 487 840 468 822 q 531 859 506 859 q 576 840 558 859 q 595 796 595 822 q 576 751 595 770 q 531 732 558 732 q 487 751 506 732 q 468 796 468 770 m 245 796 q 263 840 245 822 q 308 859 281 859 q 352 840 333 859 q 372 796 372 822 q 352 751 372 770 q 308 732 333 732 q 263 751 281 732 q 245 796 245 770 "},"â€�":{"x_min":0,"x_max":0,"ha":0},"Ã“":{"x_min":52,"x_max":920,"ha":970,"o":"m 464 867 q 383 852 422 867 q 305 805 343 837 q 240 725 268 772 q 194 608 211 679 q 178 454 178 538 q 206 276 178 357 q 282 142 234 195 q 389 61 329 90 q 511 33 448 33 q 712 140 633 33 q 792 430 792 248 q 703 754 792 642 q 464 867 615 867 m 920 457 q 800 116 920 246 q 483 -14 681 -14 q 266 39 363 -14 q 110 194 168 92 q 52 430 52 296 q 107 675 52 564 q 261 850 162 786 q 482 914 360 914 q 656 881 575 914 q 795 788 736 848 q 886 644 853 729 q 920 457 920 558 m 538 1139 l 624 1067 l 424 986 q 364 970 385 970 q 345 990 345 970 q 366 1019 345 1005 l 538 1139 "},"â€€":{"x_min":0,"x_max":0,"ha":692},"â±µ":{"x_min":17,"x_max":592.765625,"ha":646,"o":"m 253 797 l 253 509 l 448 509 q 496 523 482 509 q 517 570 511 537 l 528 611 q 531 619 528 615 q 538 623 534 623 l 587 623 q 592 616 592 623 q 587 576 591 604 q 583 526 583 547 q 583 485 583 505 q 592 351 583 441 l 588 347 l 537 347 q 526 356 526 347 l 517 400 q 496 446 512 430 q 448 461 481 461 l 253 461 l 253 100 q 270 53 253 67 q 328 39 287 39 l 365 39 q 376 28 376 39 l 376 1 l 374 0 q 200 0 254 0 l 20 0 l 18 1 l 18 28 q 28 39 18 39 l 65 39 q 124 54 106 39 q 142 100 142 69 l 142 797 q 123 844 142 829 q 65 859 105 859 l 28 859 q 17 869 17 859 l 17 896 l 19 897 q 194 897 140 897 l 373 897 l 376 896 l 376 869 q 365 859 376 859 l 328 859 q 270 843 287 859 q 253 797 253 828 "},"Å¸":{"x_min":0,"x_max":799,"ha":797,"o":"m 353 100 l 353 360 q 340 419 353 401 l 138 760 q 84 837 102 819 q 30 858 66 855 l 13 858 q 0 868 0 858 l 0 896 l 1 897 q 148 897 130 897 l 308 897 l 310 896 l 310 869 q 301 858 310 858 l 261 858 q 238 855 246 858 q 227 848 230 852 q 226 836 224 845 q 231 821 228 828 q 242 801 235 815 l 433 466 l 436 466 l 613 801 q 624 846 630 834 q 594 858 619 858 l 552 858 q 546 867 546 858 l 546 896 l 547 898 q 674 898 657 898 l 796 898 l 799 896 l 799 868 q 784 859 799 862 l 755 857 q 716 845 732 855 q 692 823 700 834 q 669 785 684 812 l 473 431 q 464 373 464 409 l 464 100 q 481 52 464 67 q 540 38 499 38 l 577 38 q 588 27 588 38 l 588 0 l 585 -1 q 410 -1 465 -1 l 231 -1 l 229 0 l 229 27 q 239 38 229 38 l 276 38 q 335 53 317 38 q 353 100 353 69 m 491 998 q 472 1043 472 1017 q 491 1087 472 1069 q 536 1106 510 1106 q 580 1087 562 1106 q 599 1043 599 1069 q 580 998 599 1017 q 536 980 562 980 q 491 998 510 980 m 268 998 q 250 1043 250 1017 q 268 1087 250 1069 q 312 1106 286 1106 q 357 1087 338 1106 q 376 1043 376 1069 q 357 998 376 1017 q 312 980 338 980 q 268 998 286 980 "},"Å³":{"x_min":37,"x_max":739,"ha":776,"o":"m 666 -181 q 517 -274 606 -274 q 421 -243 458 -274 q 384 -157 384 -212 q 460 -7 384 -86 q 381 -14 421 -14 q 318 -6 350 -14 q 252 21 286 1 q 191 70 218 41 q 147 146 164 100 q 131 251 131 193 l 131 555 q 118 587 131 577 q 70 600 105 596 l 45 603 q 37 609 37 603 l 37 638 l 38 640 q 187 640 144 640 l 330 640 l 333 638 l 333 609 q 324 603 333 603 l 296 600 q 250 587 264 597 q 237 555 237 576 l 237 280 q 240 203 237 237 q 253 135 243 170 q 281 77 264 99 q 331 40 299 55 q 405 26 362 26 q 575 138 540 26 q 590 292 590 186 l 590 555 q 576 587 590 578 q 530 600 562 597 l 502 603 q 493 610 493 603 l 493 638 l 495 640 q 620 640 579 640 l 736 640 l 739 638 l 739 610 q 730 603 739 603 l 706 600 q 664 586 675 596 q 653 555 653 577 l 653 311 q 597 71 653 145 l 602 66 q 563 29 575 40 q 529 -7 552 18 q 495 -51 506 -33 q 476 -96 485 -69 q 467 -149 467 -122 q 490 -199 467 -177 q 550 -222 514 -222 q 598 -210 578 -222 q 644 -171 617 -198 l 666 -181 "},"Å¬":{"x_min":0,"x_max":918,"ha":917,"o":"m 445 -14 q 364 -6 404 -14 q 279 25 323 1 q 201 84 234 48 q 146 183 168 121 q 124 327 124 246 l 124 794 q 107 841 124 826 q 49 856 90 856 l 10 856 q 0 867 0 856 l 0 896 l 2 897 q 177 897 123 897 l 356 897 l 359 896 l 359 867 q 348 856 359 856 l 312 856 q 254 841 271 856 q 237 797 237 827 l 237 374 q 237 318 237 337 q 240 265 237 299 q 251 209 244 231 q 273 159 258 186 q 309 112 288 133 q 475 42 381 42 q 553 50 518 42 q 615 74 589 58 q 659 109 640 89 q 691 155 679 128 q 712 208 704 182 q 724 266 720 233 q 729 325 729 299 q 729 385 729 352 l 729 794 q 712 841 729 827 q 655 856 696 856 l 617 856 q 607 867 607 856 l 607 896 l 609 897 q 762 897 707 897 l 915 897 l 918 896 l 918 867 q 906 856 918 856 l 870 856 q 811 839 828 856 q 794 792 794 822 l 794 409 q 785 270 794 330 q 753 154 776 209 q 691 63 729 99 q 591 6 653 27 q 445 -14 529 -14 m 670 1117 q 609 1003 664 1046 q 481 960 554 960 q 349 1002 403 960 q 296 1117 296 1045 l 333 1117 q 383 1055 341 1078 q 483 1033 425 1033 q 582 1055 537 1033 q 633 1117 626 1078 l 670 1117 "},"Ä�":{"x_min":53,"x_max":717,"ha":757,"o":"m 441 906 q 582 726 489 829 l 553 707 q 405 832 454 780 q 257 707 344 770 l 229 726 q 372 906 327 836 l 441 906 m 552 222 q 538 253 552 244 q 492 265 524 261 l 464 268 q 456 276 456 268 l 456 307 l 457 308 q 609 308 568 308 l 714 308 l 717 307 l 717 276 q 708 268 717 270 q 669 255 680 263 q 659 222 659 246 l 659 117 q 677 85 659 104 q 396 -14 534 -14 q 150 78 248 -14 q 53 305 53 170 q 155 563 53 467 q 413 659 257 659 q 538 646 457 659 q 637 633 620 633 q 654 456 637 546 l 618 451 q 396 621 586 621 q 228 537 289 621 q 167 323 167 453 q 176 248 167 288 q 206 168 186 208 q 256 96 227 128 q 328 43 285 63 q 421 23 372 23 q 552 78 496 23 l 552 222 "},"ÃŸ":{"x_min":21,"x_max":696,"ha":753,"o":"m 107 102 l 107 330 q 122 464 107 407 q 173 567 138 522 q 272 635 209 612 q 426 659 336 659 q 546 648 474 659 q 660 624 618 638 l 660 602 l 507 379 q 502 368 502 376 q 510 362 502 362 q 647 310 599 362 q 696 181 696 258 q 641 45 696 103 q 493 -12 587 -12 q 425 -3 462 -12 q 375 4 388 4 q 358 1 371 4 q 342 -1 346 -1 q 325 153 342 35 l 360 153 q 402 59 375 90 q 478 28 429 28 q 554 62 522 28 q 587 176 587 97 q 582 206 587 189 q 566 247 578 224 q 534 288 553 270 q 480 320 515 307 q 400 333 444 333 q 381 330 398 333 l 376 355 q 475 495 426 422 q 524 583 524 568 q 482 606 524 595 q 407 617 441 617 q 211 355 211 617 l 211 102 q 263 40 211 51 l 280 38 q 289 29 289 35 l 289 0 l 287 -1 q 157 -1 198 -1 l 22 -1 l 21 0 l 21 29 q 27 38 21 38 l 51 40 q 93 62 79 44 q 107 102 107 79 "},"s":{"x_min":54.4375,"x_max":492,"ha":544,"o":"m 446 623 q 459 471 459 551 l 425 471 q 367 576 409 536 q 275 617 326 617 q 193 588 222 617 q 164 513 164 559 q 174 474 164 494 q 201 439 185 454 q 236 410 216 424 q 271 388 256 397 q 298 375 286 380 q 345 354 325 363 q 395 325 365 344 q 444 287 425 306 q 477 239 463 268 q 492 179 492 210 q 436 37 492 92 q 290 -17 381 -17 q 172 -5 226 -17 q 115 7 118 7 q 91 3 105 7 q 69 -1 76 0 q 54 196 69 63 l 92 196 q 156 66 110 109 q 265 24 202 24 q 383 148 383 24 q 373 199 383 177 q 340 240 363 221 q 295 271 318 258 q 233 302 272 284 q 68 487 68 379 q 99 582 68 542 q 177 640 131 622 q 273 659 222 659 q 357 649 322 659 q 414 631 393 640 q 446 623 434 623 "},"Å°":{"x_min":0,"x_max":918,"ha":917,"o":"m 445 -14 q 364 -6 404 -14 q 279 25 323 1 q 201 84 234 48 q 146 183 168 121 q 124 327 124 246 l 124 794 q 107 841 124 826 q 49 856 90 856 l 10 856 q 0 867 0 856 l 0 896 l 2 897 q 177 897 123 897 l 356 897 l 359 896 l 359 867 q 348 856 359 856 l 312 856 q 254 841 271 856 q 237 797 237 827 l 237 374 q 237 318 237 337 q 240 265 237 299 q 251 209 244 231 q 273 159 258 186 q 309 112 288 133 q 475 42 381 42 q 553 50 518 42 q 615 74 589 58 q 659 109 640 89 q 691 155 679 128 q 712 208 704 182 q 724 266 720 233 q 729 325 729 299 q 729 385 729 352 l 729 794 q 712 841 729 827 q 655 856 696 856 l 617 856 q 607 867 607 856 l 607 896 l 609 897 q 762 897 707 897 l 915 897 l 918 896 l 918 867 q 906 856 918 856 l 870 856 q 811 839 828 856 q 794 792 794 822 l 794 409 q 785 270 794 330 q 753 154 776 209 q 691 63 729 99 q 591 6 653 27 q 445 -14 529 -14 m 695 1139 q 714 1100 714 1125 q 703 1072 714 1081 l 567 956 q 556 953 563 953 q 544 958 550 953 q 538 971 538 963 q 539 978 538 977 l 625 1136 q 657 1153 635 1153 q 695 1139 679 1153 m 511 1147 q 532 1107 532 1132 q 522 1081 532 1089 l 392 961 q 380 959 382 959 q 369 963 377 959 q 361 978 361 969 q 363 984 361 982 l 441 1144 q 479 1159 453 1159 q 511 1147 494 1159 "},"?":{"x_min":40,"x_max":512,"ha":562,"o":"m 135 794 q 143 758 135 768 q 151 724 151 748 q 134 689 151 702 q 97 676 118 676 q 57 689 75 676 q 40 735 40 703 q 111 861 40 805 q 283 916 174 916 q 450 858 388 916 q 512 705 512 801 q 502 645 512 674 q 479 595 492 615 q 444 552 466 575 q 406 518 422 530 q 365 487 390 505 q 292 417 306 444 q 268 316 268 368 l 268 255 q 250 241 268 241 q 232 255 232 241 l 232 319 q 234 368 232 347 q 244 420 236 389 q 273 482 252 451 q 324 543 293 513 q 388 618 369 584 q 408 700 408 653 q 367 821 408 769 q 269 874 327 874 q 173 850 211 874 q 135 794 135 827 m 197 7 q 176 59 176 29 q 197 110 176 88 q 249 133 219 133 q 301 110 279 133 q 323 59 323 88 q 301 7 323 29 q 249 -14 279 -14 q 197 7 219 -14 "},"Å…":{"x_min":16,"x_max":962,"ha":966,"o":"m 838 774 l 838 28 q 809 -10 838 -10 q 753 19 774 -10 l 268 632 q 221 678 232 678 q 210 662 213 678 q 207 609 207 647 l 207 120 q 225 63 207 86 q 283 38 244 41 l 320 38 q 331 26 331 38 l 331 0 l 328 -2 q 173 -2 229 -2 l 18 -2 l 16 0 l 16 25 q 33 38 16 35 l 69 38 q 127 66 109 42 q 145 121 145 89 l 145 764 q 110 825 138 794 q 50 859 82 856 q 27 870 27 862 l 27 894 l 31 898 l 219 898 l 696 281 q 757 209 746 216 q 765 205 762 205 q 774 214 772 205 q 776 247 776 223 l 776 775 q 758 831 776 808 q 700 858 740 854 l 664 858 q 651 861 658 858 q 645 869 645 864 l 645 896 l 650 897 q 805 897 754 897 l 959 897 l 962 896 l 962 869 q 951 858 962 858 l 913 858 q 856 831 874 854 q 838 774 838 808 m 497 -40 q 560 -70 536 -40 q 584 -140 584 -101 q 580 -169 584 -153 q 567 -206 577 -185 q 541 -245 557 -228 q 498 -274 526 -262 q 435 -287 470 -287 l 429 -264 q 481 -245 459 -258 q 514 -219 503 -232 q 531 -190 525 -205 q 538 -167 537 -175 q 540 -154 540 -159 q 537 -140 540 -148 q 496 -153 513 -153 q 442 -135 458 -153 q 427 -95 427 -117 q 445 -58 427 -76 q 497 -40 463 -40 "},"c":{"x_min":52,"x_max":624.34375,"ha":683,"o":"m 383 -17 q 242 11 306 -17 q 137 87 178 40 q 74 192 96 134 q 52 311 52 250 q 145 560 52 462 q 376 659 238 659 q 512 646 439 659 q 604 634 584 634 q 619 455 604 558 l 583 451 q 521 573 570 528 q 385 618 471 618 q 322 610 351 618 q 263 581 292 602 q 212 529 233 561 q 178 444 191 497 q 166 324 166 392 q 173 241 166 281 q 196 161 180 200 q 238 94 213 122 q 302 48 263 65 q 390 30 342 30 q 502 53 458 30 q 596 133 547 75 l 624 111 q 518 13 573 44 q 383 -17 462 -17 "},"Â¶":{"x_min":36.8125,"x_max":796,"ha":835,"o":"m 692 -200 q 697 -257 692 -239 q 712 -280 702 -275 q 747 -286 723 -286 l 787 -286 q 796 -295 796 -286 l 796 -325 l 339 -325 l 339 -295 q 347 -286 339 -286 l 386 -286 q 431 -269 421 -286 q 441 -199 441 -253 l 441 315 q 334 298 407 298 q 259 306 297 298 q 180 337 221 315 q 108 392 139 359 q 56 481 76 425 q 36 608 36 537 q 110 816 36 738 q 319 894 184 894 q 457 894 379 894 q 545 894 535 894 l 641 894 l 796 894 l 796 867 q 787 859 796 859 l 747 859 q 701 841 711 859 q 692 772 692 823 l 692 -200 m 565 -287 q 601 -268 593 -287 q 610 -201 610 -249 l 610 772 q 607 818 610 801 q 597 844 604 836 q 585 853 590 851 q 569 855 579 855 q 546 850 556 855 q 533 837 537 844 q 525 817 528 830 q 523 794 523 804 q 523 768 523 784 l 523 -198 q 565 -287 523 -287 "},"Äª":{"x_min":11,"x_max":402,"ha":407,"o":"m 260 800 l 260 95 q 276 52 260 64 q 336 40 293 40 l 372 40 q 383 28 383 40 l 383 0 l 380 -1 q 204 -1 314 -1 q 27 -1 95 -1 l 25 0 l 25 28 q 34 40 25 40 l 71 40 q 131 52 115 40 q 147 95 147 65 l 147 800 q 130 843 147 831 q 71 856 113 856 l 34 856 q 24 867 24 856 l 24 896 l 26 897 q 202 897 95 897 q 380 897 312 897 l 383 896 l 383 867 q 372 856 383 856 l 336 856 q 277 842 294 856 q 260 800 260 829 m 368 1019 l 29 1019 q 15 1025 20 1019 q 11 1040 11 1031 q 20 1066 11 1052 q 41 1080 30 1080 l 382 1080 q 396 1074 391 1080 q 402 1061 402 1068 q 391 1033 402 1047 q 368 1019 381 1019 "},"â€¢":{"x_min":68,"x_max":419,"ha":487,"o":"m 68 325 q 121 447 68 396 q 242 499 174 499 q 366 447 313 499 q 419 321 419 395 q 369 199 419 252 q 242 146 320 146 q 119 198 171 146 q 68 325 68 250 "},"(":{"x_min":62,"x_max":380.90625,"ha":410,"o":"m 62 350 q 143 703 62 536 q 355 982 225 870 l 380 957 q 341 909 359 932 q 288 827 323 887 q 230 706 254 768 q 188 549 207 644 q 170 350 170 453 q 188 151 170 247 q 230 -7 206 54 q 286 -128 253 -70 q 340 -211 320 -186 q 380 -259 359 -236 l 355 -283 q 248 -172 296 -232 q 170 -59 200 -112 q 117 51 139 -6 q 84 152 95 109 q 68 241 74 195 q 62 308 62 287 q 62 350 62 329 "},"Â­":{"x_min":46,"x_max":418,"ha":486,"o":"m 380 301 l 66 301 q 51 308 57 301 q 46 324 46 315 q 57 358 46 341 q 80 376 68 376 l 399 376 q 418 351 418 376 q 405 319 418 338 q 380 301 393 301 "},"Ä¦":{"x_min":24,"x_max":950,"ha":972,"o":"m 713 100 l 713 446 l 260 446 l 260 96 q 276 52 260 65 q 336 40 293 40 l 372 40 q 383 28 383 40 l 383 0 l 380 -1 q 205 -1 261 -1 l 27 -1 l 25 0 l 25 28 q 34 40 25 40 l 71 40 q 130 53 113 40 q 147 96 147 67 l 147 709 l 57 709 l 57 763 l 147 763 l 147 799 q 130 843 147 830 q 71 856 113 856 l 34 856 q 24 867 24 856 l 24 896 l 26 897 q 201 897 147 897 l 380 897 l 383 896 l 383 867 q 372 856 383 856 l 336 856 q 277 842 294 856 q 260 799 260 828 l 260 763 l 713 763 l 713 799 q 696 843 713 830 q 637 856 679 856 l 601 856 q 589 867 589 856 l 589 896 l 591 897 q 766 897 712 897 l 946 897 l 949 896 l 949 867 q 937 856 949 856 l 901 856 q 842 842 859 856 q 826 799 826 829 l 826 763 l 911 763 l 911 709 l 826 709 l 826 100 q 843 52 826 67 q 901 38 861 38 l 937 38 q 950 27 950 38 l 950 0 l 947 -1 q 772 -1 827 -1 l 592 -1 l 590 0 l 590 27 q 601 38 590 38 l 637 38 q 695 53 678 38 q 713 100 713 69 m 713 709 l 260 709 l 260 504 l 713 504 l 713 709 "},":":{"x_min":89,"x_max":236,"ha":305,"o":"m 89 127 q 110 179 89 157 q 162 201 132 201 q 214 179 192 201 q 236 127 236 157 q 214 75 236 97 q 162 54 192 54 q 110 75 132 54 q 89 127 89 97 m 110 441 q 89 493 89 463 q 110 544 89 522 q 162 567 132 567 q 214 544 192 567 q 236 493 236 522 q 214 441 236 463 q 162 419 192 419 q 110 441 132 419 "},"Ã›":{"x_min":0,"x_max":918,"ha":917,"o":"m 445 -14 q 364 -6 404 -14 q 279 25 323 1 q 201 84 234 48 q 146 183 168 121 q 124 327 124 246 l 124 794 q 107 841 124 826 q 49 856 90 856 l 10 856 q 0 867 0 856 l 0 896 l 2 897 q 177 897 123 897 l 356 897 l 359 896 l 359 867 q 348 856 359 856 l 312 856 q 254 841 271 856 q 237 797 237 827 l 237 374 q 237 318 237 337 q 240 265 237 299 q 251 209 244 231 q 273 159 258 186 q 309 112 288 133 q 475 42 381 42 q 553 50 518 42 q 615 74 589 58 q 659 109 640 89 q 691 155 679 128 q 712 208 704 182 q 724 266 720 233 q 729 325 729 299 q 729 385 729 352 l 729 794 q 712 841 729 827 q 655 856 696 856 l 617 856 q 607 867 607 856 l 607 896 l 609 897 q 762 897 707 897 l 915 897 l 918 896 l 918 867 q 906 856 918 856 l 870 856 q 811 839 828 856 q 794 792 794 822 l 794 409 q 785 270 794 330 q 753 154 776 209 q 691 63 729 99 q 591 6 653 27 q 445 -14 529 -14 m 513 1118 q 654 987 570 1050 l 632 958 q 484 1044 545 998 q 336 958 415 994 l 316 987 q 454 1118 373 1030 l 513 1118 "},"Å›":{"x_min":54.4375,"x_max":492,"ha":544,"o":"m 320 931 q 340 934 328 934 q 408 908 381 934 q 416 902 413 903 l 421 887 l 261 734 q 221 707 233 707 q 208 712 214 707 q 202 724 202 717 q 210 755 202 742 l 320 931 m 446 623 q 459 471 459 551 l 425 471 q 367 576 409 536 q 275 617 326 617 q 193 588 222 617 q 164 513 164 559 q 174 474 164 494 q 201 439 185 454 q 237 410 217 424 q 271 388 257 397 q 298 375 286 380 q 345 354 325 363 q 395 325 365 344 q 444 287 425 306 q 477 239 463 268 q 492 179 492 210 q 437 37 492 92 q 290 -17 382 -17 q 172 -5 226 -17 q 115 7 118 7 q 91 3 105 7 q 69 -1 76 0 q 54 196 69 63 l 92 196 q 156 66 110 109 q 265 24 202 24 q 383 148 383 24 q 373 199 383 177 q 341 240 363 221 q 295 271 318 258 q 233 302 272 284 q 68 487 68 379 q 99 582 68 542 q 177 640 131 622 q 273 659 222 659 q 357 649 322 659 q 414 631 393 640 q 446 623 434 623 "},"V":{"x_min":0,"x_max":864,"ha":863,"o":"m 672 786 q 669 840 686 823 q 611 857 653 857 l 588 857 q 578 868 578 857 l 578 896 l 580 897 q 733 897 678 897 l 861 897 l 864 896 l 864 868 q 852 857 864 857 q 775 834 800 857 q 733 766 750 810 l 451 15 q 417 -17 438 -17 q 385 15 397 -17 l 116 774 q 81 839 99 822 q 10 857 62 857 q 0 868 0 857 l 0 896 l 2 897 q 165 897 111 897 l 323 897 l 326 896 l 326 869 q 315 859 326 861 l 291 856 q 230 837 242 849 q 230 794 218 825 l 450 176 l 455 176 l 672 786 "},"Å–":{"x_min":24,"x_max":814.3125,"ha":804,"o":"m 378 862 q 284 846 308 862 q 260 798 260 830 l 260 452 l 329 452 q 406 457 372 452 q 471 477 439 462 q 523 514 503 491 q 556 575 544 537 q 569 664 569 613 q 551 763 569 722 q 504 825 534 804 q 444 853 475 845 q 378 862 414 862 m 376 909 q 514 895 456 909 q 617 839 571 881 q 691 665 691 769 q 677 587 691 624 q 643 524 663 549 q 596 478 623 498 q 548 445 570 457 q 505 428 525 434 l 681 136 q 742 55 713 82 q 814 29 771 29 l 814 -3 q 756 -14 795 -14 q 574 109 650 -14 l 425 351 q 374 391 408 378 q 260 404 340 404 l 260 96 q 276 53 260 66 q 335 40 293 40 l 372 40 q 383 28 383 40 l 383 0 l 380 -1 q 205 -1 260 -1 l 26 -1 l 24 0 l 24 28 q 34 40 24 40 l 70 40 q 130 53 113 40 q 147 96 147 67 l 147 799 q 128 843 147 829 q 86 857 109 857 l 32 857 q 24 865 24 857 l 24 896 l 26 897 q 202 897 138 897 q 292 903 224 897 q 376 909 360 909 m 403 -47 q 465 -77 441 -47 q 489 -147 489 -107 q 485 -176 489 -160 q 472 -213 482 -192 q 447 -251 462 -234 q 403 -280 431 -268 q 340 -293 375 -293 l 335 -270 q 386 -252 364 -265 q 418 -226 408 -239 q 435 -197 429 -212 q 442 -174 441 -181 q 444 -161 444 -166 q 441 -147 444 -155 q 401 -160 417 -160 q 347 -142 363 -160 q 332 -102 332 -124 q 350 -64 332 -82 q 403 -47 368 -47 "},"Â ":{"x_min":0,"x_max":0,"ha":347}}}
